<svg width="164" height="139" viewBox="0 0 164 139" fill="none" xmlns="http://www.w3.org/2000/svg">
<path d="M32.4019 26.9945C34.4231 26.9945 36.0616 25.3551 36.0616 23.3327C36.0616 21.3104 34.4231 19.6709 32.4019 19.6709C30.3807 19.6709 28.7422 21.3104 28.7422 23.3327C28.7422 25.3551 30.3807 26.9945 32.4019 26.9945Z" fill="#EAEEF9"/>
<path d="M132.562 38.1728C134.583 38.1728 136.222 36.5333 136.222 34.5109C136.222 32.4886 134.583 30.8491 132.562 30.8491C130.541 30.8491 128.902 32.4886 128.902 34.5109C128.902 36.5333 130.541 38.1728 132.562 38.1728Z" fill="#EAEEF9"/>
<path d="M39.8177 14.5636C40.6155 14.5636 41.2623 13.9165 41.2623 13.1182C41.2623 12.3199 40.6155 11.6727 39.8177 11.6727C39.0198 11.6727 38.373 12.3199 38.373 13.1182C38.373 13.9165 39.0198 14.5636 39.8177 14.5636Z" fill="#EAEEF9"/>
<path d="M128.325 22.6582C129.176 22.6582 129.866 21.9679 129.866 21.1164C129.866 20.2649 129.176 19.5746 128.325 19.5746C127.474 19.5746 126.784 20.2649 126.784 21.1164C126.784 21.9679 127.474 22.6582 128.325 22.6582Z" fill="#EAEEF9"/>
<path d="M81.7117 109C110.966 109 134.681 85.2711 134.681 56C134.681 26.7289 110.966 3 81.7117 3C52.4575 3 28.7423 26.7289 28.7423 56C28.7423 85.2711 52.4575 109 81.7117 109Z" fill="#EAEEF9"/>
<g filter="url(#filter0_d_105_1088)">
<path d="M96.5431 86.3546L50.5079 104.953C49.7374 105.242 48.8707 104.856 48.5817 104.182L22.0971 38.3655C21.8081 37.5946 22.1934 36.7273 22.8675 36.4382L68.9027 17.84C69.6732 17.5509 70.5399 17.9364 70.8288 18.6109L97.3135 84.3309C97.6987 85.1982 97.3135 86.0655 96.5431 86.3546Z" fill="white"/>
</g>
<path d="M76.2221 47.4237L37.6989 62.9382C37.3137 63.1309 36.9285 62.9382 36.7358 62.5527C36.5432 62.1673 36.7358 61.7818 37.1211 61.5891L75.5479 46.0746C75.9332 45.8818 76.3184 46.0746 76.511 46.46C76.7036 46.8455 76.511 47.2309 76.2221 47.4237Z" fill="#E6ECF5"/>
<path d="M77.6667 51.1818L39.2398 66.6964C38.8546 66.8891 38.4694 66.6964 38.2767 66.3109C38.0841 65.9255 38.2767 65.54 38.662 65.3473L77.0888 49.8327C77.474 49.64 77.8593 49.8328 78.0519 50.2182C78.2445 50.6037 78.0519 50.9891 77.6667 51.1818Z" fill="#E6ECF5"/>
<path d="M79.2077 54.8437L40.7808 70.4546C40.3956 70.6473 40.0104 70.4546 39.8178 70.0691C39.6251 69.6837 39.8178 69.2982 40.203 69.1055L78.6298 53.5909C79.0151 53.3982 79.4003 53.5909 79.5929 53.9764C79.7855 54.2655 79.5929 54.7473 79.2077 54.8437Z" fill="#E6ECF5"/>
<path d="M56.7679 68.3345L42.3217 74.2127C41.9365 74.4055 41.5513 74.2127 41.3586 73.8273C41.166 73.4418 41.3586 73.0564 41.7439 72.8636L56.1901 66.9855C56.5753 66.7927 56.9605 66.9855 57.1531 67.3709C57.2494 67.7564 57.1531 68.1418 56.7679 68.3345Z" fill="#E6ECF5"/>
<path opacity="0.3" d="M84.2157 64.3837L85.4677 67.5637C85.6603 68.1418 85.4677 68.8164 84.8898 69.0091L46.8482 84.4273C46.2703 84.62 45.5962 84.4273 45.4036 83.8491L44.1516 80.5728C43.959 79.9946 44.1516 79.32 44.7294 79.1273L82.771 63.8055C83.3489 63.6128 83.9267 63.9019 84.2157 64.3837Z" fill="url(#paint0_linear_105_1088)"/>
<path opacity="0.3" d="M87.2011 71.7073L88.4531 74.8873C88.6457 75.4655 88.4531 76.14 87.8753 76.3327L49.8337 91.7509C49.2558 91.9436 48.5817 91.7509 48.389 91.1727L47.0407 87.8964C46.8481 87.3182 47.0407 86.6436 47.6186 86.4509L85.6602 71.1291C86.238 70.9364 86.9122 71.2255 87.2011 71.7073Z" fill="url(#paint1_linear_105_1088)"/>
<path opacity="0.3" d="M90.0904 79.0309L91.3424 82.2109C91.535 82.7891 91.3424 83.4637 90.7646 83.6564L52.723 99.0746C52.1451 99.2673 51.471 99.0746 51.2783 98.4964L50.0263 95.3164C49.8337 94.7382 50.0263 94.0637 50.6042 93.8709L88.6458 78.5491C89.2236 78.26 89.8978 78.5491 90.0904 79.0309Z" fill="url(#paint2_linear_105_1088)"/>
<path d="M48.678 77.5854L50.7968 82.8854L46.8482 84.4273C46.2703 84.62 45.5962 84.4273 45.4036 83.8491L44.1516 80.5727C43.959 79.9945 44.1516 79.32 44.7294 79.1273L48.678 77.5854Z" fill="url(#paint3_linear_105_1088)"/>
<path d="M47.715 86.4509L59.272 81.7291L61.3907 87.0291L49.8338 91.7509C49.256 91.9437 48.5818 91.7509 48.3892 91.1728L47.0409 87.8964C46.8483 87.4146 47.1372 86.74 47.715 86.4509Z" fill="url(#paint4_linear_105_1088)"/>
<path d="M50.6042 93.7746L52.2414 93.1L54.3602 98.4L52.723 99.0746C52.1451 99.2673 51.471 99.0746 51.2783 98.4964L50.0263 95.3164C49.8337 94.7382 50.0263 94.0637 50.6042 93.7746Z" fill="url(#paint5_linear_105_1088)"/>
<path d="M51.182 44.1473C51.0857 38.8473 46.7518 34.5109 41.3586 34.5109H41.2623C35.869 34.5109 31.5352 38.9437 31.5352 44.34C31.6315 49.7364 36.0616 54.0727 41.4549 54.0727C44.4404 54.0727 47.0407 52.7237 48.8706 50.7C50.4115 48.9655 51.2783 46.7491 51.2783 44.2437C51.182 44.2437 51.182 44.2437 51.182 44.1473ZM41.4549 50.9891C37.7952 50.9891 34.8096 48.0018 34.8096 44.34C34.8096 40.6782 37.7952 37.6909 41.4549 37.6909H41.5512C45.2109 37.6909 48.1001 40.5818 48.1964 44.1473C48.1964 44.2437 48.1964 44.2437 48.1964 44.34C48.1964 45.9782 47.6186 47.52 46.5592 48.6764C45.2109 50.1218 43.4773 50.9891 41.4549 50.9891Z" fill="#E6EDF5"/>
<path d="M51.182 44.1473H48.0039C48.0039 40.5818 45.0183 37.6909 41.455 37.6909H41.3586V34.5109H41.455C46.7519 34.5109 51.0857 38.8473 51.182 44.1473Z" fill="url(#paint6_linear_105_1088)"/>
<g filter="url(#filter1_d_105_1088)">
<path d="M115.323 101.291L68.8064 83.9455C68.036 83.6564 67.6508 82.7891 67.9397 82.0182L92.5945 15.6237C92.8834 14.8527 93.7502 14.4673 94.5207 14.7564L141.037 32.0055C141.808 32.2946 142.193 33.1618 141.904 33.9327L117.249 100.424C116.96 101.195 116.094 101.58 115.323 101.291Z" fill="white"/>
</g>
<path opacity="0.4" d="M109.16 44.6291L105.404 43.1837L108.485 34.6073L112.241 35.9564L109.16 44.6291Z" fill="url(#paint7_linear_105_1088)"/>
<path d="M114.264 46.46L110.411 45.0145L115.13 31.9091L118.886 33.3545L114.264 46.46Z" fill="url(#paint8_linear_105_1088)"/>
<path d="M124.376 50.0254L120.62 48.6763L126.784 31.4272L130.636 32.7763L124.376 50.0254Z" fill="url(#paint9_linear_105_1088)"/>
<path opacity="0.4" d="M129.192 51.76L125.436 50.4109L127.073 45.6891L130.925 47.1345L129.192 51.76Z" fill="url(#paint10_linear_105_1088)"/>
<path d="M126.495 58.7946L87.5865 44.34C87.2013 44.2436 87.0087 43.7618 87.105 43.3764C87.2013 42.9909 87.6828 42.7982 88.0681 42.8946L126.976 57.3491C127.362 57.4455 127.554 57.9273 127.458 58.3127C127.265 58.6982 126.88 58.8909 126.495 58.7946Z" fill="#E6ECF5"/>
<path d="M125.05 62.5527L86.1418 48.0982C85.7566 48.0018 85.564 47.52 85.6603 47.1345C85.7566 46.7491 86.2381 46.5564 86.6234 46.6527L125.532 61.1073C125.917 61.2036 126.11 61.6855 126.013 62.0709C125.917 62.4564 125.435 62.7455 125.05 62.5527Z" fill="#E6ECF5"/>
<path d="M123.702 66.3109L84.7936 51.8564C84.4083 51.76 84.2157 51.2782 84.312 50.8927C84.4083 50.5073 84.8899 50.3145 85.2751 50.4109L124.183 64.8655C124.569 64.9618 124.761 65.4436 124.665 65.8291C124.472 66.3109 124.087 66.5036 123.702 66.3109Z" fill="#E6ECF5"/>
<path d="M98.0841 61.1073L83.4453 55.7109C83.0601 55.6146 82.8674 55.1327 82.9638 54.7473C83.0601 54.3618 83.5416 54.1691 83.9268 54.2655L98.5656 59.6618C98.9509 59.7582 99.1435 60.24 99.0472 60.6255C98.8546 61.0109 98.4693 61.2036 98.0841 61.1073Z" fill="#DDDDDD"/>
<path opacity="0.3" d="M121.005 76.7182L119.85 79.9946C119.657 80.5727 118.983 80.8618 118.405 80.6691L110.123 77.5855L79.8819 66.3109C79.304 66.1182 79.0151 65.4437 79.2077 64.8655L80.3634 61.5891C80.556 61.0109 81.2302 60.7218 81.8081 60.9146L111.856 72.0927L120.235 75.1764C120.909 75.5618 121.198 76.14 121.005 76.7182Z" fill="url(#paint11_linear_105_1088)"/>
<path opacity="0.3" d="M118.212 84.1382L117.057 87.4146C116.864 87.9927 116.19 88.2818 115.612 88.0891L112.819 87.0291L77.1852 73.8273C76.6074 73.6346 76.3185 72.96 76.5111 72.3818L77.6668 69.1055C77.8594 68.5273 78.5336 68.2382 79.1114 68.4309L114.842 81.7291L117.538 82.7891C118.116 82.9818 118.405 83.56 118.212 84.1382Z" fill="url(#paint12_linear_105_1088)"/>
<path opacity="0.3" d="M115.516 91.5582L114.36 94.8345C114.167 95.4127 113.493 95.7018 112.915 95.5091L98.6619 90.2091L74.4886 81.2473C73.9107 81.0545 73.6218 80.38 73.8144 79.8018L74.9701 76.5255C75.1627 75.9473 75.8369 75.6582 76.4147 75.8509L101.166 85.0054L114.842 90.1127C115.419 90.3055 115.708 90.98 115.516 91.5582Z" fill="url(#paint13_linear_105_1088)"/>
<path d="M76.4147 75.8509L101.166 85.0054L98.6619 90.1127L74.4886 81.1509C73.9107 80.9582 73.6218 80.2836 73.8144 79.7054L74.9701 76.4291C75.1627 75.9473 75.8369 75.6582 76.4147 75.8509Z" fill="url(#paint14_linear_105_1088)"/>
<path d="M79.2077 64.9618L80.3634 61.6855C80.556 61.1073 81.2302 60.8182 81.8081 61.0109L111.856 72.1891L109.93 77.4891L79.8819 66.3109C79.304 66.1182 79.0151 65.54 79.2077 64.9618Z" fill="url(#paint15_linear_105_1088)"/>
<path d="M114.842 81.7291L112.819 87.0291L77.1852 73.8273C76.6074 73.6346 76.3185 72.96 76.5111 72.3818L77.6668 69.1055C77.8594 68.5273 78.5336 68.2382 79.1114 68.4309L114.842 81.7291Z" fill="url(#paint16_linear_105_1088)"/>
<path d="M89.0311 63.7091L87.105 69.0091L79.8819 66.3109C79.304 66.1182 79.0151 65.4437 79.2077 64.8655L80.3634 61.5891C80.556 61.0109 81.2302 60.7218 81.8081 60.9146L89.0311 63.7091Z" fill="#DDDDDD"/>
<path d="M79.1114 68.4309L86.3345 71.1291L84.4083 76.4291L77.1852 73.7309C76.6074 73.5382 76.3185 72.8636 76.5111 72.2855L77.6668 69.0091C77.9557 68.5273 78.5336 68.2382 79.1114 68.4309Z" fill="#DDDDDD"/>
<path d="M76.4147 75.8509L83.6378 78.5491L81.7117 83.8491L74.4886 81.1509C73.9107 80.9582 73.6218 80.2836 73.8144 79.7054L74.9701 76.4291C75.1627 75.9473 75.8369 75.6582 76.4147 75.8509Z" fill="#DDDDDD"/>
<g filter="url(#filter2_d_105_1088)">
<path d="M107.041 85.1982H57.4421C56.6716 85.1982 55.9974 84.5237 55.9974 83.7528V12.8291C55.9974 12.0582 56.6716 11.3837 57.4421 11.3837H107.041C107.811 11.3837 108.485 12.0582 108.485 12.8291V83.6564C108.582 84.5237 107.907 85.1982 107.041 85.1982Z" fill="white"/>
</g>
<path d="M102.707 38.6537H61.2944C60.9092 38.6537 60.5239 38.3647 60.5239 37.8832C60.5239 37.498 60.8128 37.1127 61.2944 37.1127H102.707C103.092 37.1127 103.477 37.4017 103.477 37.8832C103.477 38.2684 103.092 38.6537 102.707 38.6537Z" fill="#E6ECF5"/>
<path d="M102.707 42.6046H61.2944C60.9092 42.6046 60.5239 42.3157 60.5239 41.8341C60.5239 41.4489 60.8128 41.0637 61.2944 41.0637H102.707C103.092 41.0637 103.477 41.3526 103.477 41.8341C103.477 42.3157 103.092 42.6046 102.707 42.6046Z" fill="#E6ECF5"/>
<path d="M102.707 46.6518H61.2944C60.9092 46.6518 60.5239 46.3629 60.5239 45.8814C60.5239 45.4961 60.8128 45.1109 61.2944 45.1109H102.707C103.092 45.1109 103.477 45.3998 103.477 45.8814C103.477 46.3629 103.092 46.6518 102.707 46.6518Z" fill="#E6ECF5"/>
<path d="M102.61 61.7809H88.6457C88.2605 61.7809 87.8752 61.492 87.8752 61.0105C87.8752 60.6252 88.1642 60.24 88.6457 60.24H102.61C102.996 60.24 103.381 60.5289 103.381 61.0105C103.285 61.3957 102.996 61.7809 102.61 61.7809Z" fill="#E6ECF5"/>
<path d="M80.0743 65.9255C79.978 60.6255 75.6441 56.2891 70.2509 56.2891H70.1546C64.7613 56.2891 60.4275 60.7219 60.4275 66.1182C60.4275 71.5146 64.8577 75.9473 70.2509 75.9473C73.2364 75.9473 75.8368 74.5982 77.6666 72.5746C79.2075 70.84 80.0743 68.6237 80.0743 66.1182C80.0743 66.0219 80.0743 65.9255 80.0743 65.9255ZM70.2509 72.6709C66.5912 72.6709 63.6057 69.6837 63.6057 66.0219C63.6057 62.36 66.5912 59.3728 70.2509 59.3728H70.3472C74.0069 59.3728 76.8961 62.2637 76.9924 65.8291C76.9924 65.9255 76.9924 65.9255 76.9924 66.0219C76.9924 67.66 76.4146 69.2019 75.3552 70.3582C74.0069 71.8037 72.2734 72.6709 70.2509 72.6709Z" fill="#E6EDF5"/>
<path d="M80.0745 65.9255H76.8963C76.8 62.36 73.9108 59.4691 70.2511 59.4691H70.1548V56.2891H70.2511C75.6443 56.2891 79.9782 60.5291 80.0745 65.9255Z" fill="url(#paint17_linear_105_1088)"/>
<path d="M80.0744 66.0218C80.0744 68.5273 79.2077 70.7437 77.6667 72.4782L75.259 70.4546C76.3184 69.2982 76.8963 67.7564 76.8963 66.1182C76.8963 66.0218 76.8963 66.0218 76.8963 65.9255H80.0744V66.0218Z" fill="url(#paint18_linear_105_1088)"/>
<path d="M85.275 62.0709C85.86 62.0709 86.3344 61.5964 86.3344 61.0109C86.3344 60.4255 85.86 59.9509 85.275 59.9509C84.6899 59.9509 84.2156 60.4255 84.2156 61.0109C84.2156 61.5964 84.6899 62.0709 85.275 62.0709Z" fill="#E6ECF5"/>
<path d="M102.61 66.2137H88.6457C88.2605 66.2137 87.8752 65.9247 87.8752 65.4432C87.8752 65.058 88.1642 64.6727 88.6457 64.6727H102.61C102.996 64.6727 103.381 64.9617 103.381 65.4432C103.285 65.8284 102.996 66.2137 102.61 66.2137Z" fill="#E6ECF5"/>
<path d="M85.275 66.5037C85.86 66.5037 86.3344 66.0291 86.3344 65.4437C86.3344 64.8582 85.86 64.3837 85.275 64.3837C84.6899 64.3837 84.2156 64.8582 84.2156 65.4437C84.2156 66.0291 84.6899 66.5037 85.275 66.5037Z" fill="url(#paint19_linear_105_1088)"/>
<path d="M102.61 70.6464H88.6457C88.2605 70.6464 87.8752 70.3575 87.8752 69.8759C87.8752 69.4907 88.1642 69.1055 88.6457 69.1055H102.61C102.996 69.1055 103.381 69.3944 103.381 69.8759C103.285 70.2612 102.996 70.6464 102.61 70.6464Z" fill="#E6ECF5"/>
<path d="M85.275 70.9363C85.86 70.9363 86.3344 70.4618 86.3344 69.8763C86.3344 69.2909 85.86 68.8163 85.275 68.8163C84.6899 68.8163 84.2156 69.2909 84.2156 69.8763C84.2156 70.4618 84.6899 70.9363 85.275 70.9363Z" fill="url(#paint20_linear_105_1088)"/>
<path d="M104.633 96.7618C104.633 101.195 101.069 104.76 96.6393 104.76C96.6393 104.76 96.543 104.76 94.4242 104.76C93.5574 104.76 92.498 104.76 90.9571 104.76C87.1048 104.76 80.7485 104.76 70.1546 104.76C64.8577 104.953 60.6201 100.616 60.6201 95.5091C60.6201 90.3054 64.8577 86.0654 70.2509 86.2582C74.8737 71.8036 95.9651 73.8273 97.795 88.7636C101.647 89.3418 104.633 92.7145 104.633 96.7618Z" fill="url(#paint21_linear_105_1088)"/>
<path d="M96.6393 104.76C101.054 104.76 104.633 101.179 104.633 96.7618C104.633 92.3445 101.054 88.7636 96.6393 88.7636C92.2246 88.7636 88.6458 92.3445 88.6458 96.7618C88.6458 101.179 92.2246 104.76 96.6393 104.76Z" fill="url(#paint22_linear_105_1088)"/>
<path d="M83.6377 104.76C91.4566 104.76 97.795 98.4179 97.795 90.5945C97.795 82.7712 91.4566 76.4291 83.6377 76.4291C75.8189 76.4291 69.4805 82.7712 69.4805 90.5945C69.4805 98.4179 75.8189 104.76 83.6377 104.76Z" fill="url(#paint23_linear_105_1088)"/>
<path d="M100.684 101.387L94.4242 104.76C93.5575 104.76 92.4981 104.76 90.9572 104.76L82.5784 96.3763L84.2156 95.3163L83.6378 88.6673L86.7196 87.4145L100.684 101.387Z" fill="url(#paint24_linear_105_1088)"/>
<path d="M82.8672 85.1982L78.2445 89.8236C77.7629 90.3054 77.7629 91.0764 78.2445 91.5582C78.726 92.04 79.4965 92.04 79.8817 91.5582L82.482 88.9564V95.8945C82.482 96.5691 83.0598 97.0509 83.6377 97.0509C84.3119 97.0509 84.7934 96.4727 84.7934 95.8945V88.9564L87.3937 91.5582C87.8752 92.04 88.6457 92.04 89.1272 91.5582C89.6088 91.0764 89.6088 90.3054 89.1272 89.92L84.5045 85.2945C84.1192 84.7164 83.3488 84.7164 82.8672 85.1982Z" fill="url(#paint25_linear_105_1088)"/>
<path d="M60.8127 33.3545H103.381V16.1054L96.6393 19.4782L93.0759 21.9836L86.7196 21.8873L81.1337 24.7782L76.3183 25.4527L74.5848 27.38L69.5768 30.56L64.6651 31.4273L60.8127 33.3545Z" fill="url(#paint26_linear_105_1088)"/>
<path d="M60.8127 33.3546H103.381V20.2491L96.6393 22.7546L93.0759 24.6818L86.7196 24.5855L81.1337 26.8018L76.3183 27.38L74.5848 28.7291L69.5768 31.2346L64.6651 31.9091L60.8127 33.3546Z" fill="#E6EDF5"/>
<path d="M60.8127 33.3545H103.381V25.9345L96.6393 27.38L93.0759 28.44H86.7196L81.1337 29.5964L76.3183 29.9818L74.5848 30.7527L69.5768 32.1018L64.6651 32.4873L60.8127 33.3545Z" fill="#CED7E2"/>
<defs>
<filter id="filter0_d_105_1088" x="0" y="6.74292" width="119.465" height="131.307" filterUnits="userSpaceOnUse" color-interpolation-filters="sRGB">
<feFlood flood-opacity="0" result="BackgroundImageFix"/>
<feColorMatrix in="SourceAlpha" type="matrix" values="0 0 0 0 0 0 0 0 0 0 0 0 0 0 0 0 0 0 127 0" result="hardAlpha"/>
<feOffset dy="11"/>
<feGaussianBlur stdDeviation="11"/>
<feColorMatrix type="matrix" values="0 0 0 0 0.397708 0 0 0 0 0.47749 0 0 0 0 0.575 0 0 0 0.18 0"/>
<feBlend mode="normal" in2="BackgroundImageFix" result="effect1_dropShadow_105_1088"/>
<feBlend mode="normal" in="SourceGraphic" in2="effect1_dropShadow_105_1088" result="shape"/>
</filter>
<filter id="filter1_d_105_1088" x="45.8438" y="3.6604" width="118.156" height="130.727" filterUnits="userSpaceOnUse" color-interpolation-filters="sRGB">
<feFlood flood-opacity="0" result="BackgroundImageFix"/>
<feColorMatrix in="SourceAlpha" type="matrix" values="0 0 0 0 0 0 0 0 0 0 0 0 0 0 0 0 0 0 127 0" result="hardAlpha"/>
<feOffset dy="11"/>
<feGaussianBlur stdDeviation="11"/>
<feColorMatrix type="matrix" values="0 0 0 0 0.397708 0 0 0 0 0.47749 0 0 0 0 0.575 0 0 0 0.18 0"/>
<feBlend mode="normal" in2="BackgroundImageFix" result="effect1_dropShadow_105_1088"/>
<feBlend mode="normal" in="SourceGraphic" in2="effect1_dropShadow_105_1088" result="shape"/>
</filter>
<filter id="filter2_d_105_1088" x="33.9974" y="0.383667" width="96.4969" height="117.815" filterUnits="userSpaceOnUse" color-interpolation-filters="sRGB">
<feFlood flood-opacity="0" result="BackgroundImageFix"/>
<feColorMatrix in="SourceAlpha" type="matrix" values="0 0 0 0 0 0 0 0 0 0 0 0 0 0 0 0 0 0 127 0" result="hardAlpha"/>
<feOffset dy="11"/>
<feGaussianBlur stdDeviation="11"/>
<feColorMatrix type="matrix" values="0 0 0 0 0.397708 0 0 0 0 0.47749 0 0 0 0 0.575 0 0 0 0.18 0"/>
<feBlend mode="normal" in2="BackgroundImageFix" result="effect1_dropShadow_105_1088"/>
<feBlend mode="normal" in="SourceGraphic" in2="effect1_dropShadow_105_1088" result="shape"/>
</filter>
<linearGradient id="paint0_linear_105_1088" x1="44.0337" y1="74.1229" x2="85.5723" y2="74.1229" gradientUnits="userSpaceOnUse">
<stop stop-color="#83A6FF"/>
<stop offset="1" stop-color="#5A78FF"/>
</linearGradient>
<linearGradient id="paint1_linear_105_1088" x1="46.9875" y1="81.4445" x2="88.526" y2="81.4445" gradientUnits="userSpaceOnUse">
<stop stop-color="#83A6FF"/>
<stop offset="1" stop-color="#5A78FF"/>
</linearGradient>
<linearGradient id="paint2_linear_105_1088" x1="49.9413" y1="88.7664" x2="91.4799" y2="88.7664" gradientUnits="userSpaceOnUse">
<stop stop-color="#83A6FF"/>
<stop offset="1" stop-color="#5A78FF"/>
</linearGradient>
<linearGradient id="paint3_linear_105_1088" x1="44.0337" y1="81.0564" x2="50.8101" y2="81.0564" gradientUnits="userSpaceOnUse">
<stop stop-color="#83A6FF"/>
<stop offset="1" stop-color="#5A78FF"/>
</linearGradient>
<linearGradient id="paint4_linear_105_1088" x1="46.9876" y1="86.8084" x2="61.3229" y2="86.8084" gradientUnits="userSpaceOnUse">
<stop stop-color="#83A6FF"/>
<stop offset="1" stop-color="#5A78FF"/>
</linearGradient>
<linearGradient id="paint5_linear_105_1088" x1="49.9413" y1="96.1663" x2="54.3788" y2="96.1663" gradientUnits="userSpaceOnUse">
<stop stop-color="#83A6FF"/>
<stop offset="1" stop-color="#5A78FF"/>
</linearGradient>
<linearGradient id="paint6_linear_105_1088" x1="41.3785" y1="39.3484" x2="51.2169" y2="39.3484" gradientUnits="userSpaceOnUse">
<stop stop-color="#83A6FF"/>
<stop offset="1" stop-color="#5A78FF"/>
</linearGradient>
<linearGradient id="paint7_linear_105_1088" x1="105.372" y1="39.5948" x2="112.283" y2="39.5948" gradientUnits="userSpaceOnUse">
<stop stop-color="#83A6FF"/>
<stop offset="1" stop-color="#5A78FF"/>
</linearGradient>
<linearGradient id="paint8_linear_105_1088" x1="110.424" y1="39.1855" x2="118.93" y2="39.1855" gradientUnits="userSpaceOnUse">
<stop stop-color="#83A6FF"/>
<stop offset="1" stop-color="#5A78FF"/>
</linearGradient>
<linearGradient id="paint9_linear_105_1088" x1="120.585" y1="40.738" x2="130.595" y2="40.738" gradientUnits="userSpaceOnUse">
<stop stop-color="#83A6FF"/>
<stop offset="1" stop-color="#5A78FF"/>
</linearGradient>
<linearGradient id="paint10_linear_105_1088" x1="125.411" y1="48.7617" x2="130.908" y2="48.7617" gradientUnits="userSpaceOnUse">
<stop stop-color="#83A6FF"/>
<stop offset="1" stop-color="#5A78FF"/>
</linearGradient>
<linearGradient id="paint11_linear_105_1088" x1="79.1764" y1="70.8367" x2="121.038" y2="70.8367" gradientUnits="userSpaceOnUse">
<stop stop-color="#FF66A9"/>
<stop offset="1" stop-color="#F53689"/>
</linearGradient>
<linearGradient id="paint12_linear_105_1088" x1="76.4273" y1="78.2375" x2="118.288" y2="78.2375" gradientUnits="userSpaceOnUse">
<stop stop-color="#FF66A9"/>
<stop offset="1" stop-color="#F53689"/>
</linearGradient>
<linearGradient id="paint13_linear_105_1088" x1="73.6775" y1="85.6395" x2="115.541" y2="85.6395" gradientUnits="userSpaceOnUse">
<stop stop-color="#FF66A9"/>
<stop offset="1" stop-color="#F53689"/>
</linearGradient>
<linearGradient id="paint14_linear_105_1088" x1="73.6775" y1="82.9592" x2="101.108" y2="82.9592" gradientUnits="userSpaceOnUse">
<stop stop-color="#FF66A9"/>
<stop offset="1" stop-color="#F53689"/>
</linearGradient>
<linearGradient id="paint15_linear_105_1088" x1="79.1764" y1="69.2595" x2="111.958" y2="69.2595" gradientUnits="userSpaceOnUse">
<stop stop-color="#FF66A9"/>
<stop offset="1" stop-color="#F53689"/>
</linearGradient>
<linearGradient id="paint16_linear_105_1088" x1="76.4273" y1="77.6752" x2="114.819" y2="77.6752" gradientUnits="userSpaceOnUse">
<stop stop-color="#FF66A9"/>
<stop offset="1" stop-color="#F53689"/>
</linearGradient>
<linearGradient id="paint17_linear_105_1088" x1="70.1979" y1="61.0654" x2="80.0364" y2="61.0654" gradientUnits="userSpaceOnUse">
<stop stop-color="#FF66A9"/>
<stop offset="1" stop-color="#F53689"/>
</linearGradient>
<linearGradient id="paint18_linear_105_1088" x1="75.2617" y1="69.1759" x2="80.0394" y2="69.1759" gradientUnits="userSpaceOnUse">
<stop stop-color="#83A6FF"/>
<stop offset="1" stop-color="#5A78FF"/>
</linearGradient>
<linearGradient id="paint19_linear_105_1088" x1="84.2828" y1="65.4401" x2="86.3334" y2="65.4401" gradientUnits="userSpaceOnUse">
<stop stop-color="#FF66A9"/>
<stop offset="1" stop-color="#F53689"/>
</linearGradient>
<linearGradient id="paint20_linear_105_1088" x1="84.2828" y1="69.8799" x2="86.3334" y2="69.8799" gradientUnits="userSpaceOnUse">
<stop stop-color="#83A6FF"/>
<stop offset="1" stop-color="#5A78FF"/>
</linearGradient>
<linearGradient id="paint21_linear_105_1088" x1="82.605" y1="76.3253" x2="82.605" y2="104.723" gradientUnits="userSpaceOnUse">
<stop stop-color="#83A6FF"/>
<stop offset="1" stop-color="#5A78FF"/>
</linearGradient>
<linearGradient id="paint22_linear_105_1088" x1="87.8397" y1="87.1196" x2="94.9246" y2="94.844" gradientUnits="userSpaceOnUse">
<stop stop-color="#83A6FF"/>
<stop offset="1" stop-color="#87A5FF" stop-opacity="0"/>
</linearGradient>
<linearGradient id="paint23_linear_105_1088" x1="72.9405" y1="82.3331" x2="77.6974" y2="85.9977" gradientUnits="userSpaceOnUse">
<stop stop-color="#83A6FF"/>
<stop offset="1" stop-color="#87A5FF" stop-opacity="0"/>
</linearGradient>
<linearGradient id="paint24_linear_105_1088" x1="84.3217" y1="91.5476" x2="93.6731" y2="100.894" gradientUnits="userSpaceOnUse">
<stop stop-color="#4F6AFF"/>
<stop offset="1" stop-color="#657EFF" stop-opacity="0"/>
</linearGradient>
<linearGradient id="paint25_linear_105_1088" x1="87.0517" y1="94.3546" x2="80.3231" y2="87.6299" gradientUnits="userSpaceOnUse">
<stop offset="0.0113208" stop-color="#C2D1FF"/>
<stop offset="1" stop-color="white"/>
</linearGradient>
<linearGradient id="paint26_linear_105_1088" x1="60.8503" y1="24.7267" x2="103.419" y2="24.7267" gradientUnits="userSpaceOnUse">
<stop stop-color="#FF66A9"/>
<stop offset="1" stop-color="#F53689"/>
</linearGradient>
</defs>
</svg>
