<svg width="120" height="108" viewBox="0 0 120 108" fill="none" xmlns="http://www.w3.org/2000/svg">
<path d="M106.598 59.3135C106.598 70.361 102.882 80.5286 96.7206 88.7409C93.2977 93.1403 89.1903 97.0509 84.496 100.082C76.8679 105.068 67.7729 108.001 57.9932 108.001C31.0992 107.903 9.29065 86.1012 9.29065 59.3135C9.29065 32.428 31.0992 10.7241 57.8954 10.7241C67.6751 10.7241 76.7701 13.6571 84.3983 18.5454C89.0925 21.5761 93.1999 25.4867 96.6228 29.8861C102.882 38.0984 106.598 48.266 106.598 59.3135Z" fill="#EAEEF9"/>
<path opacity="0.2" d="M97 88.3747L94.3141 101.429L74.554 103L42.9952 101.233L19.3981 100.153C18.0552 100.153 17 99.0737 17 97.7977V28.4992C17 26.9287 18.3429 25.7508 19.7818 26.0453L56.0408 27.0269L97 88.3747Z" fill="#2B4182"/>
<path d="M74.7163 27.8324V98.1257L92.5152 100.961C96.6227 101.645 100.437 98.419 100.437 94.3129V28.5168C100.437 25.1928 97.9918 22.3576 94.6668 21.8687L90.1681 21.1844L74.7163 27.8324Z" fill="#F2F5FC"/>
<path d="M43.7148 21.674L60.1446 20.1097L43.7148 32.2326V21.674Z" fill="#DDE1F0"/>
<path d="M16.2341 23.0419V44.4525L28.9477 38.7821L34.522 36.338L43.7149 32.2318V21.6732L22.6887 17.7626C22.4931 17.7626 22.3953 17.6648 22.1997 17.6648C19.5592 17.3715 17.2121 19.0335 16.4297 21.4776C16.3319 22.0642 16.2341 22.5531 16.2341 23.0419Z" fill="#F2F5FC"/>
<path d="M16.2341 61.7569V91.6731C16.2341 92.162 16.3319 92.6508 16.4297 93.1396C16.6253 93.9218 17.1143 94.7039 17.7011 95.2905C18.4834 96.0726 19.4614 96.6592 20.635 96.9525L21.0262 97.0502L25.1336 97.8324L27.8719 98.3212L43.6171 101.254V49.243L43.1281 49.4385L38.2383 51.6871L16.2341 61.7569Z" fill="#F2F5FC"/>
<path d="M74.7163 27.8327V18.6428L90.2659 21.0869L74.8141 27.7349L74.7163 27.8327Z" fill="#D6DBEB"/>
<path d="M43.7148 49.2433V32.2321L60.1446 20.1092L74.7163 18.6428V27.8327L43.7148 49.2433Z" fill="#C5CCDE"/>
<path d="M43.7149 49.243L16.2341 61.757V44.4525L43.7149 32.2318V49.243Z" fill="#D6DBEB"/>
<path d="M44.4972 90.4022L43.7148 90.6955V49.243L74.7163 27.8324V73.0978H70.2177L44.4972 90.4022Z" fill="#DDE1F0"/>
<path d="M100.535 73.0978V94.3129C100.535 98.419 96.8183 101.645 92.613 100.961L74.8141 98.1257V73.0978H100.535Z" fill="#CCD7FF"/>
<path d="M43.7149 90.6955V101.254L25.1335 97.8324L43.7149 90.6955Z" fill="#CCD7FF"/>
<path d="M44.4972 90.4023L70.2177 73.0978H74.7163V98.2235L43.7148 101.254V90.6955L44.4972 90.4023Z" fill="#B3C3FF"/>
<path d="M16.4297 93.1397C16.6253 93.9219 17.1143 94.704 17.701 95.2906C18.4834 96.0727 19.4614 96.6593 20.6349 96.9526L21.0261 97.0503L25.1336 97.8325L27.8719 98.3213L43.6171 94.0196L44.2039 93.8241L74.7163 75.2487H100.437V67.9163L74.7163 68.3073H72.0758L43.7149 50.3185L43.2259 49.5364L34.522 36.3381L22.2975 17.7626C19.657 17.4693 17.3099 19.1313 16.5275 21.5755L28.9476 38.88L38.2383 51.785L43.6171 59.3129L64.7411 72.8045L43.6171 86.4917L43.4215 86.6872L16.4297 93.1397Z" fill="white"/>
<path d="M18.6523 20.2901C19.9364 19.8728 20.639 18.4939 20.2216 17.2102C19.8043 15.9265 18.4249 15.2241 17.1408 15.6413C15.8567 16.0586 15.154 17.4375 15.5714 18.7212C15.9888 20.0049 17.3681 20.7073 18.6523 20.2901Z" fill="#EAEEF9"/>
<path d="M23.9892 12.3167C24.8624 12.0328 25.3402 11.0949 25.0564 10.2217C24.7726 9.34849 23.8346 8.8707 22.9614 9.15451C22.0882 9.43833 21.6104 10.3763 21.8943 11.2495C22.1781 12.1227 23.116 12.6005 23.9892 12.3167Z" fill="#EAEEF9"/>
<path d="M1.66254 64.9832C2.58073 64.9832 3.32508 64.2391 3.32508 63.3212C3.32508 62.4033 2.58073 61.6592 1.66254 61.6592C0.744344 61.6592 0 62.4033 0 63.3212C0 64.2391 0.744344 64.9832 1.66254 64.9832Z" fill="url(#paint0_linear_105_2874)"/>
<path d="M117.257 44.4534C118.772 43.0693 118.878 40.7194 117.493 39.2047C116.108 37.6901 113.758 37.5843 112.243 38.9685C110.728 40.3526 110.622 42.7025 112.006 44.2171C113.391 45.7318 115.741 45.8375 117.257 44.4534Z" fill="#EAEEF9"/>
<path d="M116.475 28.2245C117.34 28.2245 118.04 27.5239 118.04 26.6597C118.04 25.7955 117.34 25.095 116.475 25.095C115.611 25.095 114.911 25.7955 114.911 26.6597C114.911 27.5239 115.611 28.2245 116.475 28.2245Z" fill="url(#paint1_linear_105_2874)"/>
<path d="M59.3624 15.2216C60.2265 15.2216 60.9271 14.5211 60.9271 13.6569C60.9271 12.7927 60.2265 12.0922 59.3624 12.0922C58.4982 12.0922 57.7976 12.7927 57.7976 13.6569C57.7976 14.5211 58.4982 15.2216 59.3624 15.2216Z" fill="#EAEEF9"/>
<g filter="url(#filter0_d_105_2874)">
<path d="M61.4162 20.0112C61.4162 22.0642 61.025 24.2151 60.3404 26.4637C58.9713 30.9609 56.5264 35.7514 53.9837 40.3464C51.1476 45.4302 48.1159 50.4162 46.2578 54.6201C45.9644 55.4022 45.182 55.7933 44.3996 55.7933C43.6173 55.7933 42.8349 55.3045 42.5415 54.6201C38.1407 44.7458 27.3831 30.7654 27.3831 20.0112C27.3831 10.6257 35.0112 3 44.3996 3C53.7881 3 61.4162 10.6257 61.4162 20.0112Z" fill="url(#paint2_linear_105_2874)"/>
</g>
<path d="M60.3404 26.4637C58.9713 30.9609 56.5264 35.7514 53.9836 40.3464L39.412 25.7793L45.7688 19.7179L49.974 15.905L60.3404 26.4637Z" fill="url(#paint3_linear_105_2874)"/>
<path d="M44.3995 27.8324C48.3964 27.8324 51.6365 24.5934 51.6365 20.5978C51.6365 16.6022 48.3964 13.3632 44.3995 13.3632C40.4027 13.3632 37.1626 16.6022 37.1626 20.5978C37.1626 24.5934 40.4027 27.8324 44.3995 27.8324Z" fill="url(#paint4_linear_105_2874)"/>
<defs>
<filter id="filter0_d_105_2874" x="19.3831" y="0" width="50.0331" height="68.7933" filterUnits="userSpaceOnUse" color-interpolation-filters="sRGB">
<feFlood flood-opacity="0" result="BackgroundImageFix"/>
<feColorMatrix in="SourceAlpha" type="matrix" values="0 0 0 0 0 0 0 0 0 0 0 0 0 0 0 0 0 0 127 0" result="hardAlpha"/>
<feOffset dy="5"/>
<feGaussianBlur stdDeviation="4"/>
<feColorMatrix type="matrix" values="0 0 0 0 0.968627 0 0 0 0 0.254902 0 0 0 0 0.564706 0 0 0 0.3 0"/>
<feBlend mode="normal" in2="BackgroundImageFix" result="effect1_dropShadow_105_2874"/>
<feBlend mode="normal" in="SourceGraphic" in2="effect1_dropShadow_105_2874" result="shape"/>
</filter>
<linearGradient id="paint0_linear_105_2874" x1="0" y1="63.3626" x2="3.23256" y2="63.3626" gradientUnits="userSpaceOnUse">
<stop stop-color="#83A6FF"/>
<stop offset="1" stop-color="#5A78FF"/>
</linearGradient>
<linearGradient id="paint1_linear_105_2874" x1="114.939" y1="26.6456" x2="117.975" y2="26.6456" gradientUnits="userSpaceOnUse">
<stop stop-color="#83A6FF"/>
<stop offset="1" stop-color="#5A78FF"/>
</linearGradient>
<linearGradient id="paint2_linear_105_2874" x1="27.3563" y1="29.4411" x2="61.4127" y2="29.4411" gradientUnits="userSpaceOnUse">
<stop stop-color="#FF66A9"/>
<stop offset="1" stop-color="#F53689"/>
</linearGradient>
<linearGradient id="paint3_linear_105_2874" x1="44.2554" y1="20.5229" x2="55.879" y2="32.1503" gradientUnits="userSpaceOnUse">
<stop stop-color="#E81778"/>
<stop offset="1" stop-color="#E01F79" stop-opacity="0"/>
</linearGradient>
<linearGradient id="paint4_linear_105_2874" x1="49.2663" y1="25.5189" x2="39.4019" y2="15.6516" gradientUnits="userSpaceOnUse">
<stop offset="0.0113208" stop-color="#FFC9E3"/>
<stop offset="1" stop-color="white"/>
</linearGradient>
</defs>
</svg>
