<svg width="126" height="135" viewBox="0 0 126 135" fill="none" xmlns="http://www.w3.org/2000/svg">
<path d="M63.3995 110.522C90.8357 110.522 113.077 88.1409 113.077 60.5322C113.077 32.9235 90.8357 10.5421 63.3995 10.5421C35.9632 10.5421 13.7217 32.9235 13.7217 60.5322C13.7217 88.1409 35.9632 110.522 63.3995 110.522Z" fill="#EAEEF9"/>
<path d="M121.196 47.3484C122.745 45.9243 122.853 43.5067 121.438 41.9484C120.023 40.3901 117.62 40.2813 116.071 41.7053C114.523 43.1293 114.415 45.547 115.83 47.1053C117.245 48.6636 119.648 48.7724 121.196 47.3484Z" fill="#EAEEF9"/>
<path d="M34.682 14.8506C35.9945 14.4214 36.7126 13.0027 36.286 11.682C35.8594 10.3613 34.4496 9.63863 33.1372 10.0679C31.8247 10.4972 31.1066 11.9158 31.5331 13.2365C31.9597 14.5572 33.3695 15.2799 34.682 14.8506Z" fill="#EAEEF9"/>
<path d="M40.1368 6.64616C41.0293 6.35425 41.5176 5.38958 41.2275 4.49149C40.9374 3.5934 39.9788 3.10198 39.0863 3.39389C38.1938 3.68579 37.7055 4.65047 37.9956 5.54856C38.2857 6.44665 39.2443 6.93806 40.1368 6.64616Z" fill="#EAEEF9"/>
<path d="M121.477 30.3549C122.129 29.7554 122.174 28.7374 121.578 28.0813C120.983 27.4252 119.971 27.3793 119.319 27.9789C118.667 28.5785 118.621 29.5965 119.217 30.2526C119.813 30.9087 120.825 30.9545 121.477 30.3549Z" fill="#EAEEF9"/>
<path d="M81.1299 6.83558C81.5783 6.42318 81.6097 5.72302 81.1998 5.27174C80.79 4.82045 80.0942 4.78893 79.6458 5.20134C79.1973 5.61374 79.166 6.3139 79.5758 6.76518C79.9856 7.21647 80.6814 7.24799 81.1299 6.83558Z" fill="#EAEEF9"/>
<g filter="url(#filter0_d_103_658)">
<path d="M92.5864 19.997H69.9965H32.7132C27.2157 20.3993 22.8176 25.1267 22.8176 30.7594V56.8106V59.7275V90.3049C22.8176 96.2393 27.6155 101.067 33.5128 101.067H92.5864C98.4838 101.067 103.282 96.2393 103.282 90.3049V59.7275V56.8106V30.7594C103.282 24.825 98.4838 19.997 92.5864 19.997Z" fill="white"/>
</g>
<path d="M92.5864 19.997H69.9965H32.7132C27.2157 20.3993 22.8176 25.1267 22.8176 30.7594V55.503H103.382V30.7594C103.282 24.825 98.4838 19.997 92.5864 19.997ZM42.3089 29.0495C41.0095 29.0495 40.0099 28.0437 40.0099 26.7361C40.0099 25.4285 41.0095 24.4227 42.3089 24.4227C43.6083 24.4227 44.6079 25.4285 44.6079 26.7361C44.5079 27.9431 43.5084 29.0495 42.3089 29.0495ZM83.0907 29.0495C81.7912 29.0495 80.7917 28.0437 80.7917 26.7361C80.7917 25.4285 81.7912 24.4227 83.0907 24.4227C84.3901 24.4227 85.3896 25.4285 85.3896 26.7361C85.2897 27.9431 84.2901 29.0495 83.0907 29.0495Z" fill="#D5DAE8"/>
<path d="M22.8176 56.8106V90.305C22.8176 96.2394 27.6155 101.067 33.5128 101.067H92.5864C98.4838 101.067 103.282 96.2394 103.282 90.305V56.8106H22.8176Z" fill="white"/>
<path d="M22.8176 59.8281L18.9193 39.4096C18.0197 34.7828 22.8176 30.86 29.6146 30.86H97.5841C104.381 30.86 109.079 34.7828 107.979 39.4096L103.382 59.8281" fill="#EAEEF9"/>
<path d="M55.403 81.7553C48.806 81.7553 43.9082 77.8325 43.8082 72.401V71.7975H46.7069V72.401C46.8069 76.1226 50.6052 79.0396 55.403 79.0396C60.4008 79.0396 64.0991 76.022 64.0991 71.7975C64.0991 67.573 60.7007 64.9578 54.9033 64.9578H50.6052V62.1415H54.9033C59.5012 62.1415 62.6998 59.5263 62.6998 55.7042C62.6998 52.0832 59.5012 49.3674 55.1032 49.3674C51.005 49.3674 47.8064 51.9826 47.5066 55.6036V56.1065H44.6079V55.503C44.9077 50.2726 49.3058 46.4505 55.2031 46.4505C61.2004 46.4505 65.6984 50.2726 65.6984 55.4024C65.6984 58.9228 63.7993 61.8398 60.6007 63.1473C64.6989 64.2538 67.1978 67.3719 67.1978 71.4958C67.0978 77.4302 62.1 81.7553 55.403 81.7553Z" fill="#1C3754"/>
<path d="M78.6926 81.2524V50.675C77.6931 51.2785 76.2937 52.1837 74.9943 53.089L74.7944 53.1896C73.1951 54.1954 71.5958 55.3018 70.5962 55.9053L69.6967 56.5088V53.089L69.9965 52.8878C70.7962 52.3849 71.9956 51.5802 73.295 50.7755C75.2941 49.468 77.5931 47.9592 78.9925 47.054L79.0924 46.9534H81.5913V81.1518H78.6926V81.2524Z" fill="#1C3754"/>
<g filter="url(#filter1_d_103_658)">
<path d="M117.489 98.1605C117.389 98.4622 117.389 98.764 117.289 99.1663C115.49 105.905 110.292 110.834 103.895 112.444C101.296 113.148 98.4977 113.148 95.699 112.645C85.7034 110.533 79.3062 100.675 81.4053 90.7174C83.5044 80.659 93.2001 74.2219 103.196 76.3341C106.694 77.0382 109.993 78.8487 112.491 81.3633C116.89 85.6884 118.789 92.0249 117.489 98.1605Z" fill="url(#paint0_linear_103_658)"/>
</g>
<path d="M117.275 99.0557C115.476 105.795 110.278 110.723 103.881 112.333L93.386 101.771L95.3851 99.8604L102.082 99.1563L105.381 90.5061L103.082 88.4944L107.18 89.0979L117.275 99.0557Z" fill="url(#paint1_linear_103_658)"/>
<path d="M107.233 89.0667C106.433 88.0609 105.434 87.2562 104.334 86.6527C103.834 86.351 103.135 86.5521 102.835 87.1557C102.535 87.6586 102.735 88.3627 103.335 88.6644C104.234 89.0667 104.934 89.6702 105.534 90.4749C105.933 90.9778 106.633 91.0784 107.133 90.6761C107.533 90.1732 107.633 89.4691 107.233 89.0667Z" fill="url(#paint2_linear_103_658)"/>
<path d="M93.339 90.475C93.9387 89.6703 94.7384 88.9662 95.638 88.5639C96.1378 88.2621 96.3377 87.558 96.0378 87.0551C95.7379 86.5522 95.0382 86.351 94.5385 86.6528C93.439 87.2563 92.4394 88.1615 91.6398 89.1674C91.24 89.6703 91.3399 90.3744 91.8397 90.6761C92.2395 91.0785 92.9392 90.9779 93.339 90.475Z" fill="url(#paint3_linear_103_658)"/>
<path d="M104.435 99.9305C107.033 97.2148 106.933 92.7891 104.135 90.1739C103.235 89.3693 102.236 88.7658 101.136 88.464C100.037 88.1623 98.837 88.1623 97.7375 88.464C94.0392 89.3693 91.8402 93.1914 92.7398 96.8125C93.0396 97.9189 93.6394 99.0253 94.439 99.9305L93.5394 100.836C93.2395 101.138 93.2395 101.64 93.5394 101.942C93.8393 102.244 94.3391 102.244 94.539 101.942L95.5385 100.936C96.2382 101.339 96.9379 101.741 97.6376 101.942C98.7371 102.244 99.9365 102.244 101.036 101.942C101.836 101.741 102.535 101.439 103.135 100.936L104.135 101.942C104.435 102.244 104.934 102.244 105.234 101.942C105.534 101.64 105.534 101.138 105.234 100.836L104.435 99.9305ZM101.736 96.7119C101.636 96.913 101.336 97.1142 101.036 97.1142C100.936 97.1142 100.736 97.1142 100.636 97.0136L98.837 95.9072C98.6371 95.8066 98.4372 95.5049 98.4372 95.3037V91.5821C98.4372 91.1798 98.7371 90.7774 99.2369 90.878C99.6367 90.878 99.9366 91.1798 99.9366 91.5821V94.9014L101.436 95.706C101.836 95.9072 101.936 96.3095 101.736 96.7119Z" fill="url(#paint4_linear_103_658)"/>
<path d="M99.2585 5.6332C98.9586 5.33144 98.5588 5.02969 98.159 4.72794V4.62736C98.159 4.62736 98.2589 4.52678 98.3589 4.52678C98.6588 4.32561 98.9586 4.02386 99.0586 3.72211C99.1585 3.11861 98.6588 2.91744 98.3589 2.71627C98.3589 2.71627 98.2589 2.71627 98.2589 2.61569L98.3589 2.5151C98.6588 2.31394 98.9586 1.9116 98.9586 1.50927C98.9586 1.3081 98.7587 1.10693 98.5588 1.10693C98.3589 1.10693 98.159 1.3081 98.159 1.50927C98.159 1.60985 97.9591 1.81102 97.8591 1.9116C97.6592 2.11277 97.3593 2.41452 97.3593 2.81685C97.4593 3.11861 97.6592 3.31977 97.9591 3.42036C98.059 3.42036 98.159 3.52094 98.159 3.52094C98.159 3.62152 97.9591 3.72211 97.8591 3.82269C97.6592 3.92327 97.5592 4.12444 97.3593 4.22503C97.3593 4.22503 97.2594 4.22503 97.2594 4.12444C97.0595 4.02386 96.8596 3.92327 96.6597 3.82269C96.5597 3.82269 96.4597 3.72211 96.3598 3.72211C95.6601 3.52094 95.1603 3.62152 94.7605 4.02386C94.6606 4.12444 94.5606 4.22503 94.5606 4.42619L91.7618 12.4729C91.6619 12.7746 91.7619 13.0764 92.0617 13.177C92.1617 13.177 92.3616 13.177 92.4615 13.177L100.158 10.26H100.258C100.358 10.1595 100.458 10.1595 100.558 10.0589C100.858 9.75712 100.958 9.35479 100.958 8.95245C100.858 8.14779 100.658 7.4437 100.158 6.8402C100.058 6.43786 99.6583 6.03553 99.2585 5.6332ZM100.058 9.55596C99.7583 9.85771 98.3589 9.55596 96.8596 8.0472C95.3602 6.53845 95.1603 5.13028 95.4602 4.82853C95.6601 4.62736 96.2598 4.72794 97.0595 5.13028L96.8596 5.43203C96.7596 5.6332 96.7596 5.83436 96.9595 6.03553C97.0595 6.03553 97.0595 6.13611 97.1594 6.13611C97.2594 6.13611 97.4593 6.03553 97.4593 5.93495L97.6592 5.6332C97.9591 5.83436 98.2589 6.13611 98.5588 6.43786C100.058 7.74545 100.458 9.2542 100.058 9.55596Z" fill="url(#paint5_linear_103_658)"/>
<path d="M104.656 6.53793C104.556 6.63851 104.256 6.43735 104.056 6.33676C103.757 6.1356 103.257 5.93443 102.957 6.23618C102.657 6.53793 102.757 6.83968 102.757 7.24202C102.757 7.3426 102.757 7.44318 102.757 7.54377C102.557 7.44318 102.457 7.3426 102.257 7.24202C101.957 7.04085 101.458 6.7391 101.058 7.14143C100.958 7.3426 100.958 7.54377 101.158 7.74493C101.258 7.84552 101.458 7.84552 101.558 7.74493C101.657 7.74493 101.757 7.84552 101.857 7.9461C102.157 8.14727 102.457 8.34844 102.857 8.34844C102.957 8.34844 102.957 8.34844 103.057 8.34844C103.657 8.14727 103.557 7.44318 103.557 7.14143C103.557 7.14143 103.557 7.04085 103.557 6.94027C103.657 6.94027 103.657 7.04085 103.757 7.04085C104.156 7.24202 104.656 7.44318 105.056 7.24202C105.256 7.14143 105.356 6.94027 105.256 6.7391C105.156 6.53793 104.956 6.43735 104.656 6.53793C104.656 6.53793 104.756 6.53793 104.656 6.53793Z" fill="url(#paint6_linear_103_658)"/>
<path d="M100.158 5.12979C100.258 5.12979 100.358 5.0292 100.458 5.0292C100.558 5.0292 100.658 5.0292 100.658 5.0292C101.058 5.12979 101.458 5.12979 101.757 4.92862C102.157 4.62687 102.257 4.22454 102.157 3.72162C102.157 3.62103 102.157 3.41987 102.157 3.41987C102.257 3.41987 102.357 3.41987 102.457 3.41987C102.857 3.52045 103.357 3.41987 103.657 3.11812C103.856 3.01753 103.856 2.71578 103.756 2.51461C103.657 2.31345 103.357 2.31345 103.157 2.41403C102.957 2.51461 102.657 2.6152 102.457 2.51461C102.057 2.41403 101.757 2.51461 101.458 2.81636C101.258 3.11812 101.258 3.41987 101.258 3.72162C101.258 4.02337 101.258 4.12395 101.158 4.12395C101.058 4.22454 100.858 4.12395 100.658 4.12395C100.358 4.02337 99.9582 3.92278 99.6583 4.32512C99.5583 4.52629 99.5584 4.72745 99.7583 4.82804C100.058 5.12979 100.058 5.12979 100.158 5.12979Z" fill="url(#paint7_linear_103_658)"/>
<path d="M100.958 1.50943C100.958 1.61006 100.958 1.61006 101.058 1.71069H101.158L101.658 1.50943C101.758 1.4088 101.858 1.4088 101.958 1.50943L102.458 1.71069C102.558 1.71069 102.558 1.71069 102.658 1.61006V1.50943L102.458 1.00629C102.358 0.905657 102.358 0.80503 102.458 0.704401L102.658 0.201258C102.658 0.100629 102.658 0.100629 102.558 0H102.458L101.958 0.201258C101.858 0.301887 101.758 0.301887 101.658 0.201258L101.158 0C101.058 0 101.058 3.82368e-07 100.958 0.100629V0.201258L101.158 0.704401C101.258 0.80503 101.258 0.905657 101.158 1.00629L100.958 1.50943Z" fill="url(#paint8_linear_103_658)"/>
<path d="M107.056 4.82843C107.056 4.7278 107.056 4.62717 107.056 4.52654L107.256 4.0234C107.256 3.92277 107.256 3.92277 107.156 3.82214H107.056L106.556 4.0234C106.456 4.0234 106.356 4.0234 106.256 4.0234L105.756 3.82214C105.656 3.82214 105.656 3.82214 105.556 3.92277V4.0234L105.756 4.52654C105.756 4.62717 105.756 4.7278 105.756 4.82843L105.556 5.33157C105.556 5.4322 105.556 5.4322 105.656 5.53283H105.756L106.256 5.33157C106.356 5.33157 106.456 5.33157 106.556 5.33157L107.056 5.53283C107.156 5.53283 107.156 5.53283 107.256 5.4322V5.33157L107.056 4.82843Z" fill="url(#paint9_linear_103_658)"/>
<path d="M94.9604 2.91755L95.3604 2.71629C95.4604 2.71629 95.5604 2.71629 95.6604 2.71629L96.0604 2.91755H96.1604V2.81692L95.9604 2.4144C95.9604 2.31378 95.9604 2.21315 95.9604 2.11252L96.1604 1.71V1.60938H96.0604L95.6604 1.81063C95.5604 1.81063 95.4604 1.81063 95.3604 1.81063L94.9604 1.60938H94.8604V1.71L95.0604 2.11252C95.0604 2.21315 95.0604 2.31378 95.0604 2.4144L94.8604 2.81692C94.7604 2.91755 94.8604 2.91755 94.9604 2.91755C94.9604 2.91755 94.8604 2.91755 94.9604 2.91755Z" fill="url(#paint10_linear_103_658)"/>
<path d="M12.5222 73.7087C12.8221 73.6081 13.022 73.3063 12.922 73.0046L12.7221 72.1999C12.6222 71.8982 12.3223 71.697 12.0224 71.7976L4.42582 73.8093C4.12596 73.9098 3.92605 74.2116 4.026 74.5133L4.22591 75.318C4.32587 75.6198 4.62573 75.8209 4.9256 75.7204C5.22546 76.8268 6.02511 77.732 7.02466 78.3355L8.42403 79.0396C8.62394 79.1402 8.62394 79.3414 8.52399 79.4419L7.62439 80.6489C6.9247 81.5542 6.72479 82.7612 6.9247 83.8676C6.62484 83.9682 6.42493 84.27 6.52488 84.5717L6.72479 85.3764C6.82475 85.6781 7.12461 85.8793 7.42448 85.7787L15.0211 83.767C15.3209 83.6665 15.5209 83.3647 15.4209 83.0629L15.3209 82.3589C15.221 82.0571 14.9211 81.8559 14.6213 81.9565C14.3214 80.8501 13.5218 79.9449 12.5222 79.4419L11.1228 78.7379C10.9229 78.6373 10.823 78.4361 10.9229 78.3355L11.8225 77.1285C12.5222 76.0221 12.7221 74.8151 12.5222 73.7087ZM10.723 76.2233L9.72345 77.6314C9.6235 77.8326 9.32363 77.8326 9.22368 77.732L7.72435 76.9274C7.12461 76.6256 6.72479 76.2233 6.42493 75.6198C6.32497 75.4186 6.42493 75.2174 6.62484 75.1168C6.62484 75.1168 6.62484 75.1168 6.72479 75.1168L10.9229 74.0104C11.1228 74.0104 11.3227 74.111 11.3227 74.3122C11.3227 74.3122 11.3227 74.3122 11.3227 74.4128C11.2228 75.1168 11.1228 75.7204 10.723 76.2233Z" fill="url(#paint11_linear_103_658)"/>
<defs>
<filter id="filter0_d_103_658" x="0.817627" y="8.99698" width="124.464" height="125.07" filterUnits="userSpaceOnUse" color-interpolation-filters="sRGB">
<feFlood flood-opacity="0" result="BackgroundImageFix"/>
<feColorMatrix in="SourceAlpha" type="matrix" values="0 0 0 0 0 0 0 0 0 0 0 0 0 0 0 0 0 0 127 0" result="hardAlpha"/>
<feOffset dy="11"/>
<feGaussianBlur stdDeviation="11"/>
<feColorMatrix type="matrix" values="0 0 0 0 0.397708 0 0 0 0 0.47749 0 0 0 0 0.575 0 0 0 0.18 0"/>
<feBlend mode="normal" in2="BackgroundImageFix" result="effect1_dropShadow_103_658"/>
<feBlend mode="normal" in="SourceGraphic" in2="effect1_dropShadow_103_658" result="shape"/>
</filter>
<filter id="filter1_d_103_658" x="73.0066" y="72.9329" width="52.8846" height="53.0671" filterUnits="userSpaceOnUse" color-interpolation-filters="sRGB">
<feFlood flood-opacity="0" result="BackgroundImageFix"/>
<feColorMatrix in="SourceAlpha" type="matrix" values="0 0 0 0 0 0 0 0 0 0 0 0 0 0 0 0 0 0 127 0" result="hardAlpha"/>
<feOffset dy="5"/>
<feGaussianBlur stdDeviation="4"/>
<feColorMatrix type="matrix" values="0 0 0 0 0.1125 0 0 0 0 0.295916 0 0 0 0 1 0 0 0 0.22 0"/>
<feBlend mode="normal" in2="BackgroundImageFix" result="effect1_dropShadow_103_658"/>
<feBlend mode="normal" in="SourceGraphic" in2="effect1_dropShadow_103_658" result="shape"/>
</filter>
<linearGradient id="paint0_linear_103_658" x1="92.9959" y1="76.6672" x2="105.623" y2="111.151" gradientUnits="userSpaceOnUse">
<stop stop-color="#83A6FF"/>
<stop offset="1" stop-color="#5A78FF"/>
</linearGradient>
<linearGradient id="paint1_linear_103_658" x1="101.345" y1="96.4458" x2="109.216" y2="104.267" gradientUnits="userSpaceOnUse">
<stop stop-color="#4F6AFF"/>
<stop offset="1" stop-color="#657EFF" stop-opacity="0"/>
</linearGradient>
<linearGradient id="paint2_linear_103_658" x1="110.235" y1="93.7451" x2="99.8416" y2="83.4164" gradientUnits="userSpaceOnUse">
<stop offset="0.0113208" stop-color="#C2D1FF"/>
<stop offset="1" stop-color="white"/>
</linearGradient>
<linearGradient id="paint3_linear_103_658" x1="104.509" y1="99.507" x2="94.1157" y2="89.1784" gradientUnits="userSpaceOnUse">
<stop offset="0.0113208" stop-color="#C2D1FF"/>
<stop offset="1" stop-color="white"/>
</linearGradient>
<linearGradient id="paint4_linear_103_658" x1="103.375" y1="100.649" x2="92.9816" y2="90.3207" gradientUnits="userSpaceOnUse">
<stop offset="0.0113208" stop-color="#C2D1FF"/>
<stop offset="1" stop-color="white"/>
</linearGradient>
<linearGradient id="paint5_linear_103_658" x1="91.7738" y1="7.23157" x2="101.085" y2="7.23157" gradientUnits="userSpaceOnUse">
<stop stop-color="#FF66A9"/>
<stop offset="1" stop-color="#F53689"/>
</linearGradient>
<linearGradient id="paint6_linear_103_658" x1="101.08" y1="7.17382" x2="105.259" y2="7.17382" gradientUnits="userSpaceOnUse">
<stop stop-color="#FF66A9"/>
<stop offset="1" stop-color="#F53689"/>
</linearGradient>
<linearGradient id="paint7_linear_103_658" x1="99.7808" y1="3.80218" x2="103.955" y2="3.80218" gradientUnits="userSpaceOnUse">
<stop stop-color="#FF66A9"/>
<stop offset="1" stop-color="#F53689"/>
</linearGradient>
<linearGradient id="paint8_linear_103_658" x1="100.986" y1="0.76035" x2="102.735" y2="0.76035" gradientUnits="userSpaceOnUse">
<stop stop-color="#FF66A9"/>
<stop offset="1" stop-color="#F53689"/>
</linearGradient>
<linearGradient id="paint9_linear_103_658" x1="105.592" y1="4.70325" x2="107.3" y2="4.70325" gradientUnits="userSpaceOnUse">
<stop stop-color="#FF66A9"/>
<stop offset="1" stop-color="#F53689"/>
</linearGradient>
<linearGradient id="paint10_linear_103_658" x1="94.8076" y1="2.29868" x2="96.1138" y2="2.29868" gradientUnits="userSpaceOnUse">
<stop stop-color="#FF66A9"/>
<stop offset="1" stop-color="#F53689"/>
</linearGradient>
<linearGradient id="paint11_linear_103_658" x1="3.92605" y1="78.804" x2="15.5524" y2="78.804" gradientUnits="userSpaceOnUse">
<stop stop-color="#FF66A9"/>
<stop offset="1" stop-color="#F53689"/>
</linearGradient>
</defs>
</svg>
