<svg width="115" height="145" viewBox="0 0 115 145" fill="none" xmlns="http://www.w3.org/2000/svg">
<path d="M5.60023 22.2291C7.13996 21.7318 7.98246 20.0882 7.48201 18.558C6.98156 17.0279 5.32766 16.1906 3.78793 16.688C2.2482 17.1853 1.4057 18.8289 1.90615 20.3591C2.4066 21.8892 4.0605 22.7265 5.60023 22.2291Z" fill="#EAEEF9"/>
<path d="M11.9999 12.7236C13.0469 12.3854 13.6198 11.2678 13.2795 10.2273C12.9392 9.18676 11.8145 8.61742 10.7675 8.95561C9.72048 9.2938 9.14758 10.4115 9.48789 11.452C9.82819 12.4925 10.9528 13.0618 11.9999 12.7236Z" fill="#EAEEF9"/>
<path d="M101.407 10.8766C102.029 10.3122 102.072 9.35394 101.504 8.7363C100.936 8.11867 99.9718 8.07553 99.3503 8.63995C98.7288 9.20438 98.6854 10.1626 99.2533 10.7803C99.8213 11.3979 100.786 11.441 101.407 10.8766Z" fill="#EAEEF9"/>
<path d="M13.13 108.118C13.895 107.423 13.9484 106.243 13.2494 105.483C12.5503 104.723 11.3636 104.67 10.5986 105.365C9.83372 106.059 9.7803 107.239 10.4793 107.999C11.1783 108.759 12.3651 108.812 13.13 108.118Z" fill="#EAEEF9"/>
<path d="M112 39.0334V82.9666C112 83.6658 112 84.2485 111.883 84.9477C111.296 89.9586 108.365 94.3869 103.909 96.9506L65.6811 118.859C62.0459 120.957 57.7072 121.539 53.7202 120.49C52.1958 120.141 50.7887 119.558 49.4988 118.859L11.1537 96.8341C8.22215 95.2026 5.99415 92.7554 4.587 89.8421C3.53163 87.7445 2.94531 85.2973 2.94531 82.8501V39.0334C2.94531 36.7028 3.41436 34.4886 4.35247 32.391C5.75963 29.3611 7.98763 26.7974 11.0365 25.0494L49.3815 3.14108C53.1339 1.04348 57.3554 0.460808 61.4596 1.50961C62.8668 1.85921 64.2739 2.44188 65.6811 3.14108L103.909 25.0494C107.309 27.0305 109.772 30.0603 111.062 33.6729C111.648 35.3043 112 37.1689 112 39.0334Z" fill="#EAEEF9"/>
<path d="M57.5902 23.0683L66.7367 4.07336" stroke="url(#paint0_linear_105_3363)" stroke-width="2" stroke-miterlimit="10" stroke-linecap="round" stroke-linejoin="round"/>
<g filter="url(#filter0_d_105_3363)">
<path d="M92.8862 16.5424V106.506C92.8862 109.07 90.7755 111.168 88.1957 111.168H26.7499C24.1701 111.168 22.0593 109.07 22.0593 106.506V16.5424C22.0593 13.9787 24.1701 11.8811 26.7499 11.8811H88.1957C90.7755 11.8811 92.8862 13.9787 92.8862 16.5424Z" fill="white"/>
</g>
<path d="M26.3982 53.6002H24.1702V55.8143H26.3982V53.6002Z" fill="#EAEEF9"/>
<path d="M26.3982 49.1719H24.1702V51.386H26.3982V49.1719Z" fill="#EAEEF9"/>
<path d="M26.3982 44.7436H24.1702V46.9577H26.3982V44.7436Z" fill="#EAEEF9"/>
<path d="M26.3982 40.4319H24.1702V42.646H26.3982V40.4319Z" fill="url(#paint1_linear_105_3363)"/>
<path d="M26.3982 31.5753H24.1702V33.7895H26.3982V31.5753Z" fill="#F3F5FA"/>
<path d="M30.9714 57.9119H28.7434V60.126H30.9714V57.9119Z" fill="#EAEEF9"/>
<path d="M30.9714 53.6002H28.7434V55.8143H30.9714V53.6002Z" fill="#EAEEF9"/>
<path d="M30.9714 40.4319H28.7434V42.646H30.9714V40.4319Z" fill="#EAEEF9"/>
<path d="M30.9714 22.8353H28.7434V25.0494H30.9714V22.8353Z" fill="url(#paint2_linear_105_3363)"/>
<path d="M35.5446 57.9119H33.3167V60.126H35.5446V57.9119Z" fill="#EAEEF9"/>
<path d="M35.5446 49.1719H33.3167V51.386H35.5446V49.1719Z" fill="#EAEEF9"/>
<path d="M35.5446 44.7436H33.3167V46.9577H35.5446V44.7436Z" fill="#EAEEF9"/>
<path d="M35.5446 40.4319H33.3167V42.646H35.5446V40.4319Z" fill="url(#paint3_linear_105_3363)"/>
<path d="M35.5446 36.0036H33.3167V38.2177H35.5446V36.0036Z" fill="#F3F5FA"/>
<path d="M35.5446 31.5753H33.3167V33.7895H35.5446V31.5753Z" fill="#EAEEF9"/>
<path d="M35.5446 22.8353H33.3167V25.0494H35.5446V22.8353Z" fill="#EAEEF9"/>
<path d="M35.5446 18.407H33.3167V20.6211H35.5446V18.407Z" fill="#F3F5FA"/>
<path d="M40.1179 53.6002H37.8899V55.8143H40.1179V53.6002Z" fill="#EAEEF9"/>
<path d="M40.1179 49.1719H37.8899V51.386H40.1179V49.1719Z" fill="#EAEEF9"/>
<path d="M40.1179 36.0036H37.8899V38.2177H40.1179V36.0036Z" fill="#F3F5FA"/>
<path d="M40.1179 27.2635H37.8899V29.4777H40.1179V27.2635Z" fill="#EAEEF9"/>
<path d="M44.8083 57.9119H42.5803V60.126H44.8083V57.9119Z" fill="#EAEEF9"/>
<path d="M44.8083 53.6002H42.5803V55.8143H44.8083V53.6002Z" fill="#EAEEF9"/>
<path d="M44.8083 40.4319H42.5803V42.646H44.8083V40.4319Z" fill="#EAEEF9"/>
<path d="M44.8083 36.0036H42.5803V38.2177H44.8083V36.0036Z" fill="url(#paint4_linear_105_3363)"/>
<path d="M44.8083 31.5753H42.5803V33.7895H44.8083V31.5753Z" fill="#F3F5FA"/>
<path d="M49.3816 57.9119H47.1536V60.126H49.3816V57.9119Z" fill="#EAEEF9"/>
<path d="M49.3816 53.6002H47.1536V55.8143H49.3816V53.6002Z" fill="#EAEEF9"/>
<path d="M49.3816 49.1719H47.1536V51.386H49.3816V49.1719Z" fill="#EAEEF9"/>
<path d="M49.3816 44.7436H47.1536V46.9577H49.3816V44.7436Z" fill="#EAEEF9"/>
<path d="M49.3816 40.4319H47.1536V42.646H49.3816V40.4319Z" fill="#EAEEF9"/>
<path d="M49.3816 36.0036H47.1536V38.2177H49.3816V36.0036Z" fill="#EAEEF9"/>
<path d="M49.3816 22.8353H47.1536V25.0494H49.3816V22.8353Z" fill="#EAEEF9"/>
<path d="M53.9549 57.9119H51.7269V60.126H53.9549V57.9119Z" fill="#EAEEF9"/>
<path d="M53.9549 53.6002H51.7269V55.8143H53.9549V53.6002Z" fill="#EAEEF9"/>
<path d="M53.9549 49.1719H51.7269V51.386H53.9549V49.1719Z" fill="#EAEEF9"/>
<path d="M53.9549 40.4319H51.7269V42.646H53.9549V40.4319Z" fill="#EAEEF9"/>
<path d="M53.9549 36.0036H51.7269V38.2177H53.9549V36.0036Z" fill="#F3F5FA"/>
<path d="M58.5283 57.9119H56.3003V60.126H58.5283V57.9119Z" fill="url(#paint5_linear_105_3363)"/>
<path d="M58.5283 53.6002H56.3003V55.8143H58.5283V53.6002Z" fill="#EAEEF9"/>
<path d="M58.5283 49.1719H56.3003V51.386H58.5283V49.1719Z" fill="#EAEEF9"/>
<path d="M58.5283 44.7436H56.3003V46.9577H58.5283V44.7436Z" fill="#F3F5FA"/>
<path d="M58.5283 40.4319H56.3003V42.646H58.5283V40.4319Z" fill="#EAEEF9"/>
<path d="M58.5283 31.5753H56.3003V33.7895H58.5283V31.5753Z" fill="#EAEEF9"/>
<path d="M63.1015 57.9119H60.8735V60.126H63.1015V57.9119Z" fill="#EAEEF9"/>
<path d="M63.1015 53.6002H60.8735V55.8143H63.1015V53.6002Z" fill="#EAEEF9"/>
<path d="M63.1015 49.1719H60.8735V51.386H63.1015V49.1719Z" fill="url(#paint6_linear_105_3363)"/>
<path d="M63.1015 44.7436H60.8735V46.9577H63.1015V44.7436Z" fill="#EAEEF9"/>
<path d="M63.1015 40.4319H60.8735V42.646H63.1015V40.4319Z" fill="#EAEEF9"/>
<path d="M63.1015 36.0036H60.8735V38.2177H63.1015V36.0036Z" fill="#EAEEF9"/>
<path d="M67.6748 57.9119H65.4468V60.126H67.6748V57.9119Z" fill="#EAEEF9"/>
<path d="M67.6748 53.6002H65.4468V55.8143H67.6748V53.6002Z" fill="#EAEEF9"/>
<path d="M67.6748 49.1719H65.4468V51.386H67.6748V49.1719Z" fill="#EAEEF9"/>
<path d="M67.6748 40.4319H65.4468V42.646H67.6748V40.4319Z" fill="#F3F5FA"/>
<path d="M67.6748 31.5753H65.4468V33.7895H67.6748V31.5753Z" fill="#EAEEF9"/>
<path d="M67.6748 18.407H65.4468V20.6211H67.6748V18.407Z" fill="#F3F5FA"/>
<path d="M72.248 53.6002H70.02V55.8143H72.248V53.6002Z" fill="#EAEEF9"/>
<path d="M72.248 49.1719H70.02V51.386H72.248V49.1719Z" fill="#F3F5FA"/>
<path d="M72.248 44.7436H70.02V46.9577H72.248V44.7436Z" fill="#EAEEF9"/>
<path d="M72.248 27.2635H70.02V29.4777H72.248V27.2635Z" fill="#EAEEF9"/>
<path d="M76.8213 57.9119H74.5933V60.126H76.8213V57.9119Z" fill="#EAEEF9"/>
<path d="M76.8213 49.1719H74.5933V51.386H76.8213V49.1719Z" fill="#EAEEF9"/>
<path d="M76.8213 44.7436H74.5933V46.9577H76.8213V44.7436Z" fill="url(#paint7_linear_105_3363)"/>
<path d="M76.8213 40.4319H74.5933V42.646H76.8213V40.4319Z" fill="#EAEEF9"/>
<path d="M76.8213 36.0036H74.5933V38.2177H76.8213V36.0036Z" fill="#F3F5FA"/>
<path d="M76.8213 31.5753H74.5933V33.7895H76.8213V31.5753Z" fill="url(#paint8_linear_105_3363)"/>
<path d="M81.5117 57.9119H79.2837V60.126H81.5117V57.9119Z" fill="#EAEEF9"/>
<path d="M81.5117 44.7436H79.2837V46.9577H81.5117V44.7436Z" fill="#F3F5FA"/>
<path d="M81.5117 36.0036H79.2837V38.2177H81.5117V36.0036Z" fill="#EAEEF9"/>
<path d="M86.0852 57.9119H83.8572V60.126H86.0852V57.9119Z" fill="#EAEEF9"/>
<path d="M86.0852 53.6002H83.8572V55.8143H86.0852V53.6002Z" fill="#EAEEF9"/>
<path d="M86.0852 49.1719H83.8572V51.386H86.0852V49.1719Z" fill="#EAEEF9"/>
<path d="M86.0852 44.7436H83.8572V46.9577H86.0852V44.7436Z" fill="#EAEEF9"/>
<path d="M86.0852 40.4319H83.8572V42.646H86.0852V40.4319Z" fill="#F3F5FA"/>
<path d="M86.0852 27.2635H83.8572V29.4777H86.0852V27.2635Z" fill="#EAEEF9"/>
<path d="M90.6584 57.9119H88.4304V60.126H90.6584V57.9119Z" fill="#EAEEF9"/>
<path d="M90.6584 49.1719H88.4304V51.386H90.6584V49.1719Z" fill="#EAEEF9"/>
<path d="M90.6584 44.7436H88.4304V46.9577H90.6584V44.7436Z" fill="#F3F5FA"/>
<path d="M88.3921 73.3835L90.6201 73.3835L90.6201 71.1693L88.3921 71.1693L88.3921 73.3835Z" fill="#EAEEF9"/>
<path d="M88.3921 68.9218L90.6201 68.9218L90.6201 66.7076L88.3921 66.7076L88.3921 68.9218Z" fill="#EAEEF9"/>
<path d="M88.3921 64.5765L90.6201 64.5765L90.6201 62.3623L88.3921 62.3623L88.3921 64.5765Z" fill="#EAEEF9"/>
<path d="M83.7908 77.7288L86.0188 77.7288L86.0188 75.5146L83.7908 75.5146L83.7908 77.7288Z" fill="#EAEEF9"/>
<path d="M83.7908 73.3835L86.0188 73.3835L86.0188 71.1693L83.7908 71.1693L83.7908 73.3835Z" fill="#EAEEF9"/>
<path d="M83.7908 64.5765L86.0188 64.5765L86.0188 62.3623L83.7908 62.3623L83.7908 64.5765Z" fill="#EAEEF9"/>
<path d="M79.1894 77.7288L81.4174 77.7288L81.4174 75.5146L79.1894 75.5146L79.1894 77.7288Z" fill="#EAEEF9"/>
<path d="M79.1894 73.3835L81.4174 73.3835L81.4174 71.1693L79.1894 71.1693L79.1894 73.3835Z" fill="#EAEEF9"/>
<path d="M79.1894 68.9218L81.4174 68.9218L81.4174 66.7076L79.1894 66.7076L79.1894 68.9218Z" fill="#EAEEF9"/>
<path d="M79.1894 64.5765L81.4174 64.5765L81.4174 62.3623L79.1894 62.3623L79.1894 64.5765Z" fill="#EAEEF9"/>
<path d="M74.7051 77.7288L76.9331 77.7288L76.9331 75.5146L74.7051 75.5146L74.7051 77.7288Z" fill="#EAEEF9"/>
<path d="M74.7051 73.3835L76.9331 73.3835L76.9331 71.1693L74.7051 71.1693L74.7051 73.3835Z" fill="#EAEEF9"/>
<path d="M74.7051 68.9218L76.9331 68.9218L76.9331 66.7076L74.7051 66.7076L74.7051 68.9218Z" fill="#EAEEF9"/>
<path d="M74.7051 64.5765L76.9331 64.5765L76.9331 62.3623L74.7051 62.3623L74.7051 64.5765Z" fill="#EAEEF9"/>
<path d="M70.1038 77.7288L72.3318 77.7288L72.3318 75.5146L70.1038 75.5146L70.1038 77.7288Z" fill="#EAEEF9"/>
<path d="M70.1038 73.3835L72.3318 73.3835L72.3318 71.1693L70.1038 71.1693L70.1038 73.3835Z" fill="#EAEEF9"/>
<path d="M70.1038 68.9218L72.3318 68.9218L72.3318 66.7076L70.1038 66.7076L70.1038 68.9218Z" fill="#EAEEF9"/>
<path d="M65.5025 77.7288L67.7305 77.7288L67.7305 75.5146L65.5025 75.5146L65.5025 77.7288Z" fill="#EAEEF9"/>
<path d="M65.5025 73.3835L67.7305 73.3835L67.7305 71.1693L65.5025 71.1693L65.5025 73.3835Z" fill="#EAEEF9"/>
<path d="M65.5025 68.9218L67.7305 68.9218L67.7305 66.7076L65.5025 66.7076L65.5025 68.9218Z" fill="#EAEEF9"/>
<path d="M65.5025 64.5765L67.7305 64.5765L67.7305 62.3623L65.5025 62.3623L65.5025 64.5765Z" fill="#EAEEF9"/>
<path d="M60.9009 77.7288L63.1289 77.7288L63.1289 75.5146L60.9009 75.5146L60.9009 77.7288Z" fill="#EAEEF9"/>
<path d="M60.9009 73.3835L63.1289 73.3835L63.1289 71.1693L60.9009 71.1693L60.9009 73.3835Z" fill="#EAEEF9"/>
<path d="M60.9009 68.9218L63.1289 68.9218L63.1289 66.7076L60.9009 66.7076L60.9009 68.9218Z" fill="#EAEEF9"/>
<path d="M56.3003 77.7226H58.5283V75.5084H56.3003V77.7226Z" fill="url(#paint9_linear_105_3363)"/>
<path d="M56.2996 73.3835L58.5276 73.3835L58.5276 71.1693L56.2996 71.1693L56.2996 73.3835Z" fill="#EAEEF9"/>
<path d="M56.2996 68.9218L58.5276 68.9218L58.5276 66.7076L56.2996 66.7076L56.2996 68.9218Z" fill="#EAEEF9"/>
<path d="M56.2996 64.5765L58.5276 64.5765L58.5276 62.3623L56.2996 62.3623L56.2996 64.5765Z" fill="#F3F5FA"/>
<path d="M51.698 77.7288L53.926 77.7288L53.926 75.5146L51.698 75.5146L51.698 77.7288Z" fill="#EAEEF9"/>
<path d="M51.698 73.3835L53.926 73.3835L53.926 71.1693L51.698 71.1693L51.698 73.3835Z" fill="#EAEEF9"/>
<path d="M51.7269 68.9826H53.9549V66.7684H51.7269V68.9826Z" fill="url(#paint10_linear_105_3363)"/>
<path d="M51.698 64.5765L53.926 64.5765L53.926 62.3623L51.698 62.3623L51.698 64.5765Z" fill="#EAEEF9"/>
<path d="M47.0967 77.7288L49.3247 77.7288L49.3247 75.5146L47.0967 75.5146L47.0967 77.7288Z" fill="#EAEEF9"/>
<path d="M47.0967 73.3835L49.3247 73.3835L49.3247 71.1693L47.0967 71.1693L47.0967 73.3835Z" fill="#EAEEF9"/>
<path d="M47.0967 68.9218L49.3247 68.9218L49.3247 66.7076L47.0967 66.7076L47.0967 68.9218Z" fill="#EAEEF9"/>
<path d="M42.4953 73.3835L44.7233 73.3835L44.7233 71.1693L42.4953 71.1693L42.4953 73.3835Z" fill="#EAEEF9"/>
<path d="M42.4953 68.9218L44.7233 68.9218L44.7233 66.7076L42.4953 66.7076L42.4953 68.9218Z" fill="#F3F5FA"/>
<path d="M42.4953 64.5765L44.7233 64.5765L44.7233 62.3623L42.4953 62.3623L42.4953 64.5765Z" fill="#EAEEF9"/>
<path d="M38.011 77.7288L40.239 77.7288L40.239 75.5146L38.011 75.5146L38.011 77.7288Z" fill="#EAEEF9"/>
<path d="M38.011 68.9218L40.239 68.9218L40.239 66.7076L38.011 66.7076L38.011 68.9218Z" fill="#EAEEF9"/>
<path d="M37.8899 64.5543H40.2352V62.3401H37.8899V64.5543Z" fill="url(#paint11_linear_105_3363)"/>
<path d="M33.4097 77.7288L35.6377 77.7288L35.6377 75.5146L33.4097 75.5146L33.4097 77.7288Z" fill="#EAEEF9"/>
<path d="M33.4097 64.5765L35.6377 64.5765L35.6377 62.3623L33.4097 62.3623L33.4097 64.5765Z" fill="#F3F5FA"/>
<path d="M28.8084 77.7288L31.0364 77.7288L31.0364 75.5146L28.8084 75.5146L28.8084 77.7288Z" fill="#EAEEF9"/>
<path d="M28.8084 73.3835L31.0364 73.3835L31.0364 71.1693L28.8084 71.1693L28.8084 73.3835Z" fill="#EAEEF9"/>
<path d="M28.8084 68.9218L31.0364 68.9218L31.0364 66.7076L28.8084 66.7076L28.8084 68.9218Z" fill="#EAEEF9"/>
<path d="M24.2068 77.7288L26.4348 77.7288L26.4348 75.5146L24.2068 75.5146L24.2068 77.7288Z" fill="#EAEEF9"/>
<path d="M24.2068 68.9218L26.4348 68.9218L26.4348 66.7076L24.2068 66.7076L24.2068 68.9218Z" fill="#EAEEF9"/>
<path d="M24.2068 64.5765L26.4348 64.5765L26.4348 62.3623L24.2068 62.3623L24.2068 64.5765Z" fill="#F3F5FA"/>
<path d="M57.4728 27.6132C60.1928 27.6132 62.3978 25.4219 62.3978 22.7188C62.3978 20.0156 60.1928 17.8243 57.4728 17.8243C54.7528 17.8243 52.5477 20.0156 52.5477 22.7188C52.5477 25.4219 54.7528 27.6132 57.4728 27.6132Z" fill="#EAEEF9"/>
<path d="M57.3553 23.0683L48.0916 4.07336" stroke="url(#paint12_linear_105_3363)" stroke-width="2" stroke-miterlimit="10" stroke-linecap="round" stroke-linejoin="round"/>
<path d="M78.5802 73.9935C78.1111 74.4596 77.7593 74.9258 77.2903 75.2754C72.0135 80.1698 64.9777 83.0831 57.121 83.0831C50.9061 83.0831 45.0429 81.2186 40.2352 77.8391C38.828 76.9068 37.5381 75.7415 36.3655 74.5762C36.9518 73.7604 38.1244 73.1778 40.4697 72.2455L41.4078 71.8959C43.1667 71.1967 45.6293 70.2644 48.7954 68.9826C49.2644 68.7495 49.7335 68.5164 49.968 68.0503C50.0853 67.8172 50.3198 67.5842 50.3198 67.3511C50.5543 67.0015 50.5543 66.5354 50.5543 66.0692V60.126C50.437 60.0095 50.4371 59.8929 50.3198 59.7764C49.8507 58.9607 49.4989 58.1449 49.3817 57.2127L48.9126 56.9796C47.3882 57.3292 47.5055 55.6977 47.1537 52.5513C47.0364 51.2695 47.1537 51.0364 47.74 50.8033L48.209 50.1041C47.0364 47.5404 46.5674 45.4428 46.5674 43.5782C46.5674 40.6649 47.8573 38.6838 49.6162 37.7516C48.7954 35.887 48.6781 35.0713 48.6781 35.0713C48.6781 35.0713 54.893 36.1201 57.0038 35.654C59.7008 35.0713 63.9223 35.7705 65.4467 39.383C65.7985 39.4996 66.033 39.6161 66.3848 39.7326C68.3783 40.7814 69.0819 42.1798 69.3164 43.6948C69.6682 46.4916 68.1438 49.5215 67.792 50.8033C67.792 50.8033 67.792 50.9199 67.9093 50.9199C68.3783 51.1529 68.4956 51.5025 68.261 52.6679C67.9093 55.6977 68.0265 57.4457 66.5021 57.0961L65.0949 59.4268C65.0949 59.6599 64.9777 59.7764 64.9777 60.0095C64.9777 60.4756 64.9777 61.2913 64.9777 66.1858C64.9777 66.3023 64.9777 66.5354 64.9777 66.6519C64.9777 67.118 65.2122 67.4676 65.4467 67.8172C65.564 67.9338 65.6812 68.0503 65.7985 68.1668C66.1503 68.5164 66.5021 68.7495 66.9711 68.9826C70.489 70.4975 73.0688 71.4298 74.945 72.129C76.704 72.9447 77.8766 73.5274 78.5802 73.9935Z" fill="#EAEEF9"/>
<path d="M68.3782 52.6679C68.0264 55.6978 68.1437 57.4458 66.6193 57.0962L65.2121 59.4268C65.2121 59.6599 65.0948 59.7764 65.0948 60.0095C65.0948 60.4756 65.0948 61.2914 65.0948 66.1858C65.0948 66.3023 65.0948 66.5354 65.0948 66.6519H58.2936V39.7327H66.502C68.4955 40.7815 69.199 42.1799 69.4336 43.6948C69.7854 46.4916 68.2609 49.5215 67.9092 50.8034C67.9092 50.8034 67.9092 50.9199 68.0264 50.9199C68.3782 51.153 68.4955 51.5026 68.3782 52.6679Z" fill="#E3E7F5"/>
<path d="M81.3945 82.7336C76.1177 87.628 64.9777 83.1997 57.121 83.1997C50.9061 83.1997 37.8899 88.0941 33.0821 84.8312C32.144 84.132 33.3166 81.4517 33.6684 80.636C34.2547 79.0045 34.8411 77.373 35.6619 75.8581C37.4208 72.4786 45.512 70.8471 48.7954 69.0991C49.3817 68.7495 49.7335 68.5165 49.968 68.1669C53.8377 73.5274 61.8116 73.5274 65.6812 68.2834C66.033 68.633 66.3848 68.8661 66.8539 69.0991C66.9711 69.0991 67.0884 69.2157 67.2057 69.2157C78.1111 73.6439 78.8147 73.0613 80.2219 77.14C80.4564 77.8392 81.8636 82.2674 81.3945 82.7336Z" fill="white"/>
<path d="M81.3945 82.7335C76.1177 87.628 64.9777 83.1997 57.121 83.1997C50.9061 83.1997 37.8899 88.0941 33.0821 84.8312C32.144 84.132 33.3166 81.4517 33.6684 80.6359C34.2547 79.0045 34.8411 77.373 35.6619 75.8581C37.4208 72.4786 45.512 70.8471 48.7954 69.0991C48.7954 69.0991 48.7954 69.0991 48.9126 69.0991C53.3686 75.2754 62.6324 75.2754 67.0884 69.2157H67.2057C78.1111 73.6439 78.8147 73.0613 80.2219 77.1399C80.4564 77.8391 81.8636 82.2674 81.3945 82.7335Z" fill="url(#paint13_linear_105_3363)"/>
<path d="M67.7919 50.8033C67.9092 50.1041 67.5574 49.1719 67.3229 48.4726C67.3229 48.3561 67.2056 48.2396 67.2056 48.123C66.033 45.7924 63.3359 44.7436 60.8734 44.627C54.4239 44.2774 53.8376 45.5593 51.7269 43.6948C52.3132 44.627 52.4305 46.142 51.4924 48.0065C50.7888 49.2884 49.4989 49.8711 48.3262 50.2207C45.3947 43.5782 46.8018 39.383 49.7334 37.8681C48.7953 35.887 48.678 35.0713 48.678 35.0713C48.678 35.0713 54.893 36.1201 57.0037 35.654C59.7008 35.0713 63.9222 35.7705 65.4467 39.383C68.0264 40.4318 69.0818 42.0633 69.3163 43.8113C69.7854 46.6081 68.1437 49.638 67.7919 50.8033Z" fill="#1C3754"/>
<path d="M50.6715 66.3023V60.3591C50.5543 60.2426 50.437 60.126 50.437 60.0095V59.6599C50.7888 60.2426 51.1406 60.7087 51.7269 61.0583L56.4174 64.3213C57.4728 65.2535 59.1145 65.2535 60.1698 64.3213L64.5086 60.3591C64.6258 60.2426 64.8604 60.126 64.9776 59.893C64.9776 60.3591 64.9776 61.1748 64.9776 66.0693C64.9776 66.4189 64.9776 66.6519 65.0949 66.885H50.5543C50.6715 66.885 50.6715 66.5354 50.6715 66.3023Z" fill="url(#paint14_linear_105_3363)"/>
<path d="M92.8862 77.9556V106.506C92.8862 109.07 90.7755 111.168 88.1957 111.168H26.7499C24.1701 111.168 22.0593 109.07 22.0593 106.506V77.9556H92.8862Z" fill="white"/>
<path d="M66.6193 88.9098H48.3263C47.3882 88.9098 46.6846 88.2106 46.6846 87.2783C46.6846 86.3461 47.3882 85.6469 48.3263 85.6469H66.6193C67.5574 85.6469 68.261 86.3461 68.261 87.2783C68.261 88.2106 67.5574 88.9098 66.6193 88.9098Z" fill="url(#paint15_linear_105_3363)"/>
<path d="M74.124 96.1349H40.9386C40.0005 96.1349 39.2969 95.4357 39.2969 94.5034C39.2969 93.5712 40.0005 92.8719 40.9386 92.8719H74.124C75.0621 92.8719 75.7657 93.5712 75.7657 94.5034C75.7657 95.4357 74.9449 96.1349 74.124 96.1349Z" fill="#E3EAF2"/>
<path d="M64.0396 103.477H51.0234C50.4371 103.477 49.968 103.01 49.968 102.428V101.262C49.968 100.68 50.4371 100.214 51.0234 100.214H64.0396C64.6259 100.214 65.095 100.68 65.095 101.262V102.428C65.095 103.01 64.6259 103.477 64.0396 103.477Z" fill="#E3EAF2"/>
<defs>
<filter id="filter0_d_105_3363" x="0.0593262" y="0.881104" width="114.827" height="143.287" filterUnits="userSpaceOnUse" color-interpolation-filters="sRGB">
<feFlood flood-opacity="0" result="BackgroundImageFix"/>
<feColorMatrix in="SourceAlpha" type="matrix" values="0 0 0 0 0 0 0 0 0 0 0 0 0 0 0 0 0 0 127 0" result="hardAlpha"/>
<feOffset dy="11"/>
<feGaussianBlur stdDeviation="11"/>
<feColorMatrix type="matrix" values="0 0 0 0 0.397708 0 0 0 0 0.47749 0 0 0 0 0.575 0 0 0 0.18 0"/>
<feBlend mode="normal" in2="BackgroundImageFix" result="effect1_dropShadow_105_3363"/>
<feBlend mode="normal" in="SourceGraphic" in2="effect1_dropShadow_105_3363" result="shape"/>
</filter>
<linearGradient id="paint0_linear_105_3363" x1="62.1478" y1="24.2643" x2="62.1478" y2="2.89509" gradientUnits="userSpaceOnUse">
<stop offset="0.00289017" stop-color="#83A6FF"/>
<stop offset="1" stop-color="#5A78FF"/>
</linearGradient>
<linearGradient id="paint1_linear_105_3363" x1="24.1821" y1="41.5156" x2="26.4325" y2="41.5156" gradientUnits="userSpaceOnUse">
<stop stop-color="#FF66A9"/>
<stop offset="1" stop-color="#F53689"/>
</linearGradient>
<linearGradient id="paint2_linear_105_3363" x1="28.7694" y1="23.9686" x2="31.0198" y2="23.9686" gradientUnits="userSpaceOnUse">
<stop stop-color="#FF66A9"/>
<stop offset="1" stop-color="#F53689"/>
</linearGradient>
<linearGradient id="paint3_linear_105_3363" x1="33.3569" y1="41.5156" x2="35.6073" y2="41.5156" gradientUnits="userSpaceOnUse">
<stop stop-color="#83A6FF"/>
<stop offset="1" stop-color="#5A78FF"/>
</linearGradient>
<linearGradient id="paint4_linear_105_3363" x1="42.5314" y1="37.1288" x2="44.7818" y2="37.1288" gradientUnits="userSpaceOnUse">
<stop stop-color="#FF66A9"/>
<stop offset="1" stop-color="#F53689"/>
</linearGradient>
<linearGradient id="paint5_linear_105_3363" x1="56.2936" y1="59.0626" x2="58.544" y2="59.0626" gradientUnits="userSpaceOnUse">
<stop stop-color="#83A6FF"/>
<stop offset="1" stop-color="#5A78FF"/>
</linearGradient>
<linearGradient id="paint6_linear_105_3363" x1="60.8809" y1="50.2892" x2="63.1313" y2="50.2892" gradientUnits="userSpaceOnUse">
<stop stop-color="#FF66A9"/>
<stop offset="1" stop-color="#F53689"/>
</linearGradient>
<linearGradient id="paint7_linear_105_3363" x1="74.6429" y1="45.9024" x2="76.8933" y2="45.9024" gradientUnits="userSpaceOnUse">
<stop stop-color="#FF66A9"/>
<stop offset="1" stop-color="#F53689"/>
</linearGradient>
<linearGradient id="paint8_linear_105_3363" x1="74.6429" y1="32.7421" x2="76.8933" y2="32.7421" gradientUnits="userSpaceOnUse">
<stop stop-color="#83A6FF"/>
<stop offset="1" stop-color="#5A78FF"/>
</linearGradient>
<linearGradient id="paint9_linear_105_3363" x1="58.5391" y1="76.6186" x2="56.2887" y2="76.6186" gradientUnits="userSpaceOnUse">
<stop stop-color="#83A6FF"/>
<stop offset="1" stop-color="#5A78FF"/>
</linearGradient>
<linearGradient id="paint10_linear_105_3363" x1="53.9516" y1="67.8451" x2="51.7012" y2="67.8451" gradientUnits="userSpaceOnUse">
<stop stop-color="#FF66A9"/>
<stop offset="1" stop-color="#F53689"/>
</linearGradient>
<linearGradient id="paint11_linear_105_3363" x1="40.1897" y1="63.4583" x2="37.9393" y2="63.4583" gradientUnits="userSpaceOnUse">
<stop stop-color="#FF66A9"/>
<stop offset="1" stop-color="#F53689"/>
</linearGradient>
<linearGradient id="paint12_linear_105_3363" x1="52.7231" y1="24.2643" x2="52.7231" y2="2.89509" gradientUnits="userSpaceOnUse">
<stop offset="0.00289017" stop-color="#83A6FF"/>
<stop offset="1" stop-color="#5A78FF"/>
</linearGradient>
<linearGradient id="paint13_linear_105_3363" x1="32.7698" y1="77.5073" x2="81.4757" y2="77.5073" gradientUnits="userSpaceOnUse">
<stop stop-color="#83A6FF"/>
<stop offset="1" stop-color="#5A78FF"/>
</linearGradient>
<linearGradient id="paint14_linear_105_3363" x1="57.7884" y1="67.1548" x2="57.7884" y2="63.003" gradientUnits="userSpaceOnUse">
<stop stop-color="#EAEEF9"/>
<stop offset="0.9913" stop-color="#CED5E6"/>
</linearGradient>
<linearGradient id="paint15_linear_105_3363" x1="49.1417" y1="87.2826" x2="67.3688" y2="87.2826" gradientUnits="userSpaceOnUse">
<stop stop-color="#FF66A9"/>
<stop offset="1" stop-color="#F53689"/>
</linearGradient>
</defs>
</svg>
