<svg width="121" height="109" viewBox="0 0 121 109" fill="none" xmlns="http://www.w3.org/2000/svg">
<path d="M4.36197 36.069C5.643 35.6528 6.34395 34.2775 5.92758 32.9971C5.51122 31.7167 4.13521 31.0161 2.85418 31.4323C1.57315 31.8484 0.872199 33.2238 1.28856 34.5042C1.70493 35.7845 3.08094 36.4851 4.36197 36.069Z" fill="#EAEEF9"/>
<path d="M10.4566 29.6578C11.3277 29.3748 11.8043 28.4396 11.5212 27.5689C11.2381 26.6982 10.3024 26.2218 9.43127 26.5048C8.56017 26.7878 8.08353 27.723 8.36666 28.5937C8.64979 29.4644 9.58549 29.9408 10.4566 29.6578Z" fill="#EAEEF9"/>
<path d="M1.65854 55.1921C2.57452 55.1921 3.31707 54.4499 3.31707 53.5344C3.31707 52.6189 2.57452 51.8767 1.65854 51.8767C0.742552 51.8767 0 52.6189 0 53.5344C0 54.4499 0.742552 55.1921 1.65854 55.1921Z" fill="url(#paint0_linear_105_4525)"/>
<path d="M105.366 16.382C106.066 16.382 106.634 15.8145 106.634 15.1143C106.634 14.4142 106.066 13.8467 105.366 13.8467C104.665 13.8467 104.098 14.4142 104.098 15.1143C104.098 15.8145 104.665 16.382 105.366 16.382Z" fill="url(#paint1_linear_105_4525)"/>
<path d="M117.261 38.7942C118.772 37.4137 118.878 35.0698 117.496 33.5591C116.115 32.0484 113.77 31.9429 112.259 33.3235C110.747 34.704 110.642 37.0479 112.023 38.5586C113.404 40.0693 115.749 40.1748 117.261 38.7942Z" fill="#EAEEF9"/>
<path d="M2.73169 97.61H120" stroke="#EAEEF9" stroke-width="2" stroke-miterlimit="10" stroke-linecap="round" stroke-linejoin="round"/>
<path d="M64.7804 11.3115H56.3901V16.7722H64.7804V11.3115Z" fill="#B3BFCF"/>
<path d="M64.7804 11.3115H56.3901V13.6518H64.7804V11.3115Z" fill="#9FADBF"/>
<path d="M32.9774 22.1892L28.4243 26.7399L31.7356 30.0496L36.2887 25.4988L32.9774 22.1892Z" fill="#B3BFCF"/>
<path d="M86.2201 25.1635L90.7732 29.7142L93.7396 26.7493L89.1865 22.1986L86.2201 25.1635Z" fill="#B3BFCF"/>
<path d="M63.7071 98.0001C86.0141 98.0001 104.097 79.9257 104.097 57.6299C104.097 35.3341 86.0141 17.2598 63.7071 17.2598C41.4002 17.2598 23.3169 35.3341 23.3169 57.6299C23.3169 79.9257 41.4002 98.0001 63.7071 98.0001Z" fill="#D3DAE6"/>
<path d="M61.2682 96.5373C83.5751 96.5373 101.658 78.463 101.658 56.1671C101.658 33.8713 83.5751 15.797 61.2682 15.797C38.9613 15.797 20.8779 33.8713 20.8779 56.1671C20.8779 78.463 38.9613 96.5373 61.2682 96.5373Z" fill="#DAE1ED" stroke="#D3DAE6" stroke-miterlimit="10"/>
<path d="M25.6584 58.4099C24.6828 58.4099 23.9023 57.6298 23.9023 56.6547C23.9023 56.4597 23.9023 56.2646 23.9023 56.1671C23.9023 37.3472 37.9511 21.4527 56.5853 19.1124C57.5609 19.0149 58.4389 19.6975 58.5365 20.6726C58.6341 21.6477 57.9511 22.5253 56.9755 22.6229C40.0975 24.7681 27.4145 39.2 27.4145 56.1671C27.4145 56.3622 27.4145 56.4597 27.4145 56.6547C27.4145 57.6298 26.6341 58.4099 25.6584 58.4099Z" fill="#EDF0FC"/>
<path d="M61.2681 93.6119C57.2681 93.6119 53.2681 93.0268 49.5608 91.7592C48.5851 91.4666 48.0973 90.4915 48.39 89.5164C48.6827 88.5413 49.6583 88.0537 50.6339 88.3462C54.0486 89.5164 57.6583 90.004 61.2681 90.004C78.1461 90.004 92.5851 77.4249 94.829 60.6527C94.9266 59.6776 95.8047 58.995 96.7803 59.0925C97.7559 59.19 98.4388 60.0676 98.3412 61.0428C97.1705 69.9164 92.7803 78.1074 86.0486 84.1532C79.2193 90.2965 70.4388 93.6119 61.2681 93.6119Z" fill="#C8D3DE"/>
<path d="M92.7805 56.1672C92.7805 56.5572 92.7805 56.8498 92.7805 57.2398C92.1951 74.1095 78.3415 87.6637 61.2683 87.6637C44.1951 87.6637 30.3415 74.1095 29.7561 57.2398C29.7561 56.8498 29.7561 56.5572 29.7561 56.1672C29.7561 39.2 43.2195 25.2557 60.0976 24.6707C60.4878 24.6707 60.8781 24.6707 61.2683 24.6707C78.5366 24.6707 92.4878 38.5174 92.7805 55.5821C92.7805 55.7771 92.7805 55.9721 92.7805 56.1672Z" fill="#EDF0FC"/>
<path d="M92.7805 57.2398C92.1951 74.1095 78.3415 87.6637 61.2683 87.6637C44.1951 87.6637 30.3415 74.1095 29.7561 57.2398C30.3415 40.3702 44.1951 26.816 61.2683 26.816C78.3415 26.7184 92.1951 40.2727 92.7805 57.2398Z" fill="white"/>
<path d="M69.6583 76.2546H51.6096C50.7315 76.2546 50.0486 75.572 50.0486 74.6944V65.7233C50.0486 64.8457 50.7315 64.1631 51.6096 64.1631H69.6583C70.5364 64.1631 71.2193 64.8457 71.2193 65.7233V74.6944C71.2193 75.572 70.5364 76.2546 69.6583 76.2546Z" fill="#F2F5FC"/>
<path d="M88.5852 57.7273H83.4145C82.5364 57.7273 81.8535 57.0447 81.8535 56.1671C81.8535 55.2895 82.5364 54.6069 83.4145 54.6069H88.5852C89.4633 54.6069 90.1462 55.2895 90.1462 56.1671C90.1462 57.0447 89.3657 57.7273 88.5852 57.7273Z" fill="#DAE1ED"/>
<path d="M37.5608 57.7273H32.3901C31.512 57.7273 30.8291 57.0447 30.8291 56.1671C30.8291 55.2895 31.512 54.6069 32.3901 54.6069H37.5608C38.4389 54.6069 39.1218 55.2895 39.1218 56.1671C39.1218 57.0447 38.3413 57.7273 37.5608 57.7273Z" fill="#DAE1ED"/>
<path d="M60.4877 85.9084C59.6097 85.9084 58.9268 85.2258 58.9268 84.3482V79.1801C58.9268 78.3025 59.6097 77.6199 60.4877 77.6199C61.3658 77.6199 62.0487 78.3025 62.0487 79.1801V84.3482C61.9511 85.2258 61.2682 85.9084 60.4877 85.9084Z" fill="#DAE1ED"/>
<path d="M60.4877 34.9094C59.6097 34.9094 58.9268 34.2268 58.9268 33.3492V28.2786C58.9268 27.401 59.6097 26.7184 60.4877 26.7184C61.3658 26.7184 62.0487 27.401 62.0487 28.2786V33.4467C61.9511 34.2268 61.2682 34.9094 60.4877 34.9094Z" fill="#DAE1ED"/>
<path d="M60.8781 60.4577C63.5183 60.4577 65.6586 58.3185 65.6586 55.6796C65.6586 53.0407 63.5183 50.9015 60.8781 50.9015C58.238 50.9015 56.0977 53.0407 56.0977 55.6796C56.0977 58.3185 58.238 60.4577 60.8781 60.4577Z" fill="#F2F5FC"/>
<path d="M81.1705 36.7622C80.5852 36.2746 79.7071 36.2746 79.2193 36.7622L62.3413 54.5094C62.2437 54.5094 62.2437 54.5094 62.1462 54.5094C60.8779 54.5094 59.9023 55.4845 59.9023 56.7522C59.9023 56.8497 59.9023 56.9472 59.9023 57.0447L57.1705 59.8726C56.6827 60.4577 56.6827 61.3353 57.1705 61.8229C57.4632 62.1154 57.7559 62.2129 58.1462 62.2129C58.5364 62.2129 58.9266 62.1154 59.1218 61.8229L61.8535 58.995C61.951 58.995 62.0486 58.995 62.0486 58.995C63.3169 58.995 64.2925 58.0199 64.2925 56.7522C64.2925 56.6547 64.2925 56.5572 64.2925 56.4597L81.1705 38.8099C81.7559 38.1273 81.7559 37.2497 81.1705 36.7622Z" fill="#DAE1ED"/>
<path d="M79.9022 35.6895C79.3169 35.202 78.4388 35.202 77.951 35.6895L61.073 53.4368C60.9754 53.4368 60.9754 53.4368 60.8778 53.4368C59.6095 53.4368 58.6339 54.4119 58.6339 55.6796C58.6339 55.7771 58.6339 55.8746 58.6339 55.9721L55.9022 58.8C55.4144 59.385 55.4144 60.2627 55.9022 60.7502C56.1949 61.0428 56.4876 61.1403 56.8778 61.1403C57.2681 61.1403 57.6583 61.0428 57.8535 60.7502L60.5852 57.9224C60.6827 57.9224 60.7803 57.9224 60.7803 57.9224C62.0486 57.9224 63.0242 56.9472 63.0242 55.6796C63.0242 55.5821 63.0242 55.4845 63.0242 55.387L79.9022 37.7373C80.4876 37.0547 80.39 36.1771 79.9022 35.6895Z" fill="#EB358A"/>
<path d="M79.317 36.1771L56.3902 60.0677C56.195 60.0677 56.195 60.0677 55.9999 60.0677C55.8048 59.7751 55.9024 59.3851 56.0975 59.0925L78.1463 35.9821C78.4389 35.6896 78.9267 35.6896 79.2194 35.8846C79.4145 35.8846 79.4145 36.0796 79.317 36.1771Z" fill="#FF4FA2"/>
<path d="M68.7804 3.60796V8.87363C68.7804 10.9214 67.1219 12.4816 65.1707 12.4816H56.1951C54.1463 12.4816 52.5853 10.8239 52.5853 8.87363V3.60796C52.5853 1.5602 54.2439 0 56.1951 0H65.1707C67.2195 0 68.7804 1.65771 68.7804 3.60796Z" fill="#1C3754"/>
<path d="M68.7804 3.60796V8.87363C68.7804 10.9214 67.1219 12.4816 65.1707 12.4816H56.1951C54.1463 12.4816 52.5853 10.8239 52.5853 8.87363V7.89851C53.1707 10.4338 55.4146 10.4338 55.4146 10.4338H64.6829C65.9512 10.4338 67.0243 9.36119 67.0243 8.09353V4.29055C67.0243 1.65771 66.5365 0.682587 65.1707 0C67.2195 0 68.7804 1.65771 68.7804 3.60796Z" fill="#172D45"/>
<path d="M53.9509 9.45864C53.6583 9.45864 53.4631 9.26362 53.4631 8.97108V2.92531C53.4631 2.63277 53.6583 2.43774 53.9509 2.43774C54.2436 2.43774 54.4387 2.63277 54.4387 2.92531V8.97108C54.3412 9.26362 54.1461 9.45864 53.9509 9.45864Z" fill="#2D5887"/>
<path d="M56.1951 9.45864C55.9024 9.45864 55.7073 9.26362 55.7073 8.97108V2.92531C55.7073 2.63277 55.9024 2.43774 56.1951 2.43774C56.4878 2.43774 56.6829 2.63277 56.6829 2.92531V8.97108C56.6829 9.26362 56.4878 9.45864 56.1951 9.45864Z" fill="#2D5887"/>
<path d="M58.5366 9.45864C58.244 9.45864 58.0488 9.26362 58.0488 8.97108V2.92531C58.0488 2.63277 58.244 2.43774 58.5366 2.43774C58.8293 2.43774 59.0244 2.63277 59.0244 2.92531V8.97108C58.9269 9.26362 58.7318 9.45864 58.5366 9.45864Z" fill="#2D5887"/>
<path d="M60.7803 9.45864C60.4876 9.45864 60.2925 9.26362 60.2925 8.97108V2.92531C60.2925 2.63277 60.4876 2.43774 60.7803 2.43774C61.073 2.43774 61.2681 2.63277 61.2681 2.92531V8.97108C61.2681 9.26362 61.073 9.45864 60.7803 9.45864Z" fill="#2D5887"/>
<path d="M63.1218 9.45864C62.8292 9.45864 62.634 9.26362 62.634 8.97108V2.92531C62.634 2.63277 62.8292 2.43774 63.1218 2.43774C63.4145 2.43774 63.6096 2.63277 63.6096 2.92531V8.97108C63.5121 9.26362 63.317 9.45864 63.1218 9.45864Z" fill="#2D5887"/>
<path d="M65.3657 9.45864C65.0731 9.45864 64.8779 9.26362 64.8779 8.97108V2.92531C64.8779 2.63277 65.0731 2.43774 65.3657 2.43774C65.6584 2.43774 65.8535 2.63277 65.8535 2.92531V8.97108C65.8535 9.26362 65.5609 9.45864 65.3657 9.45864Z" fill="#2D5887"/>
<path opacity="0.7" d="M67.6096 9.45864C67.3169 9.45864 67.1218 9.26362 67.1218 8.97108V2.92531C67.1218 2.63277 67.3169 2.43774 67.6096 2.43774C67.9023 2.43774 68.0974 2.63277 68.0974 2.92531V8.97108C68.0974 9.26362 67.9023 9.45864 67.6096 9.45864Z" fill="#2D5887"/>
<path d="M33.8537 22.6229L28.9757 27.4985C27.9025 28.5712 26.1464 28.5712 24.9757 27.4985L22.1464 24.6707C21.0733 23.598 21.0733 21.8428 22.1464 20.6727L27.0245 15.797C28.0977 14.7244 29.8537 14.7244 31.0245 15.797L33.8537 18.6249C34.9269 19.795 34.9269 21.5503 33.8537 22.6229Z" fill="#1C3754"/>
<path d="M88.2924 22.6229L93.1705 27.4985C94.2436 28.5712 95.9997 28.5712 97.1705 27.4985L99.9997 24.6707C101.073 23.598 101.073 21.8428 99.9997 20.6727L95.1217 15.797C94.0485 14.7244 92.2924 14.7244 91.1217 15.797L88.2924 18.6249C87.2193 19.795 87.2193 21.5503 88.2924 22.6229Z" fill="#1C3754"/>
<path d="M60.878 56.07C61.0936 56.07 61.2683 55.8953 61.2683 55.6798C61.2683 55.4643 61.0936 55.2896 60.878 55.2896C60.6625 55.2896 60.4878 55.4643 60.4878 55.6798C60.4878 55.8953 60.6625 56.07 60.878 56.07Z" fill="#1C3754"/>
<g filter="url(#filter0_d_105_4525)">
<path d="M111.122 78.79C111.122 80.1552 110.927 81.4229 110.634 82.6905C110.439 83.4706 110.244 84.1532 109.951 84.8358C108.293 89.1263 104.878 92.6368 100.586 94.392C100.488 94.4895 100.39 94.4895 100.293 94.4895C100 94.587 99.7075 94.6845 99.3172 94.7821C97.6587 95.3671 95.9026 95.5622 94.1465 95.5622C84.7807 95.5622 77.1709 87.9562 77.1709 78.595C77.1709 69.2338 84.7807 61.7253 94.1465 61.7253C103.512 61.8229 111.122 69.4288 111.122 78.79Z" fill="url(#paint2_linear_105_4525)"/>
</g>
<path d="M110.634 82.6908C110.439 83.4709 110.244 84.1535 109.951 84.8361C108.293 89.1266 104.878 92.6371 100.585 94.3923L91.1221 84.9336L89.8538 83.666L99.2196 75.2799L102.342 73.5247L110.634 81.8132V82.6908Z" fill="url(#paint3_linear_105_4525)"/>
<path d="M92.3905 85.4209C91.9027 85.4209 91.4149 85.2259 91.0247 84.8358L87.1222 80.9353C86.3417 80.1552 86.3417 78.8876 87.1222 78.1075C87.9027 77.3274 89.171 77.3274 89.9515 78.1075L92.3905 80.5453L99.5125 73.4269C100.293 72.6468 101.561 72.6468 102.342 73.4269C103.122 74.207 103.122 75.4746 102.342 76.2547L93.8539 84.8358C93.4637 85.2259 92.8783 85.4209 92.3905 85.4209Z" fill="url(#paint4_linear_105_4525)"/>
<path opacity="0.4" d="M92.7804 55.6796H60.1951V24.6707C60.5853 24.6707 60.9756 24.6707 61.3658 24.6707C78.5365 24.6707 92.4878 38.5174 92.7804 55.6796Z" fill="url(#paint5_linear_105_4525)"/>
<defs>
<filter id="filter0_d_105_4525" x="69.1709" y="58.7253" width="49.9512" height="49.8368" filterUnits="userSpaceOnUse" color-interpolation-filters="sRGB">
<feFlood flood-opacity="0" result="BackgroundImageFix"/>
<feColorMatrix in="SourceAlpha" type="matrix" values="0 0 0 0 0 0 0 0 0 0 0 0 0 0 0 0 0 0 127 0" result="hardAlpha"/>
<feOffset dy="5"/>
<feGaussianBlur stdDeviation="4"/>
<feColorMatrix type="matrix" values="0 0 0 0 0.1125 0 0 0 0 0.295916 0 0 0 0 1 0 0 0 0.22 0"/>
<feBlend mode="normal" in2="BackgroundImageFix" result="effect1_dropShadow_105_4525"/>
<feBlend mode="normal" in="SourceGraphic" in2="effect1_dropShadow_105_4525" result="shape"/>
</filter>
<linearGradient id="paint0_linear_105_4525" x1="0" y1="53.5435" x2="3.22478" y2="53.5435" gradientUnits="userSpaceOnUse">
<stop stop-color="#83A6FF"/>
<stop offset="1" stop-color="#5A78FF"/>
</linearGradient>
<linearGradient id="paint1_linear_105_4525" x1="104.094" y1="15.1322" x2="106.612" y2="15.1322" gradientUnits="userSpaceOnUse">
<stop stop-color="#FF66A9"/>
<stop offset="1" stop-color="#F53689"/>
</linearGradient>
<linearGradient id="paint2_linear_105_4525" x1="85.0621" y1="64.8878" x2="103.699" y2="93.2848" gradientUnits="userSpaceOnUse">
<stop stop-color="#83A6FF"/>
<stop offset="1" stop-color="#5A78FF"/>
</linearGradient>
<linearGradient id="paint3_linear_105_4525" x1="96.2255" y1="78.6958" x2="106.935" y2="89.4109" gradientUnits="userSpaceOnUse">
<stop stop-color="#4F6AFF"/>
<stop offset="1" stop-color="#657EFF" stop-opacity="0"/>
</linearGradient>
<linearGradient id="paint4_linear_105_4525" x1="99.0251" y1="81.4996" x2="92.0286" y2="74.4996" gradientUnits="userSpaceOnUse">
<stop offset="0.0113208" stop-color="#C2D1FF"/>
<stop offset="1" stop-color="white"/>
</linearGradient>
<linearGradient id="paint5_linear_105_4525" x1="57.9387" y1="30.8656" x2="87.0521" y2="59.9934" gradientUnits="userSpaceOnUse">
<stop stop-color="#EF4896"/>
<stop offset="1" stop-color="#F14D9A" stop-opacity="0"/>
</linearGradient>
</defs>
</svg>
