<svg width="120" height="105" viewBox="0 0 120 105" fill="none" xmlns="http://www.w3.org/2000/svg">
<path d="M107.222 50.1049C107.222 61.1995 103.505 71.4106 97.3412 79.6579C93.9172 84.0762 89.8083 88.0035 85.1124 91.0472C77.4817 96.0545 68.3835 99 58.6004 99C31.6971 99 9.97876 77.1052 9.97876 50.2031C9.97876 23.2027 31.7949 1.40613 58.6004 1.40613C68.3835 1.40613 77.4817 4.35162 85.1124 9.26076C89.8083 12.3044 93.9172 16.2318 97.3412 20.65C103.602 28.7992 107.222 39.0102 107.222 50.1049Z" fill="#EAEEF9"/>
<path d="M18.6702 11.6993C19.9547 11.2802 20.6576 9.89545 20.2401 8.60625C19.8226 7.31705 18.4428 6.61164 17.1582 7.03066C15.8736 7.44968 15.1707 8.83447 15.5883 10.1237C16.0058 11.4129 17.3856 12.1183 18.6702 11.6993Z" fill="#EAEEF9"/>
<path d="M24.009 3.69053C24.8825 3.4056 25.3604 2.46396 25.0765 1.58731C24.7926 0.710656 23.8543 0.230968 22.9808 0.515894C22.1073 0.800821 21.6293 1.74247 21.9133 2.61912C22.1972 3.49577 23.1355 3.97546 24.009 3.69053Z" fill="#EAEEF9"/>
<path d="M1.66312 56.585C2.58163 56.585 3.32623 55.8378 3.32623 54.9159C3.32623 53.9941 2.58163 53.2468 1.66312 53.2468C0.744602 53.2468 0 53.9941 0 54.9159C0 55.8378 0.744602 56.585 1.66312 56.585Z" fill="url(#paint0_linear_105_4289)"/>
<path d="M117.256 35.8854C118.771 34.4954 118.877 32.1354 117.492 30.6143C116.107 29.0932 113.756 28.987 112.24 30.377C110.724 31.7671 110.618 34.127 112.003 35.6481C113.388 37.1692 115.74 37.2755 117.256 35.8854Z" fill="#EAEEF9"/>
<path d="M116.516 19.5701C117.38 19.5701 118.081 18.8667 118.081 17.9992C118.081 17.1316 117.38 16.4282 116.516 16.4282C115.651 16.4282 114.951 17.1316 114.951 17.9992C114.951 18.8667 115.651 19.5701 116.516 19.5701Z" fill="url(#paint1_linear_105_4289)"/>
<path d="M10.8594 93.4036H111.625" stroke="#EBF0F6" stroke-width="2" stroke-miterlimit="10" stroke-linecap="round" stroke-linejoin="round"/>
<path d="M92.0582 8.96625V90.3599C92.0582 91.8327 90.8843 93.109 89.319 93.109H29.349C27.8815 93.109 26.6097 91.9308 26.6097 90.3599V8.96625C26.6097 7.4935 27.8815 6.31531 29.349 6.31531H89.4168C90.8842 6.31531 92.0582 7.4935 92.0582 8.96625Z" fill="#CED7E2"/>
<path d="M92.0581 14.8572V90.3599C92.0581 91.8326 90.8842 93.109 89.3189 93.109H34.5339L29.7402 88.298L84.2317 13.4826L88.9276 11.7153L92.0581 14.8572Z" fill="#BCC4CF"/>
<path d="M89.6125 12.9918H30.2295V88.5927C30.2295 89.1818 30.7186 89.5745 31.2078 89.5745H89.6125V12.9918Z" fill="#A6AFBA"/>
<path d="M88.1449 11.6172H30.6207C30.1316 11.6172 29.7402 12.0099 29.7402 12.5008V87.2181C29.7402 87.709 30.1316 88.1017 30.6207 88.1017H88.1449C88.6341 88.1017 89.0254 87.709 89.0254 87.2181V12.599C89.1232 12.1081 88.7319 11.6172 88.1449 11.6172Z" fill="#E3EAF2"/>
<g filter="url(#filter0_d_105_4289)">
<path d="M89.0255 11.7153C89.0255 11.7153 88.9277 16.2317 87.5581 44.803C87.5581 44.9994 87.5581 45.1957 87.5581 45.3921C85.8949 73.4724 60.9482 79.3634 57.9155 79.6579C56.5459 79.7561 53.9044 79.9525 49.1108 80.0507C43.2409 80.247 34.2405 80.3452 20.2508 80.5416C19.7617 80.5416 19.4682 80.0507 19.6638 79.6579C29.4469 60.1195 29.5447 11.8135 29.5447 11.8135H89.0255V11.7153Z" fill="white"/>
</g>
<path d="M78.3621 26.1483H39.5235C39.23 26.1483 38.9365 25.8537 38.9365 25.5592C38.9365 25.2646 39.23 24.9701 39.5235 24.9701H78.3621C78.6556 24.9701 78.9491 25.2646 78.9491 25.5592C78.9491 25.8537 78.6556 26.1483 78.3621 26.1483Z" fill="#CED7E2"/>
<path d="M78.1665 29.6828H62.7093C62.4158 29.6828 62.1223 29.3883 62.1223 29.0937C62.1223 28.7992 62.4158 28.5046 62.7093 28.5046H78.1665C78.46 28.5046 78.7535 28.7992 78.7535 29.0937C78.7535 29.3883 78.46 29.6828 78.1665 29.6828Z" fill="#CED7E2"/>
<path d="M58.4048 29.6828H39.23C38.9366 29.6828 38.6431 29.3883 38.6431 29.0937C38.6431 28.7992 38.9366 28.5046 39.23 28.5046H58.4048C58.6983 28.5046 58.9918 28.7992 58.9918 29.0937C58.9918 29.3883 58.7961 29.6828 58.4048 29.6828Z" fill="#E3EAF2"/>
<path d="M52.5348 33.1192H39.0342C38.7408 33.1192 38.4473 32.8247 38.4473 32.5301C38.4473 32.2356 38.7408 31.941 39.0342 31.941H52.6327C52.9262 31.941 53.2196 32.2356 53.2196 32.5301C53.2196 32.8247 52.9262 33.1192 52.5348 33.1192Z" fill="#CED7E2"/>
<path d="M77.0901 41.8575H55.5674C55.274 41.8575 54.9805 41.563 54.9805 41.2684C54.9805 40.9739 55.274 40.6793 55.5674 40.6793H77.0901C77.3836 40.6793 77.6771 40.9739 77.6771 41.2684C77.6771 41.563 77.3836 41.8575 77.0901 41.8575Z" fill="#CED7E2"/>
<path d="M51.1653 41.8575H38.4473C38.1538 41.8575 37.8604 41.563 37.8604 41.2684C37.8604 40.9739 38.1538 40.6793 38.4473 40.6793H51.1653C51.4588 40.6793 51.7523 40.9739 51.7523 41.2684C51.7523 41.563 51.4588 41.8575 51.1653 41.8575Z" fill="#E3EAF2"/>
<path d="M76.8947 45.2939H67.7965C67.503 45.2939 67.2095 44.9994 67.2095 44.7048C67.2095 44.4103 67.503 44.1157 67.7965 44.1157H76.8947C77.1882 44.1157 77.4817 44.4103 77.4817 44.7048C77.4817 44.9994 77.1882 45.2939 76.8947 45.2939Z" fill="#CED7E2"/>
<path d="M62.807 45.2939H37.9581C37.6646 45.2939 37.3711 44.9994 37.3711 44.7048C37.3711 44.4103 37.6646 44.1157 37.9581 44.1157H62.807C63.1005 44.1157 63.394 44.4103 63.394 44.7048C63.394 44.9994 63.1005 45.2939 62.807 45.2939Z" fill="#E3EAF2"/>
<path d="M60.8505 48.8286H37.4691C37.1756 48.8286 36.8821 48.534 36.8821 48.2395C36.8821 47.9449 37.1756 47.6504 37.4691 47.6504H60.8505C61.144 47.6504 61.4375 47.9449 61.4375 48.2395C61.4375 48.534 61.144 48.8286 60.8505 48.8286Z" fill="#E3EAF2"/>
<path d="M74.84 57.7632H49.4041C49.1106 57.7632 48.8171 57.4686 48.8171 57.1741C48.8171 56.8795 49.1106 56.585 49.4041 56.585H74.84C75.1335 56.585 75.427 56.8795 75.427 57.1741C75.427 57.4686 75.1335 57.7632 74.84 57.7632Z" fill="#E3EAF2"/>
<path d="M45.3934 57.7632H35.9039C35.6104 57.7632 35.3169 57.4686 35.3169 57.1741C35.3169 56.8795 35.6104 56.585 35.9039 56.585H45.3934C45.6869 56.585 45.9804 56.8795 45.9804 57.1741C45.9804 57.4686 45.7847 57.7632 45.3934 57.7632Z" fill="#CED7E2"/>
<path d="M74.5468 61.2978H55.9591C55.6656 61.2978 55.3721 61.0033 55.3721 60.7087C55.3721 60.4142 55.6656 60.1196 55.9591 60.1196H74.6446C74.9381 60.1196 75.2316 60.4142 75.2316 60.7087C75.2316 61.0033 74.9381 61.2978 74.5468 61.2978Z" fill="#CED7E2"/>
<path d="M52.4369 61.2978H35.5123C35.2188 61.2978 34.9253 61.0033 34.9253 60.7087C34.9253 60.4142 35.2188 60.1196 35.5123 60.1196H52.4369C52.7304 60.1196 53.0239 60.4142 53.0239 60.7087C53.0239 61.0033 52.7304 61.2978 52.4369 61.2978Z" fill="#E3EAF2"/>
<path d="M46.567 64.7342H34.7296C34.4361 64.7342 34.1426 64.4397 34.1426 64.1451C34.1426 63.8506 34.4361 63.556 34.7296 63.556H46.567C46.8605 63.556 47.154 63.8506 47.154 64.1451C47.154 64.4397 46.8605 64.7342 46.567 64.7342Z" fill="#E3EAF2"/>
<path d="M87.4605 45.3921C85.7974 73.4724 60.8506 79.3634 57.8179 79.6579C56.4483 79.7561 53.8069 79.9525 49.0132 80.0507C61.4376 74.2579 68.1879 63.9487 67.9923 55.8977C74.0577 56.2904 84.4278 55.7995 87.4605 45.3921Z" fill="#EAEEF9"/>
<path d="M72.6879 6.11885H63.2962C63.2962 5.92248 63.394 5.8243 63.394 5.62793C63.394 3.76246 61.8287 2.19153 59.9699 2.19153C58.1111 2.19153 56.5459 3.76246 56.5459 5.62793C56.5459 5.8243 56.5459 6.02066 56.6437 6.11885H47.252C46.7628 6.11885 46.2737 6.51158 46.2737 7.10068V10.1443C46.2737 12.4026 48.1325 14.268 50.3826 14.268H69.5573C71.8074 14.268 73.6662 12.4026 73.6662 10.1443V7.10068C73.6662 6.51158 73.177 6.11885 72.6879 6.11885Z" fill="#1C3754"/>
<path d="M72.1009 5.52986H62.7092C62.7092 5.33349 62.8071 5.23531 62.8071 5.03894C62.8071 3.17347 61.2418 1.60254 59.383 1.60254C57.5242 1.60254 55.959 3.17347 55.959 5.03894C55.959 5.23531 55.9589 5.43167 56.0568 5.52986H46.6651C46.1759 5.52986 45.6868 5.92259 45.6868 6.51169V9.55536C45.6868 11.8136 47.5455 13.679 49.7956 13.679H68.9704C71.2205 13.679 73.0793 11.8136 73.0793 9.55536V6.51169C73.0793 5.92259 72.5901 5.52986 72.1009 5.52986Z" fill="#2D5887"/>
<path d="M59.3832 6.60987C60.2476 6.60987 60.9484 5.90654 60.9484 5.03894C60.9484 4.17135 60.2476 3.46802 59.3832 3.46802C58.5187 3.46802 57.8179 4.17135 57.8179 5.03894C57.8179 5.90654 58.5187 6.60987 59.3832 6.60987Z" fill="#EAEEF9"/>
<g filter="url(#filter1_d_105_4289)">
<path d="M105.573 75.5443C105.475 76.2316 105.377 76.919 105.279 77.6062C105.279 77.7044 105.181 77.8024 105.181 77.9006C105.181 77.9988 105.084 78.0969 105.084 78.2932C104.79 79.6678 104.301 80.9441 103.714 82.1223C101.953 85.4605 99.3114 88.1117 96.083 89.7808C95.6917 89.9772 95.3004 90.1737 94.9091 90.37C93.9308 90.7628 93.0503 91.0572 91.9742 91.2536C91.6807 91.3518 91.485 91.3515 91.1915 91.4496C89.0393 91.8424 86.7893 91.8428 84.5392 91.3519C75.0497 89.3882 68.9841 80.0606 70.9407 70.5369C72.8973 61.0131 82.1911 54.9259 91.6807 56.8895C95.0069 57.5768 98.1375 59.2458 100.485 61.7004C104.203 65.3332 105.964 70.4388 105.573 75.5443Z" fill="url(#paint2_linear_105_4289)"/>
</g>
<path d="M105.559 75.6325C105.559 76.3198 105.363 77.0071 105.265 77.6943C105.265 77.7925 105.265 77.8907 105.168 77.9889C105.168 78.0871 105.168 78.1853 105.07 78.3816C104.776 79.7562 104.287 81.0326 103.7 82.2108C101.939 85.549 99.2978 88.1999 96.0694 89.869C95.6781 90.0654 95.2868 90.2618 94.8954 90.4581L82.8623 83.0944L85.3081 74.6507L88.6343 69.8397L96.0694 69.2506L105.559 75.6325Z" fill="url(#paint3_linear_105_4289)"/>
<path d="M92.7433 74.5524C92.7433 74.4542 92.7433 74.4542 92.7433 74.356C92.7433 74.356 92.7433 74.2579 92.8412 74.1597C92.8412 74.0615 92.8412 74.0615 92.939 73.9633C93.0368 73.7669 93.1347 73.4724 93.2325 73.1778C93.3303 73.0797 93.6238 72.3924 93.6238 72.2942L87.9497 69.1523C87.8518 69.1523 87.754 69.4469 87.6562 69.6433C87.4605 69.8396 87.3627 70.1342 87.2648 70.1342C87.2648 70.1342 86.9714 70.4287 86.9714 70.5269L86.7757 70.7233C86.58 70.9196 86.2865 71.2142 85.6017 71.5087C84.6234 71.9997 83.8408 71.7051 83.5473 71.8033L83.3516 71.9015C83.2538 71.9015 83.156 71.9996 83.156 72.0978C82.8625 72.3924 82.9603 72.3924 82.7646 82.6034C82.7646 82.898 83.156 82.9961 83.3516 82.7998L86.6779 77.1052C86.8735 76.8106 87.167 76.7124 87.4605 76.9088C87.754 77.1052 87.8518 77.3997 87.6562 77.6943L84.1343 83.3889C83.9386 83.6834 84.2321 83.978 84.5256 83.7816L87.4605 82.0143L87.5583 81.9161L90.5911 80.0506C92.939 78.5779 93.3303 78.4797 93.4282 77.9888C93.526 77.5961 93.2325 77.3997 92.939 76.6142C92.8412 76.4179 92.5477 75.4361 92.7433 74.5524ZM89.6128 75.927C89.1236 76.7124 88.1453 77.007 87.3627 76.5161C86.58 76.0252 86.2865 75.0433 86.7757 74.2579C87.2648 73.4724 88.2431 73.1778 89.0258 73.6688C89.8084 74.1597 90.1019 75.1415 89.6128 75.927Z" fill="url(#paint4_linear_105_4289)"/>
<path d="M93.7216 72.1957C93.6237 72.2939 93.3303 72.9812 93.3303 73.0794C93.2324 73.3739 93.0368 73.6685 93.0368 73.8648L87.2648 70.2321C87.3626 70.1339 87.4604 69.9375 87.6561 69.7412C87.7539 69.5448 87.9496 69.2502 87.9496 69.2502L93.7216 72.1957Z" fill="#C4D1FF"/>
<path d="M93.2323 73.3743L87.4603 69.7415C86.9711 69.4469 86.8733 68.7597 87.1668 68.3669L88.7321 65.8142C89.0256 65.3233 89.7104 65.2251 90.1017 65.5196L95.8737 69.1524C96.3628 69.4469 96.4607 70.1342 96.1672 70.527L94.6019 73.0797C94.3084 73.5706 93.6236 73.6688 93.2323 73.3743Z" fill="url(#paint5_linear_105_4289)"/>
<defs>
<filter id="filter0_d_105_4289" x="15.6025" y="11.7153" width="77.423" height="77.8262" filterUnits="userSpaceOnUse" color-interpolation-filters="sRGB">
<feFlood flood-opacity="0" result="BackgroundImageFix"/>
<feColorMatrix in="SourceAlpha" type="matrix" values="0 0 0 0 0 0 0 0 0 0 0 0 0 0 0 0 0 0 127 0" result="hardAlpha"/>
<feOffset dy="5"/>
<feGaussianBlur stdDeviation="2"/>
<feColorMatrix type="matrix" values="0 0 0 0 0.397708 0 0 0 0 0.47749 0 0 0 0 0.575 0 0 0 0.18 0"/>
<feBlend mode="normal" in2="BackgroundImageFix" result="effect1_dropShadow_105_4289"/>
<feBlend mode="normal" in="SourceGraphic" in2="effect1_dropShadow_105_4289" result="shape"/>
</filter>
<filter id="filter1_d_105_4289" x="62.574" y="53.5215" width="51.0522" height="51.2117" filterUnits="userSpaceOnUse" color-interpolation-filters="sRGB">
<feFlood flood-opacity="0" result="BackgroundImageFix"/>
<feColorMatrix in="SourceAlpha" type="matrix" values="0 0 0 0 0 0 0 0 0 0 0 0 0 0 0 0 0 0 127 0" result="hardAlpha"/>
<feOffset dy="5"/>
<feGaussianBlur stdDeviation="4"/>
<feColorMatrix type="matrix" values="0 0 0 0 0.1125 0 0 0 0 0.295916 0 0 0 0 1 0 0 0 0.22 0"/>
<feBlend mode="normal" in2="BackgroundImageFix" result="effect1_dropShadow_105_4289"/>
<feBlend mode="normal" in="SourceGraphic" in2="effect1_dropShadow_105_4289" result="shape"/>
</filter>
<linearGradient id="paint0_linear_105_4289" x1="0" y1="54.9213" x2="3.23368" y2="54.9213" gradientUnits="userSpaceOnUse">
<stop stop-color="#83A6FF"/>
<stop offset="1" stop-color="#5A78FF"/>
</linearGradient>
<linearGradient id="paint1_linear_105_4289" x1="114.979" y1="18.047" x2="118.016" y2="18.047" gradientUnits="userSpaceOnUse">
<stop stop-color="#FF66A9"/>
<stop offset="1" stop-color="#F53689"/>
</linearGradient>
<linearGradient id="paint2_linear_105_4289" x1="70.4957" y1="74.108" x2="105.625" y2="74.108" gradientUnits="userSpaceOnUse">
<stop stop-color="#83A6FF"/>
<stop offset="1" stop-color="#5A78FF"/>
</linearGradient>
<linearGradient id="paint3_linear_105_4289" x1="89.8668" y1="74.9915" x2="98.7588" y2="83.8516" gradientUnits="userSpaceOnUse">
<stop stop-color="#4F6AFF"/>
<stop offset="1" stop-color="#657EFF" stop-opacity="0"/>
</linearGradient>
<linearGradient id="paint4_linear_105_4289" x1="89.8142" y1="80.4474" x2="84.7568" y2="71.561" gradientUnits="userSpaceOnUse">
<stop offset="0.0113208" stop-color="#C2D1FF"/>
<stop offset="1" stop-color="white"/>
</linearGradient>
<linearGradient id="paint5_linear_105_4289" x1="92.2388" y1="74.0865" x2="91.3678" y2="67.257" gradientUnits="userSpaceOnUse">
<stop offset="0.0113208" stop-color="#C2D1FF"/>
<stop offset="1" stop-color="white"/>
</linearGradient>
</defs>
</svg>
