<svg width="122" height="115" viewBox="0 0 122 115" fill="none" xmlns="http://www.w3.org/2000/svg">
<path d="M8.38281 113.449H121" stroke="#EBF0F6" stroke-width="2" stroke-miterlimit="10" stroke-linecap="round" stroke-linejoin="round"/>
<path d="M89.2643 112.568C80.8897 112.788 70.8621 112.568 63.8098 112.458C56.7574 112.678 46.7299 112.788 38.3552 112.568C46.6197 107.832 49.4847 99.1316 49.9255 93.4045H77.5839C78.1349 99.1316 80.9999 107.832 89.2643 112.568Z" fill="url(#paint0_linear_103_386)"/>
<path d="M39.237 114H88.383C89.0442 114 89.7053 113.449 89.7053 112.678C89.7053 112.018 89.1544 111.357 88.383 111.357H39.237C38.5758 111.357 37.9147 111.907 37.9147 112.678C37.9147 113.449 38.4656 114 39.237 114Z" fill="#EBF0F6"/>
<path d="M116.152 20.4942V92.4133C116.152 94.1755 114.719 95.4971 113.066 95.4971H15.1047C13.4518 95.4971 12.0193 94.0653 12.0193 92.4133V20.4942C12.0193 18.8421 13.4518 17.4103 15.1047 17.4103H113.066C114.719 17.4103 116.152 18.732 116.152 20.4942Z" fill="#F5F8FF"/>
<path d="M116.152 20.4942V82.501H12.0193V20.4942C12.0193 18.8421 13.4518 17.4103 15.1047 17.4103H113.066C114.719 17.4103 116.152 18.732 116.152 20.4942Z" fill="#172D45"/>
<path d="M112.074 21.2651H15.4352V78.9766H112.074V21.2651Z" fill="white"/>
<path d="M63.8098 91.8625C65.2096 91.8625 66.3443 90.7284 66.3443 89.3294C66.3443 87.9304 65.2096 86.7963 63.8098 86.7963C62.4101 86.7963 61.2754 87.9304 61.2754 89.3294C61.2754 90.7284 62.4101 91.8625 63.8098 91.8625Z" fill="#DBDFE6"/>
<path d="M19.8429 70.1657H17.639V72.3684H19.8429V70.1657Z" fill="#EAEEF9"/>
<path d="M19.8429 65.7603H17.639V67.963H19.8429V65.7603Z" fill="#EAEEF9"/>
<path d="M19.8429 61.465H17.639V63.6677H19.8429V61.465Z" fill="#EAEEF9"/>
<path d="M19.8429 57.1696H17.639V59.3723H19.8429V57.1696Z" fill="url(#paint1_linear_103_386)"/>
<path d="M19.8429 52.7642H17.639V54.9669H19.8429V52.7642Z" fill="#EAEEF9"/>
<path d="M19.8429 48.4688H17.639V50.6715H19.8429V48.4688Z" fill="#F3F5FA"/>
<path d="M24.3608 74.461H22.157V76.6638H24.3608V74.461Z" fill="#EAEEF9"/>
<path d="M24.3608 70.1657H22.157V72.3684H24.3608V70.1657Z" fill="#EAEEF9"/>
<path d="M24.3608 61.465H22.157V63.6677H24.3608V61.465Z" fill="#EAEEF9"/>
<path d="M24.3608 57.1696H22.157V59.3723H24.3608V57.1696Z" fill="#EAEEF9"/>
<path d="M24.3608 52.7642H22.157V54.9669H24.3608V52.7642Z" fill="#EAEEF9"/>
<path d="M24.3608 48.4688H22.157V50.6715H24.3608V48.4688Z" fill="#EAEEF9"/>
<path d="M24.3608 44.1735H22.157V46.3762H24.3608V44.1735Z" fill="#EAEEF9"/>
<path d="M24.3608 39.7681H22.157V41.9708H24.3608V39.7681Z" fill="url(#paint2_linear_103_386)"/>
<path d="M28.8787 74.461H26.6748V76.6638H28.8787V74.461Z" fill="#EAEEF9"/>
<path d="M28.8787 70.1657H26.6748V72.3684H28.8787V70.1657Z" fill="#EAEEF9"/>
<path d="M28.8787 65.7603H26.6748V67.963H28.8787V65.7603Z" fill="#EAEEF9"/>
<path d="M28.8787 61.465H26.6748V63.6677H28.8787V61.465Z" fill="#EAEEF9"/>
<path d="M28.8787 57.1696H26.6748V59.3723H28.8787V57.1696Z" fill="url(#paint3_linear_103_386)"/>
<path d="M28.8787 52.7642H26.6748V54.9669H28.8787V52.7642Z" fill="#F3F5FA"/>
<path d="M28.8787 48.4688H26.6748V50.6715H28.8787V48.4688Z" fill="#EAEEF9"/>
<path d="M28.8787 44.1735H26.6748V46.3762H28.8787V44.1735Z" fill="#F3F5FA"/>
<path d="M28.8787 39.7681H26.6748V41.9708H28.8787V39.7681Z" fill="#EAEEF9"/>
<path d="M28.8787 35.4727H26.6748V37.6754H28.8787V35.4727Z" fill="#F3F5FA"/>
<path d="M33.2864 74.461H31.0825V76.6638H33.2864V74.461Z" fill="#EAEEF9"/>
<path d="M33.2864 70.1657H31.0825V72.3684H33.2864V70.1657Z" fill="#EAEEF9"/>
<path d="M33.2864 65.7603H31.0825V67.963H33.2864V65.7603Z" fill="#EAEEF9"/>
<path d="M33.2864 61.465H31.0825V63.6677H33.2864V61.465Z" fill="#EAEEF9"/>
<path d="M33.2864 57.1696H31.0825V59.3723H33.2864V57.1696Z" fill="#EAEEF9"/>
<path d="M33.2864 52.7642H31.0825V54.9669H33.2864V52.7642Z" fill="#F3F5FA"/>
<path d="M33.2864 48.4688H31.0825V50.6715H33.2864V48.4688Z" fill="#EAEEF9"/>
<path d="M33.2864 44.1735H31.0825V46.3762H33.2864V44.1735Z" fill="#EAEEF9"/>
<path d="M37.8044 74.461H35.6006V76.6638H37.8044V74.461Z" fill="#EAEEF9"/>
<path d="M37.8044 70.1657H35.6006V72.3684H37.8044V70.1657Z" fill="#EAEEF9"/>
<path d="M37.8044 65.7603H35.6006V67.963H37.8044V65.7603Z" fill="#EAEEF9"/>
<path d="M37.8044 57.1696H35.6006V59.3723H37.8044V57.1696Z" fill="#EAEEF9"/>
<path d="M37.8044 52.7642H35.6006V54.9669H37.8044V52.7642Z" fill="url(#paint4_linear_103_386)"/>
<path d="M37.8044 48.4688H35.6006V50.6715H37.8044V48.4688Z" fill="#F3F5FA"/>
<path d="M42.3224 74.461H40.1185V76.6638H42.3224V74.461Z" fill="#EAEEF9"/>
<path d="M42.3224 70.1657H40.1185V72.3684H42.3224V70.1657Z" fill="#EAEEF9"/>
<path d="M42.3224 65.7603H40.1185V67.963H42.3224V65.7603Z" fill="#EAEEF9"/>
<path d="M42.3224 61.465H40.1185V63.6677H42.3224V61.465Z" fill="#EAEEF9"/>
<path d="M42.3224 57.1696H40.1185V59.3723H42.3224V57.1696Z" fill="#EAEEF9"/>
<path d="M42.3224 52.7642H40.1185V54.9669H42.3224V52.7642Z" fill="#EAEEF9"/>
<path d="M42.3224 48.4688H40.1185V50.6715H42.3224V48.4688Z" fill="#F3F5FA"/>
<path d="M42.3224 44.1735H40.1185V46.3762H42.3224V44.1735Z" fill="#EAEEF9"/>
<path d="M42.3224 39.7681H40.1185V41.9708H42.3224V39.7681Z" fill="#EAEEF9"/>
<path d="M46.8402 74.461H44.6364V76.6638H46.8402V74.461Z" fill="#EAEEF9"/>
<path d="M46.8402 70.1657H44.6364V72.3684H46.8402V70.1657Z" fill="#EAEEF9"/>
<path d="M46.8402 65.7603H44.6364V67.963H46.8402V65.7603Z" fill="#EAEEF9"/>
<path d="M46.8402 57.1696H44.6364V59.3723H46.8402V57.1696Z" fill="#EAEEF9"/>
<path d="M46.8402 52.7642H44.6364V54.9669H46.8402V52.7642Z" fill="#F3F5FA"/>
<path d="M51.3582 74.461H49.1543V76.6638H51.3582V74.461Z" fill="url(#paint5_linear_103_386)"/>
<path d="M51.3582 70.1657H49.1543V72.3684H51.3582V70.1657Z" fill="#EAEEF9"/>
<path d="M51.3582 65.7603H49.1543V67.963H51.3582V65.7603Z" fill="#EAEEF9"/>
<path d="M51.3582 61.465H49.1543V63.6677H51.3582V61.465Z" fill="#F3F5FA"/>
<path d="M51.3582 57.1696H49.1543V59.3723H51.3582V57.1696Z" fill="#EAEEF9"/>
<path d="M51.3582 48.4688H49.1543V50.6715H51.3582V48.4688Z" fill="#EAEEF9"/>
<path d="M51.3582 44.1735H49.1543V46.3762H51.3582V44.1735Z" fill="#F3F5FA"/>
<path d="M55.876 74.461H53.6721V76.6638H55.876V74.461Z" fill="#EAEEF9"/>
<path d="M55.876 70.1657H53.6721V72.3684H55.876V70.1657Z" fill="#EAEEF9"/>
<path d="M55.876 65.7603H53.6721V67.963H55.876V65.7603Z" fill="url(#paint6_linear_103_386)"/>
<path d="M55.876 61.465H53.6721V63.6677H55.876V61.465Z" fill="#EAEEF9"/>
<path d="M55.876 57.1696H53.6721V59.3723H55.876V57.1696Z" fill="#EAEEF9"/>
<path d="M55.876 52.7642H53.6721V54.9669H55.876V52.7642Z" fill="#EAEEF9"/>
<path d="M55.876 48.4688H53.6721V50.6715H55.876V48.4688Z" fill="#F3F5FA"/>
<path d="M55.876 39.7681H53.6721V41.9708H55.876V39.7681Z" fill="#EAEEF9"/>
<path d="M55.876 35.4727H53.6721V37.6754H55.876V35.4727Z" fill="#F3F5FA"/>
<path d="M87.5015 70.1657H85.2976V72.3684H87.5015V70.1657Z" fill="#EAEEF9"/>
<path d="M87.5015 61.465H85.2976V63.6677H87.5015V61.465Z" fill="#EAEEF9"/>
<path d="M87.5015 57.1696H85.2976V59.3723H87.5015V57.1696Z" fill="#EAEEF9"/>
<path d="M87.5015 52.7642H85.2976V54.9669H87.5015V52.7642Z" fill="#F3F5FA"/>
<path d="M87.5015 48.4688H85.2976V50.6715H87.5015V48.4688Z" fill="#EAEEF9"/>
<path d="M87.5015 44.1735H85.2976V46.3762H87.5015V44.1735Z" fill="#EAEEF9"/>
<path d="M92.0193 74.461H89.8154V76.6638H92.0193V74.461Z" fill="#EAEEF9"/>
<path d="M92.0193 70.1657H89.8154V72.3684H92.0193V70.1657Z" fill="#EAEEF9"/>
<path d="M92.0193 65.7603H89.8154V67.963H92.0193V65.7603Z" fill="#EAEEF9"/>
<path d="M92.0193 61.465H89.8154V63.6677H92.0193V61.465Z" fill="#EAEEF9"/>
<path d="M92.0193 57.1696H89.8154V59.3723H92.0193V57.1696Z" fill="#EAEEF9"/>
<path d="M92.0193 52.7642H89.8154V54.9669H92.0193V52.7642Z" fill="url(#paint7_linear_103_386)"/>
<path d="M92.0193 48.4688H89.8154V50.6715H92.0193V48.4688Z" fill="#F3F5FA"/>
<path d="M96.5372 74.461H94.3334V76.6638H96.5372V74.461Z" fill="#EAEEF9"/>
<path d="M96.5372 70.1657H94.3334V72.3684H96.5372V70.1657Z" fill="#EAEEF9"/>
<path d="M96.5372 65.7603H94.3334V67.963H96.5372V65.7603Z" fill="#EAEEF9"/>
<path d="M96.5372 61.465H94.3334V63.6677H96.5372V61.465Z" fill="#EAEEF9"/>
<path d="M96.5372 57.1696H94.3334V59.3723H96.5372V57.1696Z" fill="#EAEEF9"/>
<path d="M96.5372 52.7642H94.3334V54.9669H96.5372V52.7642Z" fill="#EAEEF9"/>
<path d="M96.5372 48.4688H94.3334V50.6715H96.5372V48.4688Z" fill="#F3F5FA"/>
<path d="M96.5372 44.1735H94.3334V46.3762H96.5372V44.1735Z" fill="#EAEEF9"/>
<path d="M96.5372 39.7681H94.3334V41.9708H96.5372V39.7681Z" fill="#EAEEF9"/>
<path d="M100.945 74.461H98.7411V76.6638H100.945V74.461Z" fill="#EAEEF9"/>
<path d="M100.945 70.1657H98.7411V72.3684H100.945V70.1657Z" fill="#EAEEF9"/>
<path d="M100.945 65.7603H98.7411V67.963H100.945V65.7603Z" fill="#EAEEF9"/>
<path d="M100.945 61.465H98.7411V63.6677H100.945V61.465Z" fill="#EAEEF9"/>
<path d="M100.945 57.1696H98.7411V59.3723H100.945V57.1696Z" fill="#EAEEF9"/>
<path d="M105.463 74.461H103.259V76.6638H105.463V74.461Z" fill="url(#paint8_linear_103_386)"/>
<path d="M105.463 70.1657H103.259V72.3684H105.463V70.1657Z" fill="#EAEEF9"/>
<path d="M105.463 65.7603H103.259V67.963H105.463V65.7603Z" fill="#EAEEF9"/>
<path d="M105.463 61.465H103.259V63.6677H105.463V61.465Z" fill="#F3F5FA"/>
<path d="M105.463 57.1696H103.259V59.3723H105.463V57.1696Z" fill="#EAEEF9"/>
<path d="M105.463 52.7642H103.259V54.9669H105.463V52.7642Z" fill="url(#paint9_linear_103_386)"/>
<path d="M105.463 48.4688H103.259V50.6715H105.463V48.4688Z" fill="#EAEEF9"/>
<path d="M105.463 44.1735H103.259V46.3762H105.463V44.1735Z" fill="#F3F5FA"/>
<path d="M109.981 74.461H107.777V76.6638H109.981V74.461Z" fill="#EAEEF9"/>
<path d="M109.981 70.1657H107.777V72.3684H109.981V70.1657Z" fill="#EAEEF9"/>
<path d="M109.981 65.7603H107.777V67.963H109.981V65.7603Z" fill="url(#paint10_linear_103_386)"/>
<path d="M109.981 61.465H107.777V63.6677H109.981V61.465Z" fill="#EAEEF9"/>
<path d="M109.981 57.1696H107.777V59.3723H109.981V57.1696Z" fill="#EAEEF9"/>
<path d="M109.981 52.7642H107.777V54.9669H109.981V52.7642Z" fill="#EAEEF9"/>
<path d="M109.981 48.4688H107.777V50.6715H109.981V48.4688Z" fill="#F3F5FA"/>
<path d="M109.981 39.7681H107.777V41.9708H109.981V39.7681Z" fill="#EAEEF9"/>
<path d="M109.981 35.4727H107.777V37.6754H109.981V35.4727Z" fill="#F3F5FA"/>
<path d="M60.394 74.461H58.1902V76.6638H60.394V74.461Z" fill="#EAEEF9"/>
<path d="M60.394 70.1657H58.1902V72.3684H60.394V70.1657Z" fill="#EAEEF9"/>
<path d="M60.394 65.7603H58.1902V67.963H60.394V65.7603Z" fill="#EAEEF9"/>
<path d="M60.394 57.1696H58.1902V59.3723H60.394V57.1696Z" fill="#F3F5FA"/>
<path d="M60.394 48.4688H58.1902V50.6715H60.394V48.4688Z" fill="#EAEEF9"/>
<path d="M60.394 44.1735H58.1902V46.3762H60.394V44.1735Z" fill="#F3F5FA"/>
<path d="M60.394 39.7681H58.1902V41.9708H60.394V39.7681Z" fill="#EAEEF9"/>
<path d="M60.394 35.4727H58.1902V37.6754H60.394V35.4727Z" fill="#F3F5FA"/>
<path d="M64.9119 70.1657H62.708V72.3684H64.9119V70.1657Z" fill="#EAEEF9"/>
<path d="M64.9119 65.7603H62.708V67.963H64.9119V65.7603Z" fill="#F3F5FA"/>
<path d="M64.9119 61.465H62.708V63.6677H64.9119V61.465Z" fill="#EAEEF9"/>
<path d="M64.9119 57.1696H62.708V59.3723H64.9119V57.1696Z" fill="#EAEEF9"/>
<path d="M64.9119 52.7642H62.708V54.9669H64.9119V52.7642Z" fill="url(#paint11_linear_103_386)"/>
<path d="M64.9119 48.4688H62.708V50.6715H64.9119V48.4688Z" fill="#EAEEF9"/>
<path d="M64.9119 44.1735H62.708V46.3762H64.9119V44.1735Z" fill="#EAEEF9"/>
<path d="M69.4298 74.461H67.226V76.6638H69.4298V74.461Z" fill="#EAEEF9"/>
<path d="M69.4298 65.7603H67.226V67.963H69.4298V65.7603Z" fill="#EAEEF9"/>
<path d="M69.4298 61.465H67.226V63.6677H69.4298V61.465Z" fill="url(#paint12_linear_103_386)"/>
<path d="M69.4298 57.1696H67.226V59.3723H69.4298V57.1696Z" fill="#EAEEF9"/>
<path d="M69.4298 52.7642H67.226V54.9669H69.4298V52.7642Z" fill="#F3F5FA"/>
<path d="M69.4298 48.4688H67.226V50.6715H69.4298V48.4688Z" fill="url(#paint13_linear_103_386)"/>
<path d="M73.9476 74.461H71.7438V76.6638H73.9476V74.461Z" fill="#EAEEF9"/>
<path d="M73.9476 61.465H71.7438V63.6677H73.9476V61.465Z" fill="#F3F5FA"/>
<path d="M73.9476 57.1696H71.7438V59.3723H73.9476V57.1696Z" fill="#EAEEF9"/>
<path d="M73.9476 52.7642H71.7438V54.9669H73.9476V52.7642Z" fill="#EAEEF9"/>
<path d="M78.4656 74.461H76.2617V76.6638H78.4656V74.461Z" fill="#EAEEF9"/>
<path d="M78.4656 70.1657H76.2617V72.3684H78.4656V70.1657Z" fill="#EAEEF9"/>
<path d="M78.4656 65.7603H76.2617V67.963H78.4656V65.7603Z" fill="#EAEEF9"/>
<path d="M78.4656 61.465H76.2617V63.6677H78.4656V61.465Z" fill="#EAEEF9"/>
<path d="M78.4656 57.1696H76.2617V59.3723H78.4656V57.1696Z" fill="#F3F5FA"/>
<path d="M78.4656 52.7642H76.2617V54.9669H78.4656V52.7642Z" fill="#EAEEF9"/>
<path d="M78.4656 48.4688H76.2617V50.6715H78.4656V48.4688Z" fill="url(#paint14_linear_103_386)"/>
<path d="M78.4656 44.1735H76.2617V46.3762H78.4656V44.1735Z" fill="#EAEEF9"/>
<path d="M82.8733 74.461H80.6694V76.6638H82.8733V74.461Z" fill="#EAEEF9"/>
<path d="M82.8733 65.7603H80.6694V67.963H82.8733V65.7603Z" fill="#EAEEF9"/>
<path d="M82.8733 61.465H80.6694V63.6677H82.8733V61.465Z" fill="#F3F5FA"/>
<path d="M82.1019 70.0555H46.6198C45.2975 70.0555 44.1956 68.9542 44.1956 67.6325V31.5078C44.1956 30.1861 45.2975 29.0848 46.6198 29.0848H82.1019C83.4242 29.0848 84.5262 30.1861 84.5262 31.5078V67.6325C84.5262 68.9542 83.4242 70.0555 82.1019 70.0555Z" fill="#1C3754"/>
<path d="M64.1404 42.8518C66.2705 42.8518 67.9972 41.126 67.9972 38.997C67.9972 36.8681 66.2705 35.1423 64.1404 35.1423C62.0104 35.1423 60.2837 36.8681 60.2837 38.997C60.2837 41.126 62.0104 42.8518 64.1404 42.8518Z" fill="#2D5887"/>
<path d="M77.9147 49.7904H50.2563C49.9257 49.7904 49.5951 49.46 49.5951 49.1296V46.1559C49.5951 45.8255 49.9257 45.4951 50.2563 45.4951H77.9147C78.2452 45.4951 78.5758 45.8255 78.5758 46.1559V49.1296C78.5758 49.46 78.2452 49.7904 77.9147 49.7904Z" fill="#2D5887"/>
<path d="M77.9147 57.1696H50.2563C49.9257 57.1696 49.5951 56.8392 49.5951 56.5088V53.5351C49.5951 53.2047 49.9257 52.8743 50.2563 52.8743H77.9147C78.2452 52.8743 78.5758 53.2047 78.5758 53.5351V56.5088C78.5758 56.8392 78.2452 57.1696 77.9147 57.1696Z" fill="#2D5887"/>
<path d="M78.0249 59.3723H68.3279C67.9973 59.3723 67.6667 59.5926 67.6667 60.0331V62.4561C67.6667 62.7865 67.8871 63.117 68.3279 63.117H78.0249C78.3555 63.117 78.686 62.8967 78.686 62.4561V60.0331C78.5758 59.7027 78.3555 59.3723 78.0249 59.3723Z" fill="url(#paint15_linear_103_386)"/>
<path d="M75.7108 60.8041H70.5317C70.3113 60.8041 70.0909 61.0245 70.0909 61.2449C70.0909 61.4652 70.3113 61.6856 70.5317 61.6856H75.7108C75.9312 61.6856 76.1515 61.4652 76.1515 61.2449C76.1515 60.9143 75.9312 60.8041 75.7108 60.8041Z" fill="white"/>
<path d="M65.2423 54.7466H52.0191C51.7988 54.7466 51.5784 54.967 51.5784 55.1874C51.5784 55.4077 51.7988 55.6281 52.0191 55.6281H65.2423C65.4627 55.6281 65.6831 55.4077 65.6831 55.1874C65.5729 54.8568 65.4627 54.7466 65.2423 54.7466Z" fill="#6A99CC"/>
<path d="M65.2423 47.1472H52.0191C51.7988 47.1472 51.5784 47.3675 51.5784 47.5879C51.5784 47.8083 51.7988 48.0287 52.0191 48.0287H65.2423C65.4627 48.0287 65.6831 47.8083 65.6831 47.5879C65.5729 47.3675 65.4627 47.1472 65.2423 47.1472Z" fill="#6A99CC"/>
<path d="M104.03 81.1794C104.03 85.2544 102.267 88.8889 99.5125 91.422C96.978 93.7349 93.6722 95.1667 90.0359 95.1667C87.0607 95.1667 84.3058 94.2856 82.102 92.7437C78.4656 90.2105 76.0414 86.0254 76.0414 81.2895C76.0414 73.5799 82.3224 67.3022 90.0359 67.3022C97.7494 67.3022 104.03 73.4698 104.03 81.1794Z" fill="#E9F0F8"/>
<path d="M99.8429 92.3032C99.7327 91.9728 99.7328 91.6424 99.6226 91.312C99.6226 91.2019 99.5124 91.0917 99.4022 90.8715C98.8512 89.7701 97.9697 88.6687 96.7575 88.0079C96.2066 87.6775 95.5454 87.5674 94.7741 87.5674C94.5537 87.5674 94.3333 87.5674 94.2231 87.5674C93.011 87.5674 92.9008 87.3471 92.9008 87.3471V85.3646C93.562 84.814 94.1129 84.2633 94.5537 83.6025C94.9945 82.9416 95.325 82.2808 95.5454 81.5099C96.3168 81.2896 96.8677 80.6288 96.7575 79.8578C96.7575 79.5274 96.5372 79.197 96.5372 78.8666C96.5372 78.6463 96.5372 78.5362 96.5372 78.3159C96.5372 78.2058 96.5372 78.0956 96.5372 77.9855C96.5372 77.8754 96.5372 77.7652 96.5372 77.6551C96.427 77.1044 96.3168 76.4436 95.876 75.6726C94.8843 73.8003 92.9008 72.5888 90.6969 72.5888C90.2562 72.5888 89.8154 72.5888 89.3746 72.6989C88.6033 72.9192 87.8319 73.2496 87.1708 73.6902C87.0606 73.8003 86.9504 73.9104 86.8402 74.0206C86.8402 74.0206 86.73 74.0206 86.73 74.1307C86.0688 74.7915 85.5179 75.5625 85.1873 76.5537C84.8567 77.4348 84.8567 78.426 84.9669 79.4173C84.9669 79.4173 84.9669 79.4173 84.9669 79.5274C84.9669 79.5274 84.9669 79.5274 84.9669 79.6375C84.9669 79.8578 85.0771 79.7477 84.9669 79.9679L84.8567 80.0781C84.7465 80.2984 84.6363 80.7389 84.7465 81.1795C85.0771 82.0605 85.6281 81.9504 86.179 82.391C86.179 82.391 86.0688 82.391 86.0688 82.5011L85.4077 82.7214C82.6529 83.6024 81.7713 85.9153 82.8732 87.3471C83.314 87.8978 83.9752 88.3383 85.0771 88.5586C84.7465 88.5586 84.5261 88.7789 84.4159 88.889C83.2038 89.8802 82.4325 91.312 82.2121 92.7438C82.1019 93.1843 82.5427 93.5147 82.8732 93.5147H99.0716C99.6226 93.1843 99.9531 92.7438 99.8429 92.3032ZM87.1708 84.2633C87.281 84.4835 87.5013 84.7038 87.7217 84.9241C87.8319 85.0342 88.0523 85.2545 88.2727 85.3646C88.3829 85.4748 88.4931 85.5849 88.6033 85.5849C88.6033 85.5849 88.6033 85.5849 88.7135 85.695C88.7135 85.695 88.8237 85.695 88.8237 85.8052V86.9065C88.8237 86.9065 88.8237 86.9065 88.7135 86.7964C88.6033 86.6863 88.4931 86.5761 88.3829 86.5761C88.1625 86.466 88.0523 86.3559 87.8319 86.2457C87.7217 86.2457 87.7217 86.1356 87.6115 86.1356C87.0606 85.8052 86.5096 85.4748 86.5096 85.0342C86.6198 84.814 86.8402 84.5937 87.1708 84.2633Z" fill="white"/>
<path d="M99.5124 91.3119C96.978 93.6248 93.6722 95.0566 90.0358 95.0566C87.0606 95.0566 84.3058 94.1755 82.1019 92.6336C82.1019 92.5234 82.1019 92.5234 82.1019 92.4133C82.3223 90.9815 83.0937 89.5497 84.3058 88.5585C84.5262 88.4484 84.7466 88.2281 84.9669 88.2281C83.9752 88.0078 83.2039 87.5673 82.7631 87.0166H86.0689C86.9504 88.3382 88.4931 89.1092 90.2562 89.1092C91.6887 89.1092 93.011 88.5585 93.8926 87.5673C94.0028 87.5673 94.113 87.5673 94.2231 87.5673C94.3333 87.5673 94.5537 87.5673 94.7741 87.5673C95.5455 87.5673 96.2066 87.7876 96.7576 88.0078C97.9697 88.5585 98.8513 89.6599 99.4022 90.8714C99.4022 91.0917 99.5124 91.2018 99.5124 91.3119Z" fill="url(#paint16_linear_103_386)"/>
<path d="M92.9009 85.3646V87.2369L87.5015 87.4572L87.832 86.2457C87.9422 86.2457 87.9422 86.3558 88.0524 86.3558C88.2728 86.4659 88.383 86.5761 88.6034 86.6862C88.7136 86.7963 88.8238 86.7963 88.934 86.9065C88.934 86.9065 88.934 86.9065 89.0442 87.0166V85.8051C89.0442 85.8051 88.934 85.8051 88.934 85.695C89.8155 86.1355 91.1378 86.4659 92.9009 85.3646Z" fill="url(#paint17_linear_103_386)"/>
<path d="M96.4271 77.9854C95.3252 78.3158 94.2232 78.5361 93.1213 78.4259C91.3582 78.3158 89.5951 77.5449 88.2728 76.3334C87.832 77.655 86.7301 78.6462 85.4078 79.1969C85.1874 79.307 85.0772 79.307 84.8568 79.4172C84.8568 79.4172 84.8568 79.4172 84.8568 79.307C84.7466 78.3158 84.8568 77.4347 85.0772 76.4435C85.4078 75.5624 85.9588 74.6813 86.6199 74.0205C86.6199 74.0205 86.7301 74.0205 86.7301 73.9103C86.8403 73.8002 86.9505 73.6901 87.0607 73.5799C87.7218 73.1394 88.4932 72.809 89.2645 72.5887C89.7053 72.4786 90.1461 72.4786 90.5869 72.4786C92.7907 72.4786 94.7742 73.6901 95.7659 75.5624C96.0965 76.3333 96.3169 76.884 96.4271 77.4347C96.4271 77.655 96.4271 77.7651 96.4271 77.9854Z" fill="#1C3754"/>
<path d="M89.5951 90.6511C89.1543 91.2018 88.2728 91.3119 87.5014 91.2018C88.2728 90.4308 87.832 87.8977 85.0772 88.2281C81.2204 87.4571 81.6612 83.6024 85.4078 82.3909L86.0689 82.1706L86.1791 82.2807C86.5097 83.0517 86.8403 83.7125 87.281 84.2632C85.7383 85.5848 87.832 85.9152 88.9339 86.9065C89.7053 87.4571 90.4766 89.5497 89.5951 90.6511Z" fill="#1C3754"/>
<path d="M104.03 81.1794C104.03 85.2544 102.267 88.8889 99.5125 91.422C96.978 93.7349 93.6722 95.1667 90.0359 95.1667C87.0607 95.1667 84.3058 94.2856 82.102 92.7437C78.4656 90.2105 76.0414 86.0254 76.0414 81.2895C76.0414 73.5799 82.3224 67.3022 90.0359 67.3022C97.7494 67.3022 104.03 73.4698 104.03 81.1794Z" stroke="white" stroke-width="1.492" stroke-miterlimit="10" stroke-linecap="round" stroke-linejoin="round"/>
<path d="M38.0248 19.5029C38.0248 24.4591 36.0413 28.9747 32.9559 32.2788C32.7355 32.6092 32.405 32.8294 32.0744 33.1598C28.7686 36.2437 24.3609 38.116 19.5124 38.116C15.6557 38.116 12.0193 36.9045 8.93389 34.8119C8.05234 34.2612 7.28099 33.4903 6.50964 32.8294C3.09366 29.4152 1 24.7895 1 19.6131C1 9.26023 9.26447 1 19.5124 1C29.7603 1 38.0248 9.26023 38.0248 19.5029Z" fill="#E9F0F8"/>
<path d="M38.0248 19.5029C38.0248 24.8996 35.7108 29.7456 32.0744 33.0497C28.7686 36.1335 24.3609 38.0059 19.5124 38.0059C15.6557 38.0059 12.0193 36.7944 8.93389 34.7018C4.0854 31.3977 1 25.7807 1 19.5029C1 9.26023 9.26447 1 19.5124 1C29.7603 1 38.0248 9.26023 38.0248 19.5029Z" fill="#E9F0F8"/>
<path d="M32.9559 32.2787C32.7355 32.6091 32.405 32.8294 32.0744 33.1598C28.7686 36.2436 24.3609 38.1159 19.5124 38.1159C15.6557 38.1159 12.0193 36.9044 8.93389 34.8118C8.05234 34.2611 7.28099 33.4902 6.50964 32.8294C6.95042 32.2787 7.61157 31.9483 9.04408 31.3976L9.59504 31.1773C10.697 30.7368 12.2397 30.1861 14.2231 29.305C14.5537 29.1949 14.7741 28.9746 14.9945 28.7543C15.1047 28.6442 15.2149 28.5341 15.2149 28.3138C15.3251 28.0935 15.4353 27.7631 15.4353 27.5428V23.7982C15.3251 23.688 15.3251 23.688 15.2149 23.5779C14.8843 23.1374 14.6639 22.5867 14.6639 21.9259L14.3333 21.8157C13.3416 22.036 13.4518 21.0448 13.2314 19.0623C13.1212 18.1812 13.2314 18.0711 13.6722 17.961L14.0028 17.5204C13.3416 15.8684 13.011 14.5467 13.011 13.4454C13.011 11.573 13.7824 10.3615 14.8843 9.81085C14.2231 8.15881 14.2231 7.71826 14.2231 7.71826C14.2231 7.71826 18.0799 8.37908 19.5124 8.15881C21.1653 7.8284 23.8099 8.26894 24.8017 10.4717C26.4546 11.1325 27.0055 12.1237 27.2259 13.2251C27.4463 14.9873 26.4546 16.9697 26.2342 17.6305V17.7407C26.4546 17.8508 26.5647 18.0711 26.4546 18.842C26.2342 20.7144 26.2342 21.8157 25.3526 21.5955L24.4711 23.0272C24.4711 23.2475 24.4711 23.2475 24.3609 23.3576C24.3609 23.688 24.3609 24.2387 24.3609 27.3226C24.3609 27.653 24.4711 28.0935 24.6915 28.3138C24.8017 28.4239 24.8017 28.5341 24.9119 28.5341C25.1322 28.7543 25.3526 28.9746 25.573 29.0847C27.7769 29.9658 29.4298 30.6266 30.5317 31.0672C31.7438 31.5077 32.405 31.8381 32.9559 32.2787Z" fill="white"/>
<path d="M32.9559 32.2787C32.7355 32.6091 32.405 32.8294 32.0744 33.1598C28.7686 36.2436 24.3609 38.1159 19.5124 38.1159C15.6557 38.1159 12.0193 36.9044 8.93389 34.8118C8.05234 34.2612 7.28099 33.4902 6.50964 32.8294C6.95042 32.2787 7.61157 31.9483 9.04408 31.3976L9.59504 31.1773C10.697 30.7368 12.2397 30.1861 14.2231 29.305C14.5537 29.1949 14.7741 28.9746 14.9945 28.7543C16.0964 30.2962 17.8595 31.2875 19.9532 31.2875C21.9366 31.2875 23.6997 30.2962 24.8017 28.8645C25.022 29.0847 25.2424 29.305 25.4628 29.4152C27.6667 30.2962 29.3196 30.9571 30.4215 31.3976C31.7438 31.5077 32.405 31.8382 32.9559 32.2787Z" fill="url(#paint18_linear_103_386)"/>
<path d="M26.124 17.6305C26.2342 17.19 26.0138 16.5292 25.7934 16.1988C25.7934 16.0886 25.6832 16.0886 25.6832 15.9785C24.9119 14.4366 23.259 13.8859 21.7163 13.7758C17.6391 13.5555 17.3085 14.3264 15.9862 13.2251C16.427 13.7758 16.427 14.767 15.7658 15.8684C15.3251 16.6393 14.5537 17.0799 13.7824 17.3001C11.9091 13.1149 12.9008 10.4717 14.6639 9.59058C14.2231 8.15881 14.2231 7.71826 14.2231 7.71826C14.2231 7.71826 18.0799 8.37908 19.5124 8.15881C21.1653 7.8284 23.8099 8.26894 24.8017 10.4717C26.4546 11.1325 27.0055 12.1237 27.2259 13.2251C27.3361 14.9873 26.3444 16.8596 26.124 17.6305Z" fill="#1C3754"/>
<path d="M15.4354 27.3225V23.5779C15.3252 23.4677 15.3252 23.4677 15.215 23.3576V23.1373C15.4354 23.4677 15.6557 23.7981 15.9863 24.0184L18.9615 26.111C19.6227 26.6617 20.6144 26.6617 21.3858 26.111L24.1406 23.688C24.2508 23.5779 24.361 23.4677 24.4712 23.4677C24.4712 23.7981 24.4712 24.3488 24.4712 27.4327C24.4712 27.6529 24.4712 27.7631 24.5814 27.9833H15.5455C15.4354 27.7631 15.4354 27.5428 15.4354 27.3225Z" fill="url(#paint19_linear_103_386)"/>
<path d="M38.0248 19.5029C38.0248 24.8996 35.7108 29.7456 32.0744 33.0497C28.7686 36.1335 24.3609 38.0059 19.5124 38.0059C15.6557 38.0059 12.0193 36.7944 8.93389 34.7018C4.0854 31.3977 1 25.7807 1 19.5029C1 9.26023 9.26447 1 19.5124 1C29.7603 1 38.0248 9.26023 38.0248 19.5029Z" stroke="white" stroke-width="1.9345" stroke-miterlimit="10" stroke-linecap="round" stroke-linejoin="round"/>
<defs>
<linearGradient id="paint0_linear_103_386" x1="63.8036" y1="112.051" x2="63.8036" y2="94.8718" gradientUnits="userSpaceOnUse">
<stop stop-color="#F5F8FF"/>
<stop offset="0.9913" stop-color="#D8E0EB"/>
</linearGradient>
<linearGradient id="paint1_linear_103_386" x1="17.6079" y1="58.2377" x2="19.8194" y2="58.2377" gradientUnits="userSpaceOnUse">
<stop stop-color="#FF66A9"/>
<stop offset="1" stop-color="#F53689"/>
</linearGradient>
<linearGradient id="paint2_linear_103_386" x1="22.1161" y1="40.8944" x2="24.3277" y2="40.8944" gradientUnits="userSpaceOnUse">
<stop stop-color="#FF66A9"/>
<stop offset="1" stop-color="#F53689"/>
</linearGradient>
<linearGradient id="paint3_linear_103_386" x1="26.6242" y1="58.2377" x2="28.8358" y2="58.2377" gradientUnits="userSpaceOnUse">
<stop stop-color="#83A6FF"/>
<stop offset="1" stop-color="#5A78FF"/>
</linearGradient>
<linearGradient id="paint4_linear_103_386" x1="35.6407" y1="53.902" x2="37.8523" y2="53.902" gradientUnits="userSpaceOnUse">
<stop stop-color="#FF66A9"/>
<stop offset="1" stop-color="#F53689"/>
</linearGradient>
<linearGradient id="paint5_linear_103_386" x1="49.1652" y1="75.5811" x2="51.3768" y2="75.5811" gradientUnits="userSpaceOnUse">
<stop stop-color="#83A6FF"/>
<stop offset="1" stop-color="#5A78FF"/>
</linearGradient>
<linearGradient id="paint6_linear_103_386" x1="53.6733" y1="66.9094" x2="55.8848" y2="66.9094" gradientUnits="userSpaceOnUse">
<stop stop-color="#FF66A9"/>
<stop offset="1" stop-color="#F53689"/>
</linearGradient>
<linearGradient id="paint7_linear_103_386" x1="89.7741" y1="53.902" x2="91.9857" y2="53.902" gradientUnits="userSpaceOnUse">
<stop stop-color="#FF66A9"/>
<stop offset="1" stop-color="#F53689"/>
</linearGradient>
<linearGradient id="paint8_linear_103_386" x1="103.299" y1="75.5811" x2="105.51" y2="75.5811" gradientUnits="userSpaceOnUse">
<stop stop-color="#83A6FF"/>
<stop offset="1" stop-color="#5A78FF"/>
</linearGradient>
<linearGradient id="paint9_linear_103_386" x1="103.299" y1="53.902" x2="105.51" y2="53.902" gradientUnits="userSpaceOnUse">
<stop stop-color="#83A6FF"/>
<stop offset="1" stop-color="#5A78FF"/>
</linearGradient>
<linearGradient id="paint10_linear_103_386" x1="107.807" y1="66.9094" x2="110.019" y2="66.9094" gradientUnits="userSpaceOnUse">
<stop stop-color="#FF66A9"/>
<stop offset="1" stop-color="#F53689"/>
</linearGradient>
<linearGradient id="paint11_linear_103_386" x1="62.6897" y1="53.902" x2="64.9013" y2="53.902" gradientUnits="userSpaceOnUse">
<stop stop-color="#83A6FF"/>
<stop offset="1" stop-color="#5A78FF"/>
</linearGradient>
<linearGradient id="paint12_linear_103_386" x1="67.1979" y1="62.5736" x2="69.4094" y2="62.5736" gradientUnits="userSpaceOnUse">
<stop stop-color="#FF66A9"/>
<stop offset="1" stop-color="#F53689"/>
</linearGradient>
<linearGradient id="paint13_linear_103_386" x1="67.1979" y1="49.5661" x2="69.4094" y2="49.5661" gradientUnits="userSpaceOnUse">
<stop stop-color="#83A6FF"/>
<stop offset="1" stop-color="#5A78FF"/>
</linearGradient>
<linearGradient id="paint14_linear_103_386" x1="76.2142" y1="49.5661" x2="78.4258" y2="49.5661" gradientUnits="userSpaceOnUse">
<stop stop-color="#FF66A9"/>
<stop offset="1" stop-color="#F53689"/>
</linearGradient>
<linearGradient id="paint15_linear_103_386" x1="67.703" y1="61.2062" x2="78.6002" y2="61.2062" gradientUnits="userSpaceOnUse">
<stop stop-color="#FF66A9"/>
<stop offset="1" stop-color="#F53689"/>
</linearGradient>
<linearGradient id="paint16_linear_103_386" x1="82.1361" y1="91.0848" x2="99.56" y2="91.0848" gradientUnits="userSpaceOnUse">
<stop stop-color="#FF66A9"/>
<stop offset="1" stop-color="#F53689"/>
</linearGradient>
<linearGradient id="paint17_linear_103_386" x1="90.2161" y1="87.2146" x2="90.2161" y2="86.3737" gradientUnits="userSpaceOnUse">
<stop stop-color="white"/>
<stop offset="0.9913" stop-color="#E6EDF7"/>
</linearGradient>
<linearGradient id="paint18_linear_103_386" x1="6.49278" y1="33.2656" x2="32.9059" y2="33.2656" gradientUnits="userSpaceOnUse">
<stop stop-color="#83A6FF"/>
<stop offset="1" stop-color="#5A78FF"/>
</linearGradient>
<linearGradient id="paint19_linear_103_386" x1="19.8834" y1="27.905" x2="19.8834" y2="25.2936" gradientUnits="userSpaceOnUse">
<stop stop-color="white"/>
<stop offset="0.9913" stop-color="#E6EDF7"/>
</linearGradient>
</defs>
</svg>
