<svg width="120" height="88" viewBox="0 0 120 88" fill="none" xmlns="http://www.w3.org/2000/svg">
<path d="M102.59 45.4774C102.59 55.1261 99.363 64.0063 94.0127 71.1788C91.0403 75.0212 87.4734 78.4367 83.397 81.0837C76.7728 85.4384 68.8747 88 60.3821 88C37.0276 88 18.1741 68.9588 18.1741 45.5628C18.1741 22.0814 37.1125 3.12549 60.3821 3.12549C68.8747 3.12549 76.7728 5.68709 83.397 9.95644C87.4734 12.6034 91.0403 16.0189 94.0127 19.8613C99.448 26.9484 102.59 35.8287 102.59 45.4774Z" fill="#EAEEF9"/>
<path d="M25.7053 11.9963C26.8204 11.6319 27.4306 10.4276 27.0682 9.30645C26.7057 8.18527 25.5079 7.57179 24.3928 7.93619C23.2776 8.3006 22.6675 9.5049 23.0299 10.6261C23.3924 11.7473 24.5902 12.3607 25.7053 11.9963Z" fill="#EAEEF9"/>
<path d="M30.3399 5.03146C31.0982 4.78367 31.5131 3.96475 31.2666 3.20235C31.0201 2.43996 30.2056 2.02278 29.4473 2.27057C28.6891 2.51836 28.2741 3.33728 28.5206 4.09968C28.7671 4.86208 29.5816 5.27925 30.3399 5.03146Z" fill="#EAEEF9"/>
<path d="M102.135 17.4222C103.451 16.2133 103.542 14.161 102.34 12.8381C101.138 11.5153 99.0965 11.4229 97.7807 12.6318C96.465 13.8406 96.3731 15.893 97.5755 17.2158C98.7779 18.5387 100.819 18.6311 102.135 17.4222Z" fill="#EAEEF9"/>
<path d="M102.436 2.93866C102.99 2.42967 103.029 1.56552 102.522 1.00854C102.016 0.451551 101.157 0.412648 100.603 0.921644C100.049 1.43064 100.01 2.29479 100.516 2.85177C101.023 3.40876 101.882 3.44766 102.436 2.93866Z" fill="#EAEEF9"/>
<path d="M18.9384 83.1329H106.412" stroke="#EBF0F6" stroke-width="2" stroke-miterlimit="10" stroke-linecap="round" stroke-linejoin="round"/>
<path d="M87.1337 7.30933C88.4076 7.30933 89.5117 8.33397 89.5117 9.70016V80.4859C89.5117 81.7667 88.4925 82.8767 87.1337 82.8767H34.9894C33.7155 82.8767 32.6115 81.852 32.6115 80.4859V9.70016C32.6115 8.41935 33.6306 7.30933 34.9894 7.30933H87.1337Z" fill="#CED7E2"/>
<path d="M89.5117 14.738V80.4005C89.5117 81.6813 88.4926 82.7913 87.1338 82.7913H39.4905L35.3291 78.6074L82.6327 13.5426L86.7091 12.0056L89.5117 14.738Z" fill="#BCC4CF"/>
<path d="M87.3036 13.201H35.7537V78.9489C35.7537 79.4612 36.1783 79.8028 36.6029 79.8028H87.3036V13.201Z" fill="#A6AFBA"/>
<path d="M86.879 12.7741C86.879 12.3472 86.5393 12.0056 86.1147 12.0056H36.0934C35.6688 12.0056 35.3291 12.3472 35.3291 12.7741V77.7535C35.3291 78.1804 35.6688 78.522 36.0934 78.522H86.0297C86.4544 78.522 86.7941 78.1804 86.7941 77.7535V12.7741H86.879Z" fill="#DFE7F0"/>
<g filter="url(#filter0_d_105_4354)">
<path d="M86.8789 12.7741C86.8789 12.3472 86.5392 12.0056 86.1146 12.0056H36.0933C35.6687 12.0056 35.2441 12.3472 35.329 12.7741C35.9235 38.6463 36.1782 67.934 33.2908 75.5334L81.1889 74.8503C84.1613 61.7008 86.3693 38.0486 86.8789 12.7741Z" fill="#EDF4FA"/>
</g>
<path d="M31.2526 78.0097C31.3375 80.8275 29.0445 83.2184 26.242 83.3037H24.8832L21.1464 83.3891C15.5413 83.4745 10.8704 79.0344 10.7006 73.3989C10.5307 67.7633 15.0318 63.0671 20.6369 62.8963C26.242 62.7255 30.9129 67.251 31.0827 72.8865L31.1677 75.0212L31.2526 78.0097Z" fill="url(#paint0_linear_105_4354)"/>
<path d="M30.1486 77.7535C30.2335 80.5713 27.9405 82.9621 25.138 83.0475H23.7792L17.5796 76.8143L22.845 70.6664L24.7983 69.5564L30.0637 74.8504L30.1486 77.7535Z" fill="url(#paint1_linear_105_4354)"/>
<path d="M23.0998 73.2281L24.8832 71.4349C25.3928 70.9226 25.3928 70.1541 24.8832 69.6418C24.3737 69.1295 23.6093 69.1295 23.0998 69.6418L21.3164 71.4349L19.5329 69.6418C19.0234 69.1295 18.259 69.1295 17.7495 69.6418C17.2399 70.1541 17.2399 70.9226 17.7495 71.4349L19.5329 73.2281L17.7495 75.0212C17.2399 75.5335 17.2399 76.302 17.7495 76.8143C18.0043 77.0705 18.344 77.1558 18.6837 77.1558C19.0234 77.1558 19.3631 77.0705 19.6178 76.8143L21.4013 75.0212L23.1847 76.8143C23.6943 77.3266 24.4586 77.3266 24.9682 76.8143C25.2229 76.5581 25.3079 76.2166 25.3079 75.875C25.3079 75.5335 25.2229 75.192 24.9682 74.9358L23.0998 73.2281Z" fill="url(#paint2_linear_105_4354)"/>
<g filter="url(#filter1_d_105_4354)">
<path d="M86.794 12.0911C86.794 12.0911 86.709 16.0189 85.5201 40.8664C85.5201 41.0372 85.5201 41.208 85.5201 41.3788C84.0763 65.7994 62.4203 70.9226 59.7876 71.1788C58.5986 71.2641 56.3056 71.4349 52.1443 71.5203C47.0487 71.6911 39.2356 71.7765 27.0912 71.9472C26.6666 71.9472 26.4118 71.5203 26.5816 71.1788C35.0742 54.1868 35.1591 12.1765 35.1591 12.1765H86.794V12.0911Z" fill="white"/>
</g>
<path d="M74.9044 55.9798H50.191C50.0212 55.9798 49.8513 55.7237 49.8513 55.2967C49.8513 54.9552 50.0212 54.6136 50.191 54.6136H74.9893C75.1592 54.6136 75.329 54.8698 75.329 55.2967C75.329 55.6383 75.1592 55.9798 74.9044 55.9798Z" fill="#CED7E2"/>
<path d="M62.2505 59.8222H50.0212C49.8514 59.8222 49.6815 59.5661 49.6815 59.1391C49.6815 58.7976 49.8514 58.4561 50.0212 58.4561H62.2505C62.4204 58.4561 62.5902 58.7122 62.5902 59.1391C62.5902 59.4807 62.4204 59.8222 62.2505 59.8222Z" fill="#E3EAF2"/>
<path d="M78.8961 24.7282H54.0978C53.9279 24.7282 53.7581 24.4721 53.7581 24.0452C53.7581 23.7036 53.9279 23.3621 54.0978 23.3621H78.8961C79.0659 23.3621 79.2358 23.6182 79.2358 24.0452C79.2358 24.4721 79.0659 24.7282 78.8961 24.7282Z" fill="#CED7E2"/>
<path d="M78.726 28.5708H68.8746C68.7048 28.5708 68.5349 28.3146 68.5349 27.8877C68.5349 27.5461 68.7048 27.2046 68.8746 27.2046H78.726C78.8958 27.2046 79.0657 27.4607 79.0657 27.8877C79.0657 28.3146 78.8958 28.5708 78.726 28.5708Z" fill="#CED7E2"/>
<path d="M66.1569 28.5708H53.9276C53.7577 28.5708 53.5879 28.3146 53.5879 27.8877C53.5879 27.5461 53.7577 27.2046 53.9276 27.2046H66.1569C66.3267 27.2046 66.4966 27.4607 66.4966 27.8877C66.4966 28.3146 66.3267 28.5708 66.1569 28.5708Z" fill="#E3EAF2"/>
<path d="M85.4352 41.2933C83.9915 65.714 62.3355 70.8372 59.7028 71.0933C58.5138 71.1787 56.2208 71.3495 52.0594 71.4349C62.845 66.3971 68.62 57.4314 68.535 50.4297C73.8004 50.8567 82.8025 50.4297 85.4352 41.2933Z" fill="#EAEEF9"/>
<path d="M43.9065 28.8269C43.7367 28.8269 43.5668 28.7415 43.397 28.5707L40.9341 26.1799C40.6793 25.9237 40.6793 25.4114 40.9341 25.1552C41.1889 24.8991 41.6985 24.8991 41.9532 25.1552L43.9065 27.1191L47.898 23.1059C48.1528 22.8498 48.6624 22.8498 48.9171 23.1059C49.1719 23.3621 49.1719 23.8744 48.9171 24.1306L44.4161 28.6561C44.2462 28.7415 44.0764 28.8269 43.9065 28.8269Z" fill="url(#paint3_linear_105_4354)"/>
<path d="M77.7919 40.0126H52.9936C52.8238 40.0126 52.6539 39.7564 52.6539 39.3295C52.6539 38.9879 52.8238 38.6464 52.9936 38.6464H77.7919C77.9618 38.6464 78.1316 38.9025 78.1316 39.3295C78.1316 39.671 77.9618 40.0126 77.7919 40.0126Z" fill="#CED7E2"/>
<path d="M65.0531 43.855H52.8238C52.654 43.855 52.4841 43.5988 52.4841 43.1719C52.4841 42.8303 52.654 42.4888 52.8238 42.4888H65.0531C65.223 42.4888 65.3928 42.7449 65.3928 43.1719C65.4778 43.5134 65.3079 43.855 65.0531 43.855Z" fill="#E3EAF2"/>
<path d="M42.8024 44.1112C42.6326 44.1112 42.4627 44.0258 42.2929 43.855L39.915 41.4642C39.6602 41.208 39.6602 40.6957 39.915 40.4395C40.1697 40.1834 40.6793 40.1834 40.9341 40.4395L42.8874 42.4034L46.8789 38.3902C47.1336 38.1341 47.6432 38.1341 47.898 38.3902C48.1528 38.6464 48.1528 39.1587 47.898 39.4149L43.312 43.855C43.2271 44.0258 43.0572 44.1112 42.8024 44.1112Z" fill="url(#paint4_linear_105_4354)"/>
<path d="M73.2059 7.48017C73.2059 7.39478 73.2059 7.39478 73.2059 7.48017L72.6964 6.96784C72.6964 6.96784 72.4416 7.05323 72.2717 7.22401H64.5435C64.5435 7.05323 64.5435 6.88246 64.5435 6.71168C64.5435 5.08933 63.1847 3.72314 61.5711 3.72314C59.9575 3.72314 58.5987 5.08933 58.5987 6.71168C58.5987 6.88246 58.5987 7.05323 58.6836 7.13862H50.5308C50.1061 7.13862 49.6815 7.48017 49.6815 7.99249V10.6395C49.6815 12.6034 51.0403 13.7988 52.9936 13.7988H69.6391C71.5923 13.7988 73.3758 12.6034 73.3758 10.6395V7.99249C73.4607 7.82171 73.3758 7.65094 73.2059 7.48017Z" fill="#1C3754"/>
<path d="M72.9512 7.48016V10.1272C72.9512 10.2979 72.9512 10.4687 72.9512 10.6395C72.6965 12.3472 71.2527 13.7134 69.4693 13.7134H52.7389C50.9555 13.7134 49.5117 12.3472 49.257 10.6395C49.257 10.4687 49.257 10.2979 49.257 10.1272V7.48016C49.257 7.05322 49.5967 6.62629 50.1062 6.62629H58.2591C58.2591 6.45552 58.2591 6.37013 58.2591 6.19936C58.2591 4.57701 59.6179 3.21082 61.2315 3.21082C62.8451 3.21082 64.2039 4.57701 64.2039 6.19936C64.2039 6.37013 64.2039 6.45552 64.2039 6.62629H72.3567C72.6115 6.71168 72.9512 7.05322 72.9512 7.48016Z" fill="#2D5887"/>
<path d="M61.0617 7.56551C61.8121 7.56551 62.4205 6.95385 62.4205 6.19932C62.4205 5.44479 61.8121 4.83313 61.0617 4.83313C60.3112 4.83313 59.7029 5.44479 59.7029 6.19932C59.7029 6.95385 60.3112 7.56551 61.0617 7.56551Z" fill="#EAEEF9"/>
<path d="M72.8663 10.6395C72.6115 12.3473 71.1678 13.7135 69.3843 13.7135H52.7389C50.9555 13.7135 49.5117 12.3473 49.257 10.6395H72.8663Z" fill="#316094"/>
<path opacity="0.5" d="M66.4118 9.44408H55.5413C55.2866 9.44408 55.1167 9.2733 55.1167 9.01714C55.1167 8.76098 55.2866 8.59021 55.5413 8.59021H66.4118C66.6666 8.59021 66.8364 8.76098 66.8364 9.01714C66.8364 9.2733 66.6666 9.44408 66.4118 9.44408Z" fill="#1C3754"/>
<path d="M10.2761 36.2556C10.2761 36.2556 1.86845 38.3903 4.41622 40.098C6.96399 41.7204 12.9937 44.5381 18.6837 42.6596C24.3738 40.7811 18.6837 38.1341 18.7687 38.1341C18.8536 38.1341 10.2761 36.2556 10.2761 36.2556Z" fill="#CED7E2"/>
<path d="M0 35.5725C3.05732 36.5118 12.4841 34.9748 18.5138 31.047C23.2696 36.9387 25.0531 38.4757 26.7516 38.6464C24.1189 41.2934 15.3716 45.5628 10.4459 40.0126C4.67091 43.6843 0 35.5725 0 35.5725Z" fill="#DFE7F0"/>
<path d="M93.3333 65.1163C96.5604 65.2871 105.308 61.3593 110.064 56.0653C116.178 60.5908 118.216 61.6154 120 61.3593C118.047 64.604 112.102 71.6911 103.694 72.2034C97.5795 68.6172 93.3333 65.1163 93.3333 65.1163Z" fill="#DFE7F0"/>
<path d="M42.4628 58.9684C43.5885 58.9684 44.501 58.0509 44.501 56.9192C44.501 55.7874 43.5885 54.8699 42.4628 54.8699C41.3371 54.8699 40.4246 55.7874 40.4246 56.9192C40.4246 58.0509 41.3371 58.9684 42.4628 58.9684Z" fill="url(#paint5_linear_105_4354)"/>
<path d="M89.5115 16.275H86.0295V18.5805H89.5115V16.275Z" fill="#526DFF"/>
<path d="M76.2796 20.8607L74.3579 22.7927L75.7391 24.1814L77.6608 22.2493L76.2796 20.8607Z" fill="#526DFF"/>
<path d="M98.4687 22.0901L100.39 24.0221L101.651 22.7542L99.7298 20.8221L98.4687 22.0901Z" fill="#526DFF"/>
<path d="M88.0677 52.2229C97.3545 52.2229 104.883 44.6535 104.883 35.3163C104.883 25.979 97.3545 18.4097 88.0677 18.4097C78.7809 18.4097 71.2524 25.979 71.2524 35.3163C71.2524 44.6535 78.7809 52.2229 88.0677 52.2229Z" fill="url(#paint6_linear_105_4354)"/>
<path d="M73.2907 36.2556C72.8661 36.2556 72.5264 35.9141 72.5264 35.4872C72.5264 35.4018 72.5264 35.3164 72.5264 35.231C72.5264 27.29 78.3862 20.6299 86.1994 19.6052C86.624 19.5198 86.9637 19.8614 87.0487 20.2883C87.1336 20.7152 86.7939 21.0568 86.3693 21.1422C79.3204 21.996 73.9701 28.1439 73.9701 35.231C73.9701 35.3164 73.9701 35.4018 73.9701 35.4018C73.9701 35.9141 73.6304 36.2556 73.2907 36.2556Z" fill="#88A6FF"/>
<path d="M88.1528 50.942C86.4543 50.942 84.8407 50.6859 83.2271 50.1736C82.8024 50.0028 82.6326 49.6612 82.7175 49.2343C82.8874 48.8074 83.2271 48.6366 83.6517 48.722C85.0954 49.2343 86.5392 49.4051 88.0678 49.4051C95.1167 49.4051 101.146 44.1111 102.081 37.024C102.165 36.597 102.505 36.3409 102.93 36.4263C103.354 36.5117 103.609 36.8532 103.524 37.2801C103.015 41.0372 101.231 44.4526 98.3438 47.0142C95.6262 49.5758 91.8895 50.942 88.1528 50.942Z" fill="#526DFF"/>
<path d="M101.316 35.3162C101.061 42.4887 95.2015 48.2096 88.0677 48.2096C80.8491 48.2096 74.9892 42.4887 74.8193 35.3162C75.0741 28.1437 80.934 22.4228 88.0677 22.4228C95.2864 22.3374 101.146 28.1437 101.316 35.3162Z" fill="white"/>
<path d="M99.3626 35.8286H97.2395C96.8998 35.8286 96.645 35.5724 96.645 35.2309C96.645 34.8893 96.8998 34.6332 97.2395 34.6332H99.3626C99.7023 34.6332 99.9571 34.8893 99.9571 35.2309C99.9571 35.5724 99.7023 35.8286 99.3626 35.8286Z" fill="#DAE1ED"/>
<path d="M78.3014 35.8286H76.1782C75.8385 35.8286 75.5837 35.5724 75.5837 35.2309C75.5837 34.8893 75.8385 34.6332 76.1782 34.6332H78.3014C78.6411 34.6332 78.8958 34.8893 78.8958 35.2309C78.8958 35.5724 78.6411 35.8286 78.3014 35.8286Z" fill="#DAE1ED"/>
<path d="M87.728 47.5266C87.3883 47.5266 87.1335 47.2705 87.1335 46.9289V44.7942C87.1335 44.4527 87.3883 44.1965 87.728 44.1965C88.0677 44.1965 88.3225 44.4527 88.3225 44.7942V46.9289C88.3225 47.2705 88.0677 47.5266 87.728 47.5266Z" fill="#DAE1ED"/>
<path d="M87.728 26.3506C87.3883 26.3506 87.1335 26.0944 87.1335 25.7529V23.6182C87.1335 23.2767 87.3883 23.0205 87.728 23.0205C88.0677 23.0205 88.3225 23.2767 88.3225 23.6182V25.7529C88.3225 26.0944 88.0677 26.3506 87.728 26.3506Z" fill="#DAE1ED"/>
<path d="M87.8979 36.9387C88.9766 36.9387 89.8512 36.0594 89.8512 34.9748C89.8512 33.8901 88.9766 33.0109 87.8979 33.0109C86.8191 33.0109 85.9446 33.8901 85.9446 34.9748C85.9446 36.0594 86.8191 36.9387 87.8979 36.9387Z" fill="#DAE1ED"/>
<path d="M95.7111 26.6069C95.4563 26.3507 95.1166 26.4361 94.8619 26.6069L87.898 33.9501H87.813C87.3035 33.9501 86.8788 34.3771 86.8788 34.8894C86.8788 34.9748 86.8788 34.9748 86.8788 34.9748L85.7748 36.1702C85.52 36.4263 85.605 36.7679 85.7748 37.0241C85.8597 37.1094 86.0296 37.1948 86.1994 37.1948C86.3693 37.1948 86.5391 37.1094 86.6241 37.0241L87.7281 35.8286H87.813C88.3226 35.8286 88.7472 35.4017 88.7472 34.8894C88.7472 34.804 88.7472 34.804 88.7472 34.7186L95.7111 27.3753C95.9659 27.2046 95.9659 26.863 95.7111 26.6069Z" fill="#EB358A"/>
<path d="M95.5413 26.863L86.1146 36.7679C86.0296 36.7679 86.0296 36.7679 85.9447 36.7679C85.8598 36.6825 85.8598 36.5117 86.0296 36.3409L95.1167 26.7776C95.2016 26.6068 95.4564 26.6068 95.5413 26.7776C95.5413 26.7776 95.5413 26.7776 95.5413 26.863Z" fill="#FF4FA2"/>
<path d="M91.2099 13.0304V15.2504C91.2099 16.1043 90.5305 16.7874 89.6813 16.7874H85.9446C85.0953 16.7874 84.4159 16.1043 84.4159 15.2504V13.0304C84.4159 12.1765 85.0953 11.4934 85.9446 11.4934H89.6813C90.5305 11.4934 91.2099 12.1765 91.2099 13.0304Z" fill="#172D45"/>
<path d="M76.6028 21.0566L74.5646 23.1059C74.14 23.5328 73.3756 23.5328 72.8661 23.1059L71.6771 21.9105C71.2525 21.4835 71.2525 20.7151 71.6771 20.2027L73.7153 18.1535C74.14 17.7265 74.9043 17.7265 75.4138 18.1535L76.6028 19.3489C77.0274 19.8612 77.0274 20.6297 76.6028 21.0566Z" fill="#172D45"/>
<path d="M99.3629 21.0566L101.401 23.1059C101.826 23.5328 102.59 23.5328 103.1 23.1059L104.289 21.9105C104.713 21.4835 104.713 20.7151 104.289 20.2027L102.25 18.1535C101.826 17.7265 101.061 17.7265 100.552 18.1535L99.3629 19.3489C98.9383 19.8612 98.9383 20.6297 99.3629 21.0566Z" fill="#172D45"/>
<path d="M87.8979 35.1455C87.9917 35.1455 88.0677 35.069 88.0677 34.9747C88.0677 34.8804 87.9917 34.804 87.8979 34.804C87.8041 34.804 87.728 34.8804 87.728 34.9747C87.728 35.069 87.8041 35.1455 87.8979 35.1455Z" fill="#1C3754"/>
<defs>
<filter id="filter0_d_105_4354" x="30.2908" y="12.0056" width="59.5881" height="69.5278" filterUnits="userSpaceOnUse" color-interpolation-filters="sRGB">
<feFlood flood-opacity="0" result="BackgroundImageFix"/>
<feColorMatrix in="SourceAlpha" type="matrix" values="0 0 0 0 0 0 0 0 0 0 0 0 0 0 0 0 0 0 127 0" result="hardAlpha"/>
<feOffset dy="3"/>
<feGaussianBlur stdDeviation="1.5"/>
<feColorMatrix type="matrix" values="0 0 0 0 0.397708 0 0 0 0 0.47749 0 0 0 0 0.575 0 0 0 0.18 0"/>
<feBlend mode="normal" in2="BackgroundImageFix" result="effect1_dropShadow_105_4354"/>
<feBlend mode="normal" in="SourceGraphic" in2="effect1_dropShadow_105_4354" result="shape"/>
</filter>
<filter id="filter1_d_105_4354" x="22.5284" y="12.0911" width="68.2655" height="68.8562" filterUnits="userSpaceOnUse" color-interpolation-filters="sRGB">
<feFlood flood-opacity="0" result="BackgroundImageFix"/>
<feColorMatrix in="SourceAlpha" type="matrix" values="0 0 0 0 0 0 0 0 0 0 0 0 0 0 0 0 0 0 127 0" result="hardAlpha"/>
<feOffset dy="5"/>
<feGaussianBlur stdDeviation="2"/>
<feColorMatrix type="matrix" values="0 0 0 0 0.397708 0 0 0 0 0.47749 0 0 0 0 0.575 0 0 0 0.18 0"/>
<feBlend mode="normal" in2="BackgroundImageFix" result="effect1_dropShadow_105_4354"/>
<feBlend mode="normal" in="SourceGraphic" in2="effect1_dropShadow_105_4354" result="shape"/>
</filter>
<linearGradient id="paint0_linear_105_4354" x1="10.7411" y1="73.1277" x2="31.2548" y2="73.1277" gradientUnits="userSpaceOnUse">
<stop stop-color="#FF66A9"/>
<stop offset="1" stop-color="#F53689"/>
</linearGradient>
<linearGradient id="paint1_linear_105_4354" x1="20.9185" y1="72.9019" x2="25.9497" y2="77.9059" gradientUnits="userSpaceOnUse">
<stop stop-color="#E81778"/>
<stop offset="1" stop-color="#E01F79" stop-opacity="0"/>
</linearGradient>
<linearGradient id="paint2_linear_105_4354" x1="24.649" y1="76.6701" x2="18.1657" y2="70.1707" gradientUnits="userSpaceOnUse">
<stop offset="0.0113208" stop-color="#FFC9E3"/>
<stop offset="1" stop-color="white"/>
</linearGradient>
<linearGradient id="paint3_linear_105_4354" x1="40.7334" y1="25.8467" x2="49.1381" y2="25.8467" gradientUnits="userSpaceOnUse">
<stop stop-color="#83A6FF"/>
<stop offset="1" stop-color="#5A78FF"/>
</linearGradient>
<linearGradient id="paint4_linear_105_4354" x1="39.6621" y1="41.0865" x2="48.0667" y2="41.0865" gradientUnits="userSpaceOnUse">
<stop stop-color="#83A6FF"/>
<stop offset="1" stop-color="#5A78FF"/>
</linearGradient>
<linearGradient id="paint5_linear_105_4354" x1="40.4322" y1="56.8896" x2="44.5365" y2="56.8896" gradientUnits="userSpaceOnUse">
<stop stop-color="#FF66A9"/>
<stop offset="1" stop-color="#F53689"/>
</linearGradient>
<linearGradient id="paint6_linear_105_4354" x1="71.2166" y1="35.2892" x2="104.929" y2="35.2892" gradientUnits="userSpaceOnUse">
<stop stop-color="#83A6FF"/>
<stop offset="1" stop-color="#5A78FF"/>
</linearGradient>
</defs>
</svg>
